{
.appVersion = "924";
copyright = "Copyright 2010 The Neuton Project Authors (http://www.21326.info/)";
customParameters = (
{
name = note;
value = "Neuton is a dark, dutch-inspired, compact text serif, intended for use on screen. Neuton is Brian Zick's debut font, and includes text figures, an extended character set, and smooth, readable forms. Neuton works well in any size, as well as in print.";
},
{
name = openTypeNameLicense;

glyphs = (
{
glyphname = A;
lastChange = "2016-08-10 11:03:53 +0000";
layers = (
{
layerId = "AE2A7EE3-C661-4E21-B15C-7E7CBD4BEDE2";
paths = (
{
closed = 1;
nodes = (
"52 0 LINE",
"57 42 LINE",
"199 72 LINE",
"637 1254 LINE",
"690 1268 LINE",
"1105 66 LINE",
"1237 47 LINE",
"1229 1 LINE",
"820 1 LINE",
"829 43 LINE",
"995 73 LINE",
"856 478 LINE",
"424 478 LINE",
"276 65 LINE",
"460 46 LINE",
"451 0 LINE"
);
},
{
closed = 1;
nodes = (
"444 534 LINE",
"837 534 LINE",
"644 1085 LINE"
);
}
);
width = 1288;
},
{
layerId = "95A1F7A7-251D-4D34-8987-F15869CF2847";
paths = (
{
closed = 1;
nodes = (
"46 0 LINE",
"54 58 LINE",
"199 101 LINE",
"637 1246 LINE",
"739 1268 LINE",
"1141 95 LINE",
"1276 64 LINE",
"1268 0 LINE",
"806 0 LINE",
"816 58 LINE",
"985 101 LINE",
"861 455 LINE",
"436 455 LINE",
"305 95 LINE",
"490 63 LINE",
"480 0 LINE"
);
},
{
closed = 1;
nodes = (
"464 534 LINE",
"837 534 LINE",
"657 1060 LINE"
);
}
);
width = 1326;
},
{
layerId = "A90FD956-C3C8-4F9C-A3E6-D92726884721";
paths = (
{
closed = 1;
nodes = (
"-26 0 LINE",
"-17 74 LINE",
"132 129 LINE",
"559 1237 LINE",
"710 1268 LINE",
"1100 124 LINE",
"1237 80 LINE",
"1228 0 LINE",
"713 0 LINE",
"725 74 LINE",
"896 129 LINE",
"787 432 LINE",
"368 432 LINE",
"267 124 LINE",
"453 80 LINE",
"442 0 LINE"
);
},
{
closed = 1;
nodes = (
"406 534 LINE",
"758 534 LINE",
"592 1034 LINE"
);
}
);
width = 1278;
},
{
layerId = "E2DFD151-CE6A-4BFD-8A7C-97074A3C806B";
paths = (
{
closed = 1;
nodes = (
"45 0 LINE",
"59 106 LINE",
"213 185 LINE",
"627 1221 LINE",
"875 1269 LINE",
"1265 181 LINE",
"1408 112 LINE",
"1397 -1 LINE",
"777 -1 LINE",
"791 105 LINE",
"960 184 LINE",
"886 392 LINE",
"481 392 LINE",
"407 182 LINE",
"594 114 LINE",
"581 0 LINE"
);
},
{
closed = 1;
nodes = (
"535 548 LINE",
"836 548 LINE",
"690 984 LINE"
);
}
);
width = 1461;
},
{
layerId = "3A1433D5-008E-4B0B-A40A-C7A907BE4F87";
paths = (
{
closed = 1;
nodes = (
"34 0 LINE",
"53 138 LINE",
"204 241 LINE",
"592 1205 LINE",
"939 1270 LINE",
"1329 238 LINE",
"1467 145 LINE",
"1455 -2 LINE",
"740 -2 LINE",
"756 136 LINE",
"922 240 LINE",
"884 352 LINE",
"492 352 LINE",
"455 240 LINE",
"644 148 LINE",
"629 0 LINE"
);
},
{
closed = 1;
nodes = (
"562 561 LINE",
"813 561 LINE",
"686 933 LINE"
);
}
);
width = 1502;
}
);
unicode = 0041;
},
{
color = 1;
glyphname = Aacute;
lastChange = "2016-08-10 12:14:12 +0000";
layers = (
{
components = (
{
name = A;
},
{
name = acute;
transform = "{1, 0, 0, 1, 554, 6}";
}
);
layerId = "AE2A7EE3-C661-4E21-B15C-7E7CBD4BEDE2";
width = 1288;
},
{
components = (
{
name = acute;
transform = "{1, 0, 0, 1, 559, 16}";
},
{
name = A;
}
);
layerId = "95A1F7A7-251D-4D34-8987-F15869CF2847";
width = 1326;
},
{
layerId = "A90FD956-C3C8-4F9C-A3E6-D92726884721";
paths = (
{
closed = 1;
nodes = (
"-26 0 LINE",
"-17 74 LINE",
"132 129 LINE",
"570 1237 LINE",
"721 1268 LINE",
"1111 124 LINE",
"1248 80 LINE",
"1239 0 LINE",
"724 0 LINE",
"736 74 LINE",
"907 129 LINE",
"798 432 LINE",
"379 432 LINE",
"267 124 LINE",
"453 80 LINE",
"442 0 LINE"
);
},
{
closed = 1;
nodes = (
"417 534 LINE",
"769 534 LINE",
"603 1034 LINE"
);
},
{
closed = 1;
nodes = (
"604 1385 LINE",
"727 1710 LINE",
"838 1670 LINE",
"654 1354 LINE"
);
}
);
width = 1289;
},
{
components = (
{
name = acute;
transform = "{1, 0, 0, 1, 532, 30}";
},
{
name = A;
}
);
layerId = "E2DFD151-CE6A-4BFD-8A7C-97074A3C806B";
width = 1461;
},
{
components = (
{
name = acute;
transform = "{1, 0, 0, 1, 588, 4}";
},
{
name = A;
}
);
layerId = "3A1433D5-008E-4B0B-A40A-C7A907BE4F87";
width = 1502;
}
);
unicode = 00C1;
},
{
color = 1;
glyphname = Acircumflex;
lastChange = "2016-08-10 12:14:12 +0000";
layers = (
{
components = (
{
name = A;
},
{
name = circumflex;
transform = "{1, 0, 0, 1, 394, 6}";
}
);
layerId = "AE2A7EE3-C661-4E21-B15C-7E7CBD4BEDE2";
width = 1288;
},
{
components = (
{
name = circumflex;
transform = "{1, 0, 0, 1, 414, 14}";
},
{
name = A;
}
);
layerId = "95A1F7A7-251D-4D34-8987-F15869CF2847";
width = 1326;
},
{
layerId = "A90FD956-C3C8-4F9C-A3E6-D92726884721";
paths = (
{
closed = 1;
nodes = (
"-26 0 LINE",
"-17 74 LINE",
"132 129 LINE",
"570 1237 LINE",
"721 1268 LINE",
"1111 124 LINE",
"1248 80 LINE",
"1239 0 LINE",
"724 0 LINE",
"736 74 LINE",
"907 129 LINE",
"798 432 LINE",
"379 432 LINE",
"267 124 LINE",
"453 80 LINE",
"442 0 LINE"
);
},
{
closed = 1;
nodes = (
"417 534 LINE",
"769 534 LINE",
"603 1034 LINE"
);
},
{
closed = 1;
nodes = (
"454 1392 LINE",
"622 1572 LINE",
"677 1585 LINE",
"855 1400 LINE",
"805 1364 LINE",
"643 1472 LINE",
"632 1472 LINE",
"491 1361 LINE"
);
}
);
width = 1289;
},
{
components = (
{
name = circumflex;
transform = "{1, 0, 0, 1, 462, 36}";
},
{
name = A;
}
);
layerId = "E2DFD151-CE6A-4BFD-8A7C-97074A3C806B";
width = 1461;
},
{
components = (
{
name = circumflex;
transform = "{1, 0, 0, 1, 434, -7}";
},
{
name = A;
}
);
layerId = "3A1433D5-008E-4B0B-A40A-C7A907BE4F87";
width = 1502;
}
);
unicode = 00C2;
},
{
color = 1;
glyphname = Adieresis;
lastChange = "2016-08-10 12:14:12 +0000";
layers = (
{
components = (
{
name = dieresis;
transform = "{1, 0, 0, 1, 388, 0}";
},
{
name = A;
}
);
layerId = "AE2A7EE3-C661-4E21-B15C-7E7CBD4BEDE2";
width = 1288;
},
{
components = (
{
name = dieresis;
transform = "{1, 0, 0, 1, 388, -25}";
},
{
name = A;
}
);
layerId = "95A1F7A7-251D-4D34-8987-F15869CF2847";
width = 1326;
},
{
layerId = "A90FD956-C3C8-4F9C-A3E6-D92726884721";
paths = (
{
closed = 1;
nodes = (
"-26 0 LINE",
"-17 74 LINE",
"132 129 LINE",
"570 1237 LINE",
"721 1268 LINE",
"1111 124 LINE",
"1248 80 LINE",
"1239 0 LINE",
"724 0 LINE",
"736 74 LINE",
"907 129 LINE",
"798 432 LINE",
"379 432 LINE",
"267 124 LINE",
"453 80 LINE",
"442 0 LINE"
);
},
{
closed = 1;
nodes = (
"417 534 LINE",
"769 534 LINE",
"603 1034 LINE"
);
},
{
closed = 1;
nodes = (
"434 1453 CURVE SMOOTH",
"434 1500 OFFCURVE",
"477 1530 OFFCURVE",
"517 1530 CURVE SMOOTH",
"561 1530 OFFCURVE",
"603 1499 OFFCURVE",
"603 1453 CURVE SMOOTH",
"603 1404 OFFCURVE",
"561 1373 OFFCURVE",
"517 1373 CURVE SMOOTH",
"474 1373 OFFCURVE",
"434 1404 OFFCURVE"
);
},
{
closed = 1;
nodes = (
"701 1453 CURVE SMOOTH",
"701 1500 OFFCURVE",
"744 1530 OFFCURVE",
"784 1530 CURVE SMOOTH",
"828 1530 OFFCURVE",
"872 1499 OFFCURVE",
"872 1453 CURVE SMOOTH",
"872 1404 OFFCURVE",
"828 1373 OFFCURVE",
"784 1373 CURVE SMOOTH",
"741 1373 OFFCURVE",
"701 1404 OFFCURVE"
);
}
);
width = 1289;
},
{
components = (
{
name = dieresis;
transform = "{1, 0, 0, 1, 404, 36}";
},
{
name = A;
}
);
layerId = "E2DFD151-CE6A-4BFD-8A7C-97074A3C806B";
width = 1461;
},
{
components = (
{
name = dieresis;
transform = "{1, 0, 0, 1, 364, -49}";
},
{
name = A;
}
);
layerId = "3A1433D5-008E-4B0B-A40A-C7A907BE4F87";
width = 1502;
}
);
unicode = 00C4;
},
{
color = 1;
glyphname = Agrave;
lastChange = "2016-08-10 12:14:12 +0000";
layers = (
{
components = (
{
name = A;
},
{
name = grave;
transform = "{1, 0, 0, 1, 392, 6}";
}
);
layerId = "AE2A7EE3-C661-4E21-B15C-7E7CBD4BEDE2";
width = 1288;
},
{
components = (
{
name = grave;
transform = "{1, 0, 0, 1, 392, 30}";
},
{
name = A;
}
);
layerId = "95A1F7A7-251D-4D34-8987-F15869CF2847";
width = 1326;
},
{
layerId = "A90FD956-C3C8-4F9C-A3E6-D92726884721";
paths = (
{
closed = 1;
nodes = (
"-26 0 LINE",
"-17 74 LINE",
"132 129 LINE",
"570 1237 LINE",
"721 1268 LINE",
"1111 124 LINE",
"1248 80 LINE",
"1239 0 LINE",
"724 0 LINE",
"736 74 LINE",
"907 129 LINE",
"798 432 LINE",
"379 432 LINE",
"267 124 LINE",
"453 80 LINE",
"442 0 LINE"
);
},
{
closed = 1;
nodes = (
"417 534 LINE",
"769 534 LINE",
"603 1034 LINE"
);
},
{
closed = 1;
nodes = (
"447 1664 LINE",
"563 1702 LINE",
"695 1368 LINE",
"638 1334 LINE"
);
}
);
width = 1289;
},
{
components = (
{
name = grave;
transform = "{1, 0, 0, 1, 426, 70}";
},
{
name = A;
}
);
layerId = "E2DFD151-CE6A-4BFD-8A7C-97074A3C806B";
width = 1461;
},
{
components = (
{
name = grave;
transform = "{1, 0, 0, 1, 338, 1}";
},
{
name = A;
}
);
layerId = "3A1433D5-008E-4B0B-A40A-C7A907BE4F87";
width = 1502;
}
);
unicode = 00C0;
},
{
color = 1;
glyphname = Aring;
lastChange = "2016-08-10 12:14:12 +0000";
layers = (
{
components = (
{
name = A;
},
{
name = ring;
transform = "{1, 0, 0, 1, 428, -24}";
}
);
layerId = "AE2A7EE3-C661-4E21-B15C-7E7CBD4BEDE2";
width = 1288;
},
{
components = (
{
name = ring;
transform = "{1, 0, 0, 1, 444, -17}";
},
{
name = A;
}
);
layerId = "95A1F7A7-251D-4D34-8987-F15869CF2847";
width = 1326;
},
{
layerId = "A90FD956-C3C8-4F9C-A3E6-D92726884721";
paths = (
{
closed = 1;
nodes = (
"-26 0 LINE",
"-17 74 LINE",
"132 129 LINE",
"570 1237 LINE",
"721 1268 LINE",
"1111 124 LINE",
"1248 80 LINE",
"1239 0 LINE",
"724 0 LINE",
"736 74 LINE",
"907 129 LINE",
"798 432 LINE",
"379 432 LINE",
"267 124 LINE",
"453 80 LINE",
"442 0 LINE"
);
},
{
closed = 1;
nodes = (
"417 534 LINE",
"769 534 LINE",
"603 1034 LINE"
);
},
{
closed = 1;
nodes = (
"491 1532 CURVE SMOOTH",
"491 1624 OFFCURVE",
"567 1704 OFFCURVE",
"660 1704 CURVE SMOOTH",
"756 1704 OFFCURVE",
"815 1635 OFFCURVE",
"815 1542 CURVE SMOOTH",
"815 1452 OFFCURVE",
"749 1367 OFFCURVE",
"647 1367 CURVE SMOOTH",
"555 1367 OFFCURVE",
"491 1430 OFFCURVE"
);
},
{
closed = 1;
nodes = (
"563 1543 CURVE SMOOTH",
"563 1482 OFFCURVE",
"594 1415 OFFCURVE",
"658 1415 CURVE SMOOTH",
"712 1415 OFFCURVE",
"745 1456 OFFCURVE",
"745 1529 CURVE SMOOTH",
"745 1591 OFFCURVE",
"709 1656 OFFCURVE",
"647 1656 CURVE SMOOTH",
"588 1656 OFFCURVE",
"563 1599 OFFCURVE"
);
}
);
width = 1289;
},
{
components = (
{
name = ring;
transform = "{1, 0, 0, 1, 420, -71}";
},
{
name = A;
}
);
layerId = "E2DFD151-CE6A-4BFD-8A7C-97074A3C806B";
width = 1461;
},
{
components = (
{
name = ring;
transform = "{1, 0, 0, 1, 420, 1}";
},
{
name = A;
}
);
layerId = "3A1433D5-008E-4B0B-A40A-C7A907BE4F87";
width = 1502;
}
);
unicode = 00C5;
},
{
color = 1;
glyphname = Atilde;
lastChange = "2016-08-10 12:14:12 +0000";
layers = (
{
components = (
{
name = A;
},
{
name = tilde;
transform = "{1, 0, 0, 1, 350, 6}";
}
);
layerId = "AE2A7EE3-C661-4E21-B15C-7E7CBD4BEDE2";
width = 1288;
},
{
components = (
{
name = tilde;
transform = "{1, 0, 0, 1, 376, 1}";
},
{
name = A;
}
);
layerId = "95A1F7A7-251D-4D34-8987-F15869CF2847";
width = 1326;
},
{
layerId = "A90FD956-C3C8-4F9C-A3E6-D92726884721";
paths = (
{
closed = 1;
nodes = (
"-26 0 LINE",
"-17 74 LINE",
"132 129 LINE",
"570 1237 LINE",
"721 1268 LINE",
"1111 124 LINE",
"1248 80 LINE",
"1239 0 LINE",
"724 0 LINE",
"736 74 LINE",
"907 129 LINE",
"798 432 LINE",
"379 432 LINE",
"267 124 LINE",
"453 80 LINE",
"442 0 LINE"
);
},
{
closed = 1;
nodes = (
"417 534 LINE",
"769 534 LINE",
"603 1034 LINE"
);
},
{
closed = 1;
nodes = (
"417 1383 LINE",
"417 1383 OFFCURVE",
"451 1526 OFFCURVE",
"540 1526 CURVE SMOOTH",
"544 1526 OFFCURVE",
"550 1527 OFFCURVE",
"554 1526 CURVE SMOOTH",
"775 1496 LINE",
"779 1496 LINE SMOOTH",
"804 1496 OFFCURVE",
"836 1536 OFFCURVE",
"836 1536 CURVE",
"883 1535 LINE",
"883 1535 OFFCURVE",
"846 1391 OFFCURVE",
"754 1391 CURVE SMOOTH",
"750 1391 OFFCURVE",
"745 1391 OFFCURVE",
"741 1392 CURVE SMOOTH",
"518 1423 LINE",
"515 1423 LINE SMOOTH",
"487 1423 OFFCURVE",
"456 1376 OFFCURVE",
"456 1376 CURVE"
);
}
);
width = 1289;
},
{
components = (
{
name = tilde;
transform = "{1, 0, 0, 1, 370, 47}";
},
{
name = A;
}
);
layerId = "E2DFD151-CE6A-4BFD-8A7C-97074A3C806B";
width = 1461;
},
{
components = (
{
name = tilde;
transform = "{1, 0, 0, 1, 393, -3}";
},
{
name = A;
}
);
layerId = "3A1433D5-008E-4B0B-A40A-C7A907BE4F87";
width = 1502;
}
);
unicode = 00C3;
},
{
glyphname = AE;
lastChange = "2016-08-10 11:03:53 +0000";
layers = (
{
layerId = "AE2A7EE3-C661-4E21-B15C-7E7CBD4BEDE2";
paths = (
{
closed = 1;
nodes = (
"53 3 LINE",
"57 43 LINE",
"200 73 LINE",
"854 1180 LINE",
"621 1205 LINE",
"627 1244 LINE",
"1614 1244 LINE",
"1582 925 LINE",
"1538 931 LINE",
"1517 1193 LINE",
"983 1193 LINE",
"983 659 LINE",
"1325 659 LINE",
"1361 798 LINE",
"1410 806 LINE",
"1377 417 LINE",
"1330 408 LINE",
"1313 605 LINE",
"983 605 LINE",
"983 54 LINE",
"1547 54 LINE",
"1618 323 LINE",
"1660 313 LINE",
"1630 0 LINE",
"676 0 LINE",
"682 42 LINE",
"875 72 LINE",
"875 472 LINE",
"526 472 LINE",
"290 66 LINE",
"474 48 LINE",
"464 3 LINE"
);
},
{
closed = 1;
nodes = (
"564 537 LINE",
"878 537 LINE",
"878 1093 LINE"
);
}
);
width = 1714;
},
{
layerId = "95A1F7A7-251D-4D34-8987-F15869CF2847";
paths = (
{
closed = 1;
nodes = (
"49 2 LINE",
"57 60 LINE",
"196 102 LINE",
"840 1154 LINE",
"616 1187 LINE",
"625 1244 LINE",
"1649 1244 LINE",
"1617 926 LINE",
"1552 936 LINE",
"1521 1173 LINE",
"1035 1173 LINE",
"1035 669 LINE",
"1334 669 LINE",
"1374 801 LINE",
"1446 808 LINE",
"1412 421 LINE",
"1346 409 LINE",
"1321 596 LINE",
"1035 596 LINE",
"1035 75 LINE",
"1549 75 LINE",
"1635 326 LINE",
"1695 313 LINE",
"1665 0 LINE",
"703 0 LINE",
"710 58 LINE",
"890 96 LINE",
"890 472 LINE",
"535 472 LINE",
"308 96 LINE",
"494 66 LINE",
"484 2 LINE"
);
},
{
closed = 1;
nodes = (
"581 553 LINE",
"891 553 LINE",
"894 1075 LINE"
);
}
);
width = 1740;
},
{
layerId = "A90FD956-C3C8-4F9C-A3E6-D92726884721";
paths = (
{
closed = 1;
nodes = (
"-40 1 LINE",
"-31 76 LINE",
"105 131 LINE",
"738 1126 LINE",
"524 1168 LINE",
"534 1244 LINE",
"1596 1244 LINE",
"1564 927 LINE",
"1478 940 LINE",
"1436 1152 LINE",
"998 1152 LINE",
"998 679 LINE",
"1257 679 LINE",
"1299 802 LINE",
"1394 810 LINE",
"1360 424 LINE",
"1275 409 LINE",
"1241 586 LINE",
"998 586 LINE",
"998 96 LINE",
"1462 96 LINE",
"1563 329 LINE",
"1643 313 LINE",
"1613 0 LINE",
"642 0 LINE",
"650 74 LINE",
"817 121 LINE",
"817 472 LINE",
"458 472 LINE",
"240 126 LINE",
"428 83 LINE",
"415 1 LINE"
);
},
{
closed = 1;
nodes = (
"510 568 LINE",
"817 568 LINE",
"817 1058 LINE"
);
}
);
width = 1684;
},
{
layerId = "E2DFD151-CE6A-4BFD-8A7C-97074A3C806B";
paths = (
{
closed = 1;
nodes = (
"48 0 LINE",
"62 119 LINE",
"198 184 LINE",
"794 1073 LINE",
"598 1131 LINE",
"613 1244 LINE",
"1770 1244 LINE",
"1738 876 LINE",
"1610 896 LINE",
"1548 1112 LINE",
"1204 1112 LINE",
"1213 694 LINE",
"1408 702 LINE",
"1444 765 LINE",
"1580 780 LINE",
"1547 466 LINE",
"1422 466 LINE",
"1392 556 LINE",
"1216 561 LINE",
"1224 147 LINE",
"1590 138 LINE",
"1713 378 LINE",
"1836 362 LINE",
"1806 0 LINE",
"784 0 LINE",
"795 106 LINE",
"960 169 LINE",
"954 458 LINE",
"573 458 LINE",
"398 184 LINE",
"582 116 LINE",
"568 0 LINE"
);
},
{
closed = 1;
nodes = (
"651 592 LINE",
"948 592 LINE",
"942 1033 LINE"
);
}
);
width = 1880;
},
{
layerId = "3A1433D5-008E-4B0B-A40A-C7A907BE4F87";
paths = (
{
closed = 1;
nodes = (
"45 -2 LINE",
"65 162 LINE",
"199 237 LINE",
"760 1020 LINE",
"580 1094 LINE",
"601 1244 LINE",
"1852 1244 LINE",
"1822 826 LINE",
"1651 852 LINE",
"1568 1072 LINE",
"1320 1072 LINE",
"1337 708 LINE",
"1469 724 LINE",
"1497 727 LINE",
"1675 749 LINE",
"1643 507 LINE",
"1477 523 LINE",
"1453 526 LINE",
"1344 536 LINE",
"1360 198 LINE",
"1626 180 LINE",
"1772 428 LINE",
"1937 411 LINE",
"1907 0 LINE",
"836 0 LINE",
"849 138 LINE",
"1012 217 LINE",
"999 443 LINE",
"597 443 LINE",
"465 243 LINE",
"646 150 LINE",
"629 -2 LINE"
);
},
{
closed = 1;
nodes = (
"701 615 LINE",
"987 615 LINE",
"975 1008 LINE"
);
}
);
width = 1983;
}
);
unicode = 00C6;
},
{
glyphname = B;
lastChange = "2016-08-10 11:03:53 +0000";
layers = (
{
layerId = "AE2A7EE3-C661-4E21-B15C-7E7CBD4BEDE2";
paths = (
{
closed = 1;
nodes = (
"49 0 LINE",
"57 42 LINE",
"226 72 LINE",
"226 1153 LINE",
"54 1175 LINE",
"64 1211 LINE",
"210 1233 OFFCURVE",
"330 1257 OFFCURVE",
"507 1257 CURVE SMOOTH",
"770 1257 OFFCURVE",
"904 1140 OFFCURVE",
"904 947 CURVE SMOOTH",
"904 820.533 OFFCURVE",
"813 719.166 OFFCURVE",
"727 668 CURVE",
"727 662 LINE",
"877.066 638.359 OFFCURVE",
"998.253 534.446 OFFCURVE",
"998.253 353.045 CURVE SMOOTH",
"998.253 152.816 OFFCURVE",
"828.888 0 OFFCURVE",
"474 0 CURVE SMOOTH"
);
},
{
closed = 1;
nodes = (
"327 54 LINE",
"473 54 LINE SMOOTH",
"790.539 54 OFFCURVE",
"903 151.833 OFFCURVE",
"903 327 CURVE SMOOTH",
"903 465 OFFCURVE",
"798 621 OFFCURVE",
"583 621 CURVE SMOOTH",
"327 621 LINE"
);
},
{
closed = 1;
nodes = (
"327 670 LINE",
"647 670 LINE",
"744 719.132 OFFCURVE",
"802 805.835 OFFCURVE",
"802 933 CURVE SMOOTH",
"802 1121 OFFCURVE",
"665 1212 OFFCURVE",
"449 1212 CURVE SMOOTH",
"423 1212 OFFCURVE",
"354 1212 OFFCURVE",
"327 1206 CURVE"
);
}
);
width = 1063;
},
{
layerId = "95A1F7A7-251D-4D34-8987-F15869CF2847";
paths = (
{
closed = 1;
nodes = (
"46 0 LINE",
"56 58 LINE",
"224 96 LINE",
"224 1129 LINE",
"53 1155 LINE",
"62 1211 LINE",
"208 1232 OFFCURVE",
"352 1257 OFFCURVE",
"530 1257 CURVE SMOOTH",
"817 1257 OFFCURVE",
"947 1118 OFFCURVE",
"947 967 CURVE SMOOTH",
"947 847 OFFCURVE",
"878 741 OFFCURVE",
"741 679 CURVE",
"741 672 LINE",
"946 661 OFFCURVE",
"1051 513 OFFCURVE",
"1051 380 CURVE SMOOTH",
"1051 188 OFFCURVE",
"928 0 OFFCURVE",
"518 0 CURVE SMOOTH"
);
},
{
closed = 1;
nodes = (
"371 75 LINE",
"603 75 LINE SMOOTH",
"819 75 OFFCURVE",
"900 213 OFFCURVE",
"900 347 CURVE SMOOTH",
"900 471 OFFCURVE",
"821 618 OFFCURVE",
"610 618 CURVE SMOOTH",
"371 618 LINE"
);
},
{
closed = 1;
nodes = (
"371 685 LINE",
"655 685 LINE",
"734 727 OFFCURVE",
"802 806 OFFCURVE",
"802 922 CURVE SMOOTH",
"802 1078 OFFCURVE",
"701 1192 OFFCURVE",
"471 1192 CURVE SMOOTH",
"446 1192 OFFCURVE",
"398 1191 OFFCURVE",
"371 1186 CURVE"
);
}
);
width = 1097;
},
{
layerId = "A90FD956-C3C8-4F9C-A3E6-D92726884721";
paths = (
{
closed = 1;
nodes = (
"50 0 LINE",
"61 74 LINE",
"228 121 LINE",
"228 1104 LINE",
"57 1134 LINE",
"67 1211 LINE",
"212 1232 OFFCURVE",
"382 1257 OFFCURVE",
"559 1257 CURVE SMOOTH",
"869 1257 OFFCURVE",
"996 1118 OFFCURVE",
"996 967 CURVE SMOOTH",
"996 863 OFFCURVE",
"947 736 OFFCURVE",
"790 679 CURVE",
"790 672 LINE",
"995 661 OFFCURVE",
"1100 512 OFFCURVE",
"1100 380 CURVE SMOOTH",
"1100 192 OFFCURVE",
"970 0 OFFCURVE",
"568 0 CURVE SMOOTH"
);
},
{
closed = 1;
nodes = (
"420 96 LINE",
"640 96 LINE SMOOTH",
"814 96 OFFCURVE",
"904 218 OFFCURVE",
"904 347 CURVE SMOOTH",
"904 471 OFFCURVE",
"818 605 OFFCURVE",
"643 605 CURVE SMOOTH",
"420 605 LINE"
);
},
{
closed = 1;
nodes = (
"420 688 LINE",
"678 688 LINE",
"764 724 OFFCURVE",
"808 795 OFFCURVE",
"808 909 CURVE SMOOTH",
"808 1033 OFFCURVE",
"743 1171 OFFCURVE",
"500 1171 CURVE SMOOTH",
"476 1171 OFFCURVE",
"447 1168 OFFCURVE",
"420 1164 CURVE"
);
}
);
width = 1127;
},
{
layerId = "E2DFD151-CE6A-4BFD-8A7C-97074A3C806B";
paths = (
{
closed = 1;
nodes = (
"46 0 LINE",
"59 106 LINE",
"225 169 LINE",
"225 1056 LINE",
"55 1093 LINE",
"65 1211 LINE",
"209 1231 OFFCURVE",
"428 1257 OFFCURVE",
"605 1257 CURVE SMOOTH",
"963 1257 OFFCURVE",
"1092 1109 OFFCURVE",
"1092 959 CURVE SMOOTH",
"1092 851 OFFCURVE",
"1019 728 OFFCURVE",
"887 682 CURVE",
"887 673 LINE",
"1091 662 OFFCURVE",
"1185 511 OFFCURVE",
"1185 380 CURVE SMOOTH",
"1185 166 OFFCURVE",
"1015 0 OFFCURVE",
"627 0 CURVE SMOOTH"
);
},
{
closed = 1;
nodes = (
"507 141 LINE",
"673 141 LINE SMOOTH",
"811 141 OFFCURVE",
"899 230 OFFCURVE",
"899 348 CURVE SMOOTH",
"899 472 OFFCURVE",
"812 583 OFFCURVE",
"658 583 CURVE SMOOTH",
"507 583 LINE"
);
},
{
closed = 1;
nodes = (
"507 708 LINE",
"723 708 LINE",
"787 750 OFFCURVE",
"819 811 OFFCURVE",
"819 903 CURVE SMOOTH",
"819 1021 OFFCURVE",
"757 1126 OFFCURVE",
"573 1126 CURVE SMOOTH",
"553 1126 OFFCURVE",
"530 1124 OFFCURVE",
"507 1120 CURVE"
);
}
);
width = 1228;
},
{
layerId = "3A1433D5-008E-4B0B-A40A-C7A907BE4F87";
paths = (
{
closed = 1;
nodes = (
"34 0 LINE",
"48 138 LINE",
"214 217 LINE",
"214 1008 LINE",
"45 1052 LINE",
"55 1211 LINE",
"194 1242 OFFCURVE",
"428 1257 OFFCURVE",
"722 1257 CURVE SMOOTH",
"1050 1257 OFFCURVE",
"1200 1144 OFFCURVE",
"1200 951 CURVE SMOOTH",
"1200 844 OFFCURVE",
"1104 735 OFFCURVE",
"997 694 CURVE",
"997 684 LINE",
"1121 678 OFFCURVE",
"1276 558 OFFCURVE",
"1276 390 CURVE SMOOTH",
"1276 130 OFFCURVE",
"1043 0 OFFCURVE",
"628 0 CURVE SMOOTH"
);
},
{
closed = 1;
nodes = (
"586 186 LINE",
"728 186 LINE SMOOTH",
"838 186 OFFCURVE",
"897 251 OFFCURVE",
"897 378 CURVE SMOOTH",
"897 478 OFFCURVE",
"818 557 OFFCURVE",
"672 557 CURVE SMOOTH",
"586 557 LINE"
);
},
{
closed = 1;
nodes = (
"586 698 LINE",
"770 698 LINE",
"805 741 OFFCURVE",
"835 827 OFFCURVE",
"835 907 CURVE SMOOTH",
"835 997 OFFCURVE",
"789 1080 OFFCURVE",
"650 1080 CURVE SMOOTH",
"630 1080 OFFCURVE",
"608 1079 OFFCURVE",
"586 1075 CURVE"
);
}
);
width = 1311;
}
);
unicode = 0042;
},
{
glyphname = C;
lastChange = "2016-08-10 11:03:53 +0000";
layers = (
{
layerId = "AE2A7EE3-C661-4E21-B15C-7E7CBD4BEDE2";
paths = (
{
closed = 1;
nodes = (
"54 607 CURVE SMOOTH",
"54 903 OFFCURVE",
"234 1271 OFFCURVE",
"617 1271 CURVE SMOOTH",
"750 1271 OFFCURVE",
"860 1244 OFFCURVE",
"957 1171 CURVE",
"926 834 LINE",
"879 842 LINE",
"849 1101 LINE",
"803 1161 OFFCURVE",
"729 1215 OFFCURVE",
"570 1215 CURVE SMOOTH",
"352 1215 OFFCURVE",
"160 984 OFFCURVE",
"160 643 CURVE SMOOTH",
"160 269 OFFCURVE",
"323 54 OFFCURVE",
"611 54 CURVE SMOOTH",
"765 54 OFFCURVE",
"907 150 OFFCURVE",
"989 243 CURVE",
"1012 206 LINE",
"949 112 OFFCURVE",
"781 -26 OFFCURVE",
"565 -26 CURVE SMOOTH",
"259 -26 OFFCURVE",
"54 222 OFFCURVE"
);
}
);
width = 1061;
},
{
layerId = "95A1F7A7-251D-4D34-8987-F15869CF2847";
paths = (
{
closed = 1;
nodes = (
"50 599 CURVE SMOOTH",
"50 894 OFFCURVE",
"233 1270 OFFCURVE",
"653 1270 CURVE SMOOTH",
"786 1270 OFFCURVE",
"908 1244 OFFCURVE",
"1004 1171 CURVE",
"973 836 LINE",
"905 846 LINE",
"869 1086 LINE",
"823 1146 OFFCURVE",
"745 1195 OFFCURVE",
"601 1195 CURVE SMOOTH",
"388 1195 OFFCURVE",
"213 978 OFFCURVE",
"213 651 CURVE SMOOTH",
"213 284 OFFCURVE",
"406 84 OFFCURVE",
"669 84 CURVE SMOOTH",
"813 84 OFFCURVE",
"942 166 OFFCURVE",
"1026 252 CURVE",
"1055 195 LINE",
"984 100 OFFCURVE",
"812 -25 OFFCURVE",
"600 -25 CURVE SMOOTH",
"294 -25 OFFCURVE",
"50 207 OFFCURVE"
);
}
);
width = 1096;
},
{
layerId = "A90FD956-C3C8-4F9C-A3E6-D92726884721";
paths = (
{
closed = 1;
nodes = (
"61 589 CURVE SMOOTH",
"61 884 OFFCURVE",
"246 1269 OFFCURVE",
"704 1269 CURVE SMOOTH",
"836 1269 OFFCURVE",
"970 1242 OFFCURVE",
"1066 1169 CURVE",
"1035 837 LINE",
"947 850 LINE",
"905 1070 LINE",
"859 1129 OFFCURVE",
"776 1174 OFFCURVE",
"647 1174 CURVE SMOOTH",
"439 1174 OFFCURVE",
"275 980 OFFCURVE",
"275 658 CURVE SMOOTH",
"275 299 OFFCURVE",
"491 111 OFFCURVE",
"728 111 CURVE SMOOTH",
"862 111 OFFCURVE",
"992 182 OFFCURVE",
"1078 261 CURVE",
"1113 185 LINE",
"1034 89 OFFCURVE",
"859 -24 OFFCURVE",
"651 -24 CURVE SMOOTH",
"344 -24 OFFCURVE",
"61 190 OFFCURVE"
);
}
);
width = 1111;
},
{
layerId = "E2DFD151-CE6A-4BFD-8A7C-97074A3C806B";
paths = (
{
closed = 1;
nodes = (
"47 586 CURVE SMOOTH",
"47 880 OFFCURVE",
"233 1270 OFFCURVE",
"765 1270 CURVE SMOOTH",
"896 1270 OFFCURVE",
"1069 1237 OFFCURVE",
"1155 1170 CURVE",
"1125 792 LINE",
"995 810 LINE",
"943 1036 LINE",
"897 1094 OFFCURVE",
"804 1132 OFFCURVE",
"705 1132 CURVE SMOOTH",
"491 1132 OFFCURVE",
"351 973 OFFCURVE",
"351 682 CURVE SMOOTH",
"351 344 OFFCURVE",
"535 158 OFFCURVE",
"799 158 CURVE SMOOTH",
"939 158 OFFCURVE",
"1060 217 OFFCURVE",
"1147 281 CURVE",
"1195 176 LINE",
"1117 84 OFFCURVE",
"926 -26 OFFCURVE",
"695 -26 CURVE SMOOTH",
"309 -26 OFFCURVE",
"47 196 OFFCURVE"
);
}
);
width = 1232;
},
{
layerId = "3A1433D5-008E-4B0B-A40A-C7A907BE4F87";
paths = (
{
closed = 1;
nodes = (
"36 583 CURVE SMOOTH",
"36 933 OFFCURVE",
"245 1272 OFFCURVE",
"773 1272 CURVE SMOOTH",
"896 1272 OFFCURVE",
"1075 1233 OFFCURVE",
"1148 1172 CURVE",
"1117 748 LINE",
"947 771 LINE",
"883 1003 LINE",
"837 1055 OFFCURVE",
"754 1091 OFFCURVE",
"674 1091 CURVE SMOOTH",
"512 1091 OFFCURVE",
"428 934 OFFCURVE",
"428 676 CURVE SMOOTH",
"428 379 OFFCURVE",
"593 205 OFFCURVE",
"815 205 CURVE SMOOTH",
"960 205 OFFCURVE",
"1059 252 OFFCURVE",
"1141 313 CURVE",
"1200 178 LINE",
"1129 78 OFFCURVE",
"926 -29 OFFCURVE",
"686 -29 CURVE SMOOTH",
"241 -29 OFFCURVE",
"36 203 OFFCURVE"
);
}
);
width = 1235;
}
);
unicode = 0043;
},
{
color = 1;
glyphname = Ccaron;
lastChange = "2016-08-10 12:14:12 +0000";
layers = (
{
components = (
{
name = C;
}
);
layerId = "AE2A7EE3-C661-4E21-B15C-7E7CBD4BEDE2";
paths = (
{
closed = 1;
nodes = (
"517 1543 LINE",
"572 1592 LINE",
"738 1423 LINE",
"747 1423 LINE",
"890 1588 LINE",
"926 1561 LINE",
"752 1377 LINE",
"696 1363 LINE"
);
}
);
width = 1061;
},
{
components = (
{
name = C;
}
);
layerId = "95A1F7A7-251D-4D34-8987-F15869CF2847";
paths = (
{
closed = 1;
nodes = (
"507 1545 LINE",
"575 1600 LINE",
"732 1444 LINE",
"742 1444 LINE",
"874 1597 LINE",
"915 1568 LINE",
"742 1386 LINE",
"686 1372 LINE"
);
}
);
width = 1096;
},
{
layerId = "A90FD956-C3C8-4F9C-A3E6-D92726884721";
paths = (
{
closed = 1;
nodes = (
"61 589 CURVE SMOOTH",
"61 884 OFFCURVE",
"246 1269 OFFCURVE",
"704 1269 CURVE SMOOTH",
"836 1269 OFFCURVE",
"970 1242 OFFCURVE",
"1066 1169 CURVE",
"1035 837 LINE",
"947 850 LINE",
"905 1070 LINE",
"859 1129 OFFCURVE",
"776 1174 OFFCURVE",
"647 1174 CURVE SMOOTH",
"439 1174 OFFCURVE",
"275 980 OFFCURVE",
"275 658 CURVE SMOOTH",
"275 299 OFFCURVE",
"491 111 OFFCURVE",
"728 111 CURVE SMOOTH",
"862 111 OFFCURVE",
"992 182 OFFCURVE",
"1078 261 CURVE",
"1113 185 LINE",
"1034 89 OFFCURVE",
"859 -24 OFFCURVE",
"651 -24 CURVE SMOOTH",
"344 -24 OFFCURVE",
"61 190 OFFCURVE"
);
},
{
closed = 1;
nodes = (
"472 1527 LINE",
"552 1589 LINE",
"701 1445 LINE",
"712 1445 LINE",
"835 1585 LINE",
"879 1555 LINE",
"706 1376 LINE",
"651 1361 LINE"
);
}
);
width = 1111;
},
{
components = (
{
name = C;
}
);
layerId = "E2DFD151-CE6A-4BFD-8A7C-97074A3C806B";
paths = (
{
closed = 1;
nodes = (
"482 1543 LINE",
"687 1578 LINE",
"776 1493 LINE",
"786 1493 LINE",
"870 1574 LINE",
"1013 1560 LINE",
"823 1344 LINE",
"676 1323 LINE"
);
}
);
width = 1232;
},
{
components = (
{
name = C;
}
);
layerId = "3A1433D5-008E-4B0B-A40A-C7A907BE4F87";
paths = (
{
closed = 1;
nodes = (
"394 1600 LINE",
"579 1637 LINE",
"692 1552 LINE",
"702 1552 LINE",
"798 1634 LINE",
"970 1605 LINE",
"760 1404 LINE",
"602 1394 LINE"
);
}
);
width = 1235;
}
);
unicode = 010C;
},
{
color = 1;
glyphname = Ccedilla;
lastChange = "2016-08-10 12:14:12 +0000";
layers = (
{
components = (
{
name = C;
},
{
name = cedilla;
transform = "{1, 0, 0, 1, 430, 0}";
}
);
layerId = "AE2A7EE3-C661-4E21-B15C-7E7CBD4BEDE2";
width = 1061;
},
{
components = (
{
name = cedilla;
transform = "{1, 0, 0, 1, 435, -15}";
},
{
name = C;
}
);
layerId = "95A1F7A7-251D-4D34-8987-F15869CF2847";
width = 1096;
},
{
layerId = "A90FD956-C3C8-4F9C-A3E6-D92726884721";
paths = (
{
closed = 1;
nodes = (
"61 589 CURVE SMOOTH",
"61 884 OFFCURVE",
"247 1269 OFFCURVE",
"705 1269 CURVE SMOOTH",
"837 1269 OFFCURVE",
"970 1242 OFFCURVE",
"1066 1169 CURVE",
"1035 837 LINE",
"947 850 LINE",
"906 1070 LINE",
"860 1129 OFFCURVE",
"776 1174 OFFCURVE",
"647 1174 CURVE SMOOTH",
"439 1174 OFFCURVE",
"275 980 OFFCURVE",
"275 658 CURVE SMOOTH",
"275 299 OFFCURVE",
"492 111 OFFCURVE",
"729 111 CURVE SMOOTH",
"863 111 OFFCURVE",
"992 182 OFFCURVE",
"1078 261 CURVE",
"1114 185 LINE",
"1047 104 OFFCURVE",
"910 9 OFFCURVE",
"743 -18 CURVE",
"703 -76 LINE",
"740 -109 OFFCURVE",
"792 -160 OFFCURVE",
"792 -227 CURVE SMOOTH",
"792 -306 OFFCURVE",
"708 -355 OFFCURVE",
"592 -389 CURVE",
"572 -331 LINE",
"629 -312 OFFCURVE",
"658 -278 OFFCURVE",
"658 -248 CURVE SMOOTH",
"658 -214 OFFCURVE",
"621 -172 OFFCURVE",
"585 -138 CURVE",
"663 -24 LINE",
"652 -24 LINE SMOOTH",
"345 -24 OFFCURVE",
"61 190 OFFCURVE"
);
}
);
width = 1112;
},
{
components = (
{
name = cedilla;
transform = "{1, 0, 0, 1, 442, -16}";
},
{
name = C;
}
);
layerId = "E2DFD151-CE6A-4BFD-8A7C-97074A3C806B";
width = 1232;
},
{
components = (
{
name = cedilla;
transform = "{1, 0, 0, 1, 400, -19}";
},
{
name = C;
}
);
layerId = "3A1433D5-008E-4B0B-A40A-C7A907BE4F87";
width = 1235;
}
);
unicode = 00C7;
},
{
glyphname = D;
lastChange = "2016-08-10 11:03:53 +0000";
layers = (
{
layerId = "AE2A7EE3-C661-4E21-B15C-7E7CBD4BEDE2";
paths = (
{
closed = 1;
nodes = (
"49 0 LINE",
"57 42 LINE",
"226 72 LINE",
"226 1153 LINE",
"54 1175 LINE",
"64 1211 LINE",
"261 1242 OFFCURVE",
"392 1259 OFFCURVE",
"538 1259 CURVE SMOOTH",
"1023 1259 OFFCURVE",
"1200 983 OFFCURVE",
"1200 655 CURVE SMOOTH",
"1200 313 OFFCURVE",
"993 0 OFFCURVE",
"480 0 CURVE SMOOTH"
);
},
{
closed = 1;
nodes = (
"327 54 LINE",
"507 54 LINE SMOOTH",
"861 54 OFFCURVE",
"1092 249.89 OFFCURVE",
"1092 605 CURVE SMOOTH",
"1092 995.262 OFFCURVE",
"872.345 1207 OFFCURVE",
"491 1207 CURVE SMOOTH",
"451.414 1207 OFFCURVE",
"365.644 1204.29 OFFCURVE",
"327 1188 CURVE"
);
}
);
width = 1255;
},
{
layerId = "95A1F7A7-251D-4D34-8987-F15869CF2847";
paths = (
{
closed = 1;
nodes = (
"45 0 LINE",
"56 58 LINE",
"227 101 LINE",
"227 1128 LINE",
"54 1154 LINE",
"64 1210 LINE",
"261 1241 OFFCURVE",
"411 1259 OFFCURVE",
"557 1259 CURVE SMOOTH",
"1092 1259 OFFCURVE",
"1254 962 OFFCURVE",
"1254 654 CURVE SMOOTH",
"1254 312 OFFCURVE",
"1020 0 OFFCURVE",
"508 0 CURVE SMOOTH"
);
},
{
closed = 1;
nodes = (
"373 79 LINE",
"535 79 LINE SMOOTH",
"890 79 OFFCURVE",
"1091 299 OFFCURVE",
"1091 599 CURVE SMOOTH",
"1091 934 OFFCURVE",
"900 1181 OFFCURVE",
"521 1181 CURVE SMOOTH",
"480 1181 OFFCURVE",
"414 1181 OFFCURVE",
"373 1176 CURVE"
);
}
);
width = 1302;
},
{
layerId = "A90FD956-C3C8-4F9C-A3E6-D92726884721";
paths = (
{
closed = 1;
nodes = (
"47 0 LINE",
"61 74 LINE",
"233 129 LINE",
"233 1103 LINE",
"61 1133 LINE",
"70 1209 LINE",
"267 1240 OFFCURVE",
"438 1258 OFFCURVE",
"583 1258 CURVE SMOOTH",
"1145 1258 OFFCURVE",
"1304 961 OFFCURVE",
"1304 653 CURVE SMOOTH",
"1304 311 OFFCURVE",
"1053 0 OFFCURVE",
"541 0 CURVE SMOOTH"
);
},
{
closed = 1;
nodes = (
"424 104 LINE",
"569 104 LINE SMOOTH",
"924 104 OFFCURVE",
"1093 331 OFFCURVE",
"1093 598 CURVE SMOOTH",
"1093 905 OFFCURVE",
"914 1155 OFFCURVE",
"546 1155 CURVE SMOOTH",
"506 1155 OFFCURVE",
"464 1155 OFFCURVE",
"424 1151 CURVE"
);
}
);
width = 1327;
},
{
layerId = "E2DFD151-CE6A-4BFD-8A7C-97074A3C806B";
paths = (
{
closed = 1;
nodes = (
"43 0 LINE",
"61 106 LINE",
"237 185 LINE",
"237 1053 LINE",
"65 1091 LINE",
"73 1208 LINE",
"269 1239 OFFCURVE",
"481 1258 OFFCURVE",
"625 1258 CURVE SMOOTH",
"1241 1258 OFFCURVE",
"1397 960 OFFCURVE",
"1397 652 CURVE SMOOTH",
"1397 310 OFFCURVE",
"1110 0 OFFCURVE",
"599 0 CURVE SMOOTH"
);
},
{
closed = 1;
nodes = (
"517 153 LINE",
"627 153 LINE SMOOTH",
"983 153 OFFCURVE",
"1089 395 OFFCURVE",
"1089 598 CURVE SMOOTH",
"1089 849 OFFCURVE",
"935 1106 OFFCURVE",
"587 1106 CURVE SMOOTH",
"547 1106 OFFCURVE",
"557 1103 OFFCURVE",
"517 1101 CURVE"
);
}
);
width = 1444;
},
{
layerId = "3A1433D5-008E-4B0B-A40A-C7A907BE4F87";
paths = (
{
closed = 1;
nodes = (
"34 0 LINE",
"47 158 LINE",
"227 241 LINE",
"227 1003 LINE",
"54 1049 LINE",
"61 1206 LINE",
"186 1231 OFFCURVE",
"442 1258 OFFCURVE",
"654 1258 CURVE SMOOTH",
"1203 1258 OFFCURVE",
"1395 992 OFFCURVE",
"1395 672 CURVE SMOOTH",
"1395 283 OFFCURVE",
"1114 0 OFFCURVE",
"642 0 CURVE SMOOTH"
);
},
{
closed = 1;
nodes = (
"597 202 LINE",
"672 202 LINE SMOOTH",
"985 202 OFFCURVE",
"1020 459 OFFCURVE",
"1020 598 CURVE SMOOTH",
"1020 793 OFFCURVE",
"908 1057 OFFCURVE",
"615 1057 CURVE SMOOTH",
"608 1057 OFFCURVE",
"602 1057 OFFCURVE",
"597 1056 CURVE"
);
}
);
width = 1432;
}
);
unicode = 0044;
},
{
glyphname = Eth;
lastChange = "2016-08-10 11:03:53 +0000";
layers = (
{
layerId = "AE2A7EE3-C661-4E21-B15C-7E7CBD4BEDE2";
paths = (
{
closed = 1;
nodes = (
"48 592 LINE",
"57 653 LINE",
"229 664 LINE",
"229 1153 LINE",
"57 1175 LINE",
"67 1211 LINE",
"264 1242 OFFCURVE",
"395 1259 OFFCURVE",
"541 1259 CURVE SMOOTH",
"1049 1259 OFFCURVE",
"1212 963 OFFCURVE",
"1212 655 CURVE SMOOTH",
"1212 313 OFFCURVE",
"996 0 OFFCURVE",
"483 0 CURVE SMOOTH",
"52 0 LINE",
"60 42 LINE",
"229 72 LINE",
"229 605 LINE"
);
},
{
closed = 1;
nodes = (
"330 54 LINE",
"510 54 LINE SMOOTH",
"864 54 OFFCURVE",
"1098 267 OFFCURVE",
"1098 599 CURVE SMOOTH",
"1098 962 OFFCURVE",
"893 1205 OFFCURVE",
"504 1205 CURVE SMOOTH",
"462 1205 OFFCURVE",
"372 1207 OFFCURVE",
"330 1201 CURVE",
"330 672 LINE",
"617 691 LINE",
"609 631 LINE",
"330 612 LINE"
);
}
);
width = 1267;
},
{
layerId = "95A1F7A7-251D-4D34-8987-F15869CF2847";
paths = (
{
closed = 1;
nodes = (
"51 574 LINE",
"61 650 LINE",
"232 662 LINE",
"232 1129 LINE",
"59 1155 LINE",
"69 1211 LINE",
"266 1242 OFFCURVE",
"416 1260 OFFCURVE",
"562 1260 CURVE SMOOTH",
"1097 1260 OFFCURVE",
"1266 965 OFFCURVE",
"1266 657 CURVE SMOOTH",
"1266 323 OFFCURVE",
"1025 0 OFFCURVE",
"522 0 CURVE SMOOTH",
"50 0 LINE",
"61 58 LINE",
"232 101 LINE",
"232 587 LINE"
);
},
{
closed = 1;
nodes = (
"378 79 LINE",
"574 79 LINE SMOOTH",
"916 79 OFFCURVE",
"1101 305 OFFCURVE",
"1101 599 CURVE SMOOTH",
"1101 934 OFFCURVE",
"907 1182 OFFCURVE",
"526 1182 CURVE SMOOTH",
"485 1182 OFFCURVE",
"419 1181 OFFCURVE",
"378 1176 CURVE",
"378 672 LINE",
"650 692 LINE",
"640 616 LINE",
"378 597 LINE"
);
}
);
width = 1314;
},
{
layerId = "A90FD956-C3C8-4F9C-A3E6-D92726884721";
paths = (
{
closed = 1;
nodes = (
"53 555 LINE",
"64 647 LINE",
"233 660 LINE",
"233 1104 LINE",
"61 1134 LINE",
"70 1211 LINE",
"267 1242 OFFCURVE",
"438 1260 OFFCURVE",
"583 1260 CURVE SMOOTH",
"1145 1260 OFFCURVE",
"1317 966 OFFCURVE",
"1317 658 CURVE SMOOTH",
"1317 332 OFFCURVE",
"1054 0 OFFCURVE",
"560 0 CURVE SMOOTH",
"47 0 LINE",
"61 74 LINE",
"233 129 LINE",
"233 569 LINE"
);
},
{
closed = 1;
nodes = (
"424 104 LINE",
"636 104 LINE SMOOTH",
"965 104 OFFCURVE",
"1103 342 OFFCURVE",
"1103 598 CURVE SMOOTH",
"1103 905 OFFCURVE",
"918 1157 OFFCURVE",
"546 1157 CURVE SMOOTH",
"506 1157 OFFCURVE",
"464 1155 OFFCURVE",
"424 1151 CURVE",
"424 672 LINE",
"682 693 LINE",
"670 602 LINE",
"424 581 LINE"
);
}
);
width = 1374;
},
{
layerId = "E2DFD151-CE6A-4BFD-8A7C-97074A3C806B";
paths = (
{
closed = 1;
nodes = (
"61 519 LINE",
"74 656 LINE",
"241 670 LINE",
"241 1054 LINE",
"69 1092 LINE",
"77 1208 LINE",
"273 1239 OFFCURVE",
"485 1259 OFFCURVE",
"629 1259 CURVE SMOOTH",
"1245 1259 OFFCURVE",
"1407 963 OFFCURVE",
"1407 655 CURVE SMOOTH",
"1407 321 OFFCURVE",
"1114 0 OFFCURVE",
"612 0 CURVE SMOOTH",
"47 0 LINE",
"65 106 LINE",
"241 185 LINE",
"241 534 LINE"
);
},
{
closed = 1;
nodes = (
"521 153 LINE",
"665 153 LINE SMOOTH",
"1009 153 OFFCURVE",
"1097 400 OFFCURVE",
"1097 598 CURVE SMOOTH",
"1097 849 OFFCURVE",
"941 1107 OFFCURVE",
"591 1107 CURVE SMOOTH",
"551 1107 OFFCURVE",
"561 1103 OFFCURVE",
"521 1101 CURVE",
"521 692 LINE",
"749 715 LINE",
"734 575 LINE",
"521 558 LINE"
);
}
);
width = 1453;
},
{
layerId = "3A1433D5-008E-4B0B-A40A-C7A907BE4F87";
paths = (
{
closed = 1;
nodes = (
"66 483 LINE",
"81 666 LINE",
"246 680 LINE",
"246 1003 LINE",
"73 1049 LINE",
"80 1206 LINE",
"276 1237 OFFCURVE",
"530 1258 OFFCURVE",
"673 1258 CURVE SMOOTH",
"1343 1258 OFFCURVE",
"1494 959 OFFCURVE",
"1494 652 CURVE SMOOTH",
"1494 311 OFFCURVE",
"1171 0 OFFCURVE",
"661 0 CURVE SMOOTH",
"43 0 LINE",
"66 138 LINE",
"246 241 LINE",
"246 499 LINE"
);
},
{
closed = 1;
nodes = (
"616 202 LINE",
"691 202 LINE SMOOTH",
"1049 202 OFFCURVE",
"1089 459 OFFCURVE",
"1089 598 CURVE SMOOTH",
"1089 793 OFFCURVE",
"963 1057 OFFCURVE",
"634 1057 CURVE SMOOTH",
"595 1057 OFFCURVE",
"655 1052 OFFCURVE",
"616 1051 CURVE",
"616 712 LINE",
"814 737 LINE",
"795 548 LINE",
"616 536 LINE"
);
}
);
width = 1540;
}
);
unicode = 00D0;
},
{
glyphname = E;
lastChange = "2016-08-10 11:03:53 +0000";
layers = (
{
layerId = "AE2A7EE3-C661-4E21-B15C-7E7CBD4BEDE2";
paths = (
{
closed = 1;
nodes = (
"50 1202 LINE",
"57 1244 LINE",
"963 1244 LINE",
"932 925 LINE",
"886 931 LINE",
"867 1193 LINE",
"333 1193 LINE",
"333 659 LINE",
"668 659 LINE",
"705 798 LINE",
"759 806 LINE",
"726 417 LINE",
"675 408 LINE",
"659 605 LINE",
"333 605 LINE",
"333 54 LINE",
"895 54 LINE",
"969 323 LINE",
"1010 313 LINE",
"980 0 LINE",
"53 0 LINE",
"59 42 LINE",
"229 72 LINE",
"229 1175 LINE"
);
}
);
width = 1064;
},
{
layerId = "95A1F7A7-251D-4D34-8987-F15869CF2847";
paths = (
{
closed = 1;
nodes = (
"47 1185 LINE",
"56 1244 LINE",
"1007 1244 LINE",
"976 925 LINE",
"909 934 LINE",
"879 1173 LINE",
"376 1173 LINE",
"376 668 LINE",
"691 668 LINE",
"731 797 LINE",
"803 808 LINE",
"770 419 LINE",
"704 408 LINE",
"679 594 LINE",
"376 594 LINE",
"376 75 LINE",
"905 75 LINE",
"991 324 LINE",
"1053 313 LINE",
"1023 0 LINE",
"53 0 LINE",
"59 58 LINE",
"228 96 LINE",
"228 1151 LINE"
);
}
);
width = 1098;
},
{
layerId = "A90FD956-C3C8-4F9C-A3E6-D92726884721";
paths = (
{
closed = 1;
nodes = (
"50 1168 LINE",
"61 1244 LINE",
"1056 1244 LINE",
"1025 924 LINE",
"938 937 LINE",
"897 1152 LINE",
"426 1152 LINE",
"426 676 LINE",
"716 676 LINE",
"758 796 LINE",
"853 810 LINE",
"819 421 LINE",
"734 408 LINE",
"700 583 LINE",
"426 583 LINE",
"426 96 LINE",
"921 96 LINE",
"1019 326 LINE",
"1102 313 LINE",
"1072 0 LINE",
"57 0 LINE",
"65 74 LINE",
"232 121 LINE",
"232 1126 LINE"
);
}
);
width = 1075;
},
{
layerId = "E2DFD151-CE6A-4BFD-8A7C-97074A3C806B";
paths = (
{
closed = 1;
nodes = (
"46 1134 LINE",
"61 1244 LINE",
"1145 1244 LINE",
"1114 875 LINE",
"985 894 LINE",
"923 1112 LINE",
"516 1112 LINE",
"516 684 LINE",
"751 684 LINE",
"795 813 LINE",
"939 840 LINE",
"905 416 LINE",
"766 393 LINE",
"733 562 LINE",
"516 562 LINE",
"516 151 LINE",
"945 151 LINE",
"1067 377 LINE",
"1191 362 LINE",
"1161 0 LINE",
"57 0 LINE",
"67 106 LINE",
"232 169 LINE",
"232 1078 LINE"
);
}
);
width = 1236;
},
{
layerId = "3A1433D5-008E-4B0B-A40A-C7A907BE4F87";
paths = (
{
closed = 1;
nodes = (
"34 1100 LINE",
"53 1244 LINE",
"1226 1244 LINE",
"1196 826 LINE",
"1025 852 LINE",
"942 1072 LINE",
"597 1072 LINE",
"597 712 LINE",
"730 723 LINE",
"762 725 LINE",
"1016 746 LINE",
"983 470 LINE",
"742 514 LINE",
"710 520 LINE",
"597 540 LINE",
"597 200 LINE",
"960 180 LINE",
"1106 428 LINE",
"1271 411 LINE",
"1241 0 LINE",
"50 0 LINE",
"60 158 LINE",
"224 217 LINE",
"224 1030 LINE"
);
}
);
width = 1306;
}
);
unicode = 0045;
},
{
color = 1;
glyphname = Eacute;
lastChange = "2016-08-10 12:14:12 +0000";
layers = (
{
components = (
{
name = E;
},
{
name = acute;
transform = "{1, 0, 0, 1, 329, 6}";
}
);
layerId = "AE2A7EE3-C661-4E21-B15C-7E7CBD4BEDE2";
width = 1064;
},
{
components = (
{
name = acute;
transform = "{1, 0, 0, 1, 411, 16}";
},
{
name = E;
}
);
layerId = "95A1F7A7-251D-4D34-8987-F15869CF2847";
width = 1098;
},
{
layerId = "A90FD956-C3C8-4F9C-A3E6-D92726884721";
paths = (
{
closed = 1;
nodes = (
"50 1168 LINE",
"61 1244 LINE",
"1056 1244 LINE",
"1025 924 LINE",
"938 937 LINE",
"897 1152 LINE",
"426 1152 LINE",
"426 676 LINE",
"716 676 LINE",
"758 796 LINE",
"853 810 LINE",
"819 421 LINE",
"734 408 LINE",
"700 583 LINE",
"426 583 LINE",
"426 96 LINE",
"921 96 LINE",
"1019 326 LINE",
"1102 313 LINE",
"1072 0 LINE",
"57 0 LINE",
"65 74 LINE",
"232 121 LINE",
"232 1126 LINE"
);
},
{
closed = 1;
nodes = (
"517 1385 LINE",
"640 1710 LINE",
"751 1670 LINE",
"568 1354 LINE"
);
}
);
width = 1075;
},
{
components = (
{
name = acute;
transform = "{1, 0, 0, 1, 402, 30}";
},
{
name = E;
}
);
layerId = "E2DFD151-CE6A-4BFD-8A7C-97074A3C806B";
width = 1236;
},
{
components = (
{
name = acute;
transform = "{1, 0, 0, 1, 458, 3}";
},
{
name = E;
}
);
layerId = "3A1433D5-008E-4B0B-A40A-C7A907BE4F87";
width = 1306;
}
);
unicode = 00C9;
},
{
color = 1;
glyphname = Ecaron;
lastChange = "2016-08-10 12:14:12 +0000";
layers = (
{
components = (
{
name = E;
}
);
layerId = "AE2A7EE3-C661-4E21-B15C-7E7CBD4BEDE2";
paths = (
{
closed = 1;
nodes = (
"434 1543 LINE",
"489 1592 LINE",
"655 1423 LINE",
"664 1423 LINE",
"807 1588 LINE",
"843 1561 LINE",
"669 1377 LINE",
"613 1363 LINE"
);
}
);
width = 1064;
},
{
components = (
{
name = E;
}
);
layerId = "95A1F7A7-251D-4D34-8987-F15869CF2847";
paths = (
{
closed = 1;
nodes = (
"413 1545 LINE",
"481 1600 LINE",
"638 1444 LINE",
"648 1444 LINE",
"780 1597 LINE",
"821 1568 LINE",
"648 1386 LINE",
"592 1372 LINE"
);
}
);
width = 1098;
},
{
layerId = "A90FD956-C3C8-4F9C-A3E6-D92726884721";
paths = (
{
closed = 1;
nodes = (
"50 1168 LINE",
"61 1244 LINE",
"1056 1244 LINE",
"1025 924 LINE",
"938 937 LINE",
"897 1152 LINE",
"426 1152 LINE",
"426 676 LINE",
"716 676 LINE",
"758 796 LINE",
"853 810 LINE",
"819 421 LINE",
"734 408 LINE",
"700 583 LINE",
"426 583 LINE",
"426 96 LINE",
"921 96 LINE",
"1019 326 LINE",
"1102 313 LINE",
"1072 0 LINE",
"57 0 LINE",
"65 74 LINE",
"232 121 LINE",
"232 1126 LINE"
);
},
{
closed = 1;
nodes = (
"386 1527 LINE",
"466 1589 LINE",
"615 1445 LINE",
"624 1445 LINE",
"748 1585 LINE",
"792 1555 LINE",
"620 1376 LINE",
"565 1361 LINE"
);
}
);
width = 1075;
},
{
components = (
{
name = E;
}
);
layerId = "E2DFD151-CE6A-4BFD-8A7C-97074A3C806B";
paths = (
{
closed = 1;
nodes = (
"394 1543 LINE",
"599 1578 LINE",
"688 1493 LINE",
"698 1493 LINE",
"782 1574 LINE",
"925 1560 LINE",
"735 1344 LINE",
"588 1323 LINE"
);
}
);
width = 1236;
},
{
components = (
{
name = E;
}
);
layerId = "3A1433D5-008E-4B0B-A40A-C7A907BE4F87";
paths = (
{
closed = 1;
nodes = (
"386.5 1597 LINE",
"571.5 1634 LINE",
"684.5 1549 LINE",
"694.5 1549 LINE",
"790.5 1631 LINE",
"962.5 1602 LINE",
"752.5 1401 LINE",
"594.5 1391 LINE"
);
}
);
width = 1306;
}
);
unicode = 011A;
},
{
color = 1;
glyphname = Edieresis;
lastChange = "2016-08-10 12:14:12 +0000";
layers = (
{
components = (
{
name = E;
},
{
name = dieresis;
transform = "{1, 0, 0, 1, 298, -11}";
}
);
layerId = "AE2A7EE3-C661-4E21-B15C-7E7CBD4BEDE2";
width = 1064;
},
{
components = (
{
name = dieresis;
transform = "{1, 0, 0, 1, 277, -12}";
},
{
name = E;
}
);
layerId = "95A1F7A7-251D-4D34-8987-F15869CF2847";
width = 1098;
},
{
layerId = "A90FD956-C3C8-4F9C-A3E6-D92726884721";
paths = (
{
closed = 1;
nodes = (
"50 1168 LINE",
"61 1244 LINE",
"1056 1244 LINE",
"1025 924 LINE",
"938 937 LINE",
"897 1152 LINE",
"426 1152 LINE",
"426 676 LINE",
"716 676 LINE",
"758 796 LINE",
"853 810 LINE",
"819 421 LINE",
"734 408 LINE",
"700 583 LINE",
"426 583 LINE",
"426 96 LINE",
"921 96 LINE",
"1019 326 LINE",
"1102 313 LINE",
"1072 0 LINE",
"57 0 LINE",
"65 74 LINE",
"232 121 LINE",
"232 1126 LINE"
);
},
{
closed = 1;
nodes = (
"380 1453 CURVE SMOOTH",
"380 1500 OFFCURVE",
"423 1530 OFFCURVE",
"463 1530 CURVE SMOOTH",
"507 1530 OFFCURVE",
"549 1499 OFFCURVE",
"549 1453 CURVE SMOOTH",
"549 1404 OFFCURVE",
"507 1373 OFFCURVE",
"463 1373 CURVE SMOOTH",
"420 1373 OFFCURVE",
"380 1404 OFFCURVE"
);
},
{
closed = 1;
nodes = (
"647 1453 CURVE SMOOTH",
"647 1500 OFFCURVE",
"690 1530 OFFCURVE",
"730 1530 CURVE SMOOTH",
"774 1530 OFFCURVE",
"818 1499 OFFCURVE",
"818 1453 CURVE SMOOTH",
"818 1404 OFFCURVE",
"774 1373 OFFCURVE",
"730 1373 CURVE SMOOTH",
"687 1373 OFFCURVE",
"647 1404 OFFCURVE"
);
}
);
width = 1075;
},
{
components = (
{
name = dieresis;
transform = "{1, 0, 0, 1, 293, 36}";
},
{
name = E;
}
);
layerId = "E2DFD151-CE6A-4BFD-8A7C-97074A3C806B";
width = 1236;
},
{
components = (
{
name = dieresis;
transform = "{1, 0, 0, 1, 266, -47}";
},
{
name = E;
}
);
layerId = "3A1433D5-008E-4B0B-A40A-C7A907BE4F87";
width = 1306;
}
);
unicode = 00CB;
},
{
color = 1;
glyphname = Egrave;
lastChange = "2016-08-10 12:14:12 +0000";
layers = (
{
components = (
{
name = E;
},
{
name = grave;
transform = "{1, 0, 0, 1, 280, 6}";
}
);
layerId = "AE2A7EE3-C661-4E21-B15C-7E7CBD4BEDE2";
width = 1064;
},
{
components = (
{
name = grave;
transform = "{1, 0, 0, 1, 303, 30}";
},
{
name = E;
}
);
layerId = "95A1F7A7-251D-4D34-8987-F15869CF2847";
width = 1098;
},
{
layerId = "A90FD956-C3C8-4F9C-A3E6-D92726884721";
paths = (
{
closed = 1;
nodes = (
"50 1168 LINE",
"61 1244 LINE",
"1056 1244 LINE",
"1025 924 LINE",
"938 937 LINE",
"897 1152 LINE",
"426 1152 LINE",
"426 676 LINE",
"716 676 LINE",
"758 796 LINE",
"853 810 LINE",
"819 421 LINE",
"734 408 LINE",
"700 583 LINE",
"426 583 LINE",
"426 96 LINE",
"921 96 LINE",
"1019 326 LINE",
"1102 313 LINE",
"1072 0 LINE",
"57 0 LINE",
"65 74 LINE",
"232 121 LINE",
"232 1126 LINE"
);
},
{
closed = 1;
nodes = (
"443 1664 LINE",
"559 1702 LINE",
"691 1368 LINE",
"633 1334 LINE"
);
}
);
width = 1075;
},
{
components = (
{
name = grave;
transform = "{1, 0, 0, 1, 321, 70}";
},
{
name = E;
}
);
layerId = "E2DFD151-CE6A-4BFD-8A7C-97074A3C806B";
width = 1236;
},
{
components = (
{
name = grave;
transform = "{1, 0, 0, 1, 276, 4}";
},
{
name = E;
}
);
layerId = "3A1433D5-008E-4B0B-A40A-C7A907BE4F87";
width = 1306;
}
);
unicode = 00C8;
},
{
glyphname = F;
lastChange = "2016-08-10 11:03:53 +0000";
layers = (
{
layerId = "AE2A7EE3-C661-4E21-B15C-7E7CBD4BEDE2";
paths = (
{
closed = 1;
nodes = (
"50 1202 LINE",
"57 1244 LINE",
"963 1244 LINE",
"930 922 LINE",
"881 930 LINE",
"860 1193 LINE",
"330 1193 LINE",
"330 633 LINE",
"663 633 LINE",
"702 773 LINE",
"758 780 LINE",
"727 392 LINE",
"672 384 LINE",
"654 580 LINE",
"330 580 LINE",
"330 70 LINE",
"576 53 LINE",
"564 0 LINE",
"54 0 LINE",
"57 42 LINE",
"227 72 LINE",
"227 1175 LINE"
);
}
);
width = 1017;
},
{
layerId = "95A1F7A7-251D-4D34-8987-F15869CF2847";
paths = (
{
closed = 1;
nodes = (
"48 1185 LINE",
"56 1244 LINE",
"1006 1244 LINE",
"969 923 LINE",
"901 933 LINE",
"873 1173 LINE",
"376 1173 LINE",
"376 652 LINE",
"687 652 LINE",
"728 782 LINE",
"799 792 LINE",
"770 402 LINE",
"701 391 LINE",
"677 579 LINE",
"376 579 LINE",
"375 96 LINE",
"616 68 LINE",
"604 0 LINE",
"53 0 LINE",
"58 58 LINE",
"227 96 LINE",
"227 1151 LINE"
);
}
);
width = 1053;
},
{
layerId = "A90FD956-C3C8-4F9C-A3E6-D92726884721";
paths = (
{
closed = 1;
nodes = (
"50 1168 LINE",
"61 1244 LINE",
"1054 1244 LINE",
"1013 922 LINE",
"925 936 LINE",
"891 1152 LINE",
"426 1152 LINE",
"426 670 LINE",
"713 670 LINE",
"755 790 LINE",
"845 804 LINE",
"818 412 LINE",
"730 398 LINE",
"700 578 LINE",
"426 578 LINE",
"426 122 LINE",
"661 83 LINE",
"648 0 LINE",
"57 0 LINE",
"65 74 LINE",
"232 121 LINE",
"232 1126 LINE"
);
}
);
width = 1028;
},
{
layerId = "E2DFD151-CE6A-4BFD-8A7C-97074A3C806B";
paths = (
{
closed = 1;
nodes = (
"45 1134 LINE",
"60 1244 LINE",
"1140 1244 LINE",
"1090 878 LINE",
"963 898 LINE",
"916 1112 LINE",
"516 1112 LINE",
"516 638 LINE",
"749 638 LINE",
"795 770 LINE",
"942 800 LINE",
"902 354 LINE",
"767 326 LINE",
"735 506 LINE",
"516 506 LINE",
"516 174 LINE",
"746 113 LINE",
"731 0 LINE",
"56 0 LINE",
"68 106 LINE",
"232 169 LINE",
"232 1078 LINE"
);
}
);
width = 1183;
},
{
layerId = "3A1433D5-008E-4B0B-A40A-C7A907BE4F87";
paths = (
{
closed = 1;
nodes = (
"34 1100 LINE",
"53 1244 LINE",
"1221 1244 LINE",
"1162 834 LINE",
"995 861 LINE",
"935 1072 LINE",
"599 1072 LINE",
"599 686 LINE",
"826 709 LINE",
"859 712 LINE",
"1018 728 LINE",
"985 452 LINE",
"832 477 LINE",
"790 483 LINE",
"599 514 LINE",
"599 227 LINE",
"834 163 LINE",
"818 0 LINE",
"49 0 LINE",
"65 138 LINE",
"227 217 LINE",
"227 1030 LINE"
);
}
);
width = 1256;
}
);
unicode = 0046;
},
{
glyphname = G;
lastChange = "2016-08-10 11:03:53 +0000";
layers = (
{
layerId = "AE2A7EE3-C661-4E21-B15C-7E7CBD4BEDE2";
paths = (
{
closed = 1;
nodes = (
"54 604 CURVE SMOOTH",
"54 909 OFFCURVE",
"269 1262 OFFCURVE",
"652 1262 CURVE SMOOTH",
"785 1262 OFFCURVE",
"938 1235.84 OFFCURVE",
"1035 1170 CURVE",
"1005 852 LINE",
"960 857 LINE",
"929 1093 LINE",
"883 1148 OFFCURVE",
"778 1203 OFFCURVE",
"619 1203 CURVE SMOOTH",
"338 1203 OFFCURVE",
"168 956 OFFCURVE",
"168 633 CURVE SMOOTH",
"168 343 OFFCURVE",
"295 45 OFFCURVE",
"664 45 CURVE SMOOTH",
"756 45 OFFCURVE",
"848 65 OFFCURVE",
"924 118 CURVE",
"926 492 LINE",
"685 517 LINE",
"691 556 LINE",
"1171 556 LINE",
"1164 517 LINE",
"1030 496 LINE",
"1030 79 LINE",
"897 0 OFFCURVE",
"760 -20 OFFCURVE",
"560 -20 CURVE SMOOTH",
"284 -20 OFFCURVE",
"54 219 OFFCURVE"
);
}
);
width = 1219;
},
{
layerId = "95A1F7A7-251D-4D34-8987-F15869CF2847";
paths = (
{
closed = 1;
nodes = (
"50 591 CURVE SMOOTH",
"50 958 OFFCURVE",
"320 1262 OFFCURVE",
"677 1262 CURVE SMOOTH",
"832 1262 OFFCURVE",
"982 1228 OFFCURVE",
"1080 1162 CURVE",
"1052 841 LINE",
"986 852 LINE",
"953 1066 LINE",
"907 1119 OFFCURVE",
"793 1182 OFFCURVE",
"635 1182 CURVE SMOOTH",
"396 1182 OFFCURVE",
"214 985 OFFCURVE",
"214 640 CURVE SMOOTH",
"214 347 OFFCURVE",
"367 61 OFFCURVE",
"710 61 CURVE SMOOTH",
"796 61 OFFCURVE",
"874 84 OFFCURVE",
"926 119 CURVE",
"927 463 LINE",
"688 495 LINE",
"698 556 LINE",
"1216 556 LINE",
"1206 499 LINE",
"1077 467 LINE",
"1077 79 LINE",
"944 0 OFFCURVE",
"801 -26 OFFCURVE",
"601 -26 CURVE SMOOTH",
"262 -26 OFFCURVE",
"50 228 OFFCURVE"
);
}
);
width = 1258;
},
{
layerId = "A90FD956-C3C8-4F9C-A3E6-D92726884721";
paths = (
{
closed = 1;
nodes = (
"61 578 CURVE SMOOTH",
"61 1007 OFFCURVE",
"395 1260 OFFCURVE",
"737 1260 CURVE SMOOTH",
"906 1260 OFFCURVE",
"1045 1222 OFFCURVE",
"1139 1163 CURVE",
"1115 841 LINE",
"1028 856 LINE",
"992 1047 LINE",
"947 1093 OFFCURVE",
"844 1161 OFFCURVE",
"677 1161 CURVE SMOOTH",
"460 1161 OFFCURVE",
"276 1013 OFFCURVE",
"276 647 CURVE SMOOTH",
"276 350 OFFCURVE",
"454 77 OFFCURVE",
"771 77 CURVE SMOOTH",
"851 77 OFFCURVE",
"915 103 OFFCURVE",
"943 119 CURVE",
"943 434 LINE",
"707 472 LINE",
"719 555 LINE",
"1275 555 LINE",
"1263 480 LINE",
"1139 439 LINE",
"1139 79 LINE",
"1007 0 OFFCURVE",
"858 -31 OFFCURVE",
"658 -31 CURVE SMOOTH",
"256 -31 OFFCURVE",
"61 237 OFFCURVE"
);
}
);
width = 1276;
},
{
layerId = "E2DFD151-CE6A-4BFD-8A7C-97074A3C806B";
paths = (
{
closed = 1;
nodes = (
"47 579 CURVE SMOOTH",
"47 1017 OFFCURVE",
"403 1266 OFFCURVE",
"756 1266 CURVE SMOOTH",
"978 1266 OFFCURVE",
"1106 1219 OFFCURVE",
"1207 1174 CURVE",
"1175 794 LINE",
"1037 808 LINE",
"999 1013 LINE",
"947 1065 OFFCURVE",
"850 1124 OFFCURVE",
"707 1124 CURVE SMOOTH",
"513 1124 OFFCURVE",
"359 996 OFFCURVE",
"359 672 CURVE SMOOTH",
"359 370 OFFCURVE",
"510 128 OFFCURVE",
"765 128 CURVE SMOOTH",
"841 128 OFFCURVE",
"903 149 OFFCURVE",
"943 177 CURVE",
"943 394 LINE",
"715 446 LINE",
"732 573 LINE",
"1340 573 LINE",
"1323 458 LINE",
"1209 401 LINE",
"1209 86 LINE",
"1100 19 OFFCURVE",
"894 -28 OFFCURVE",
"716 -28 CURVE SMOOTH",
"268 -28 OFFCURVE",
"47 211 OFFCURVE"
);
}
);
width = 1381;
},
{
layerId = "3A1433D5-008E-4B0B-A40A-C7A907BE4F87";
paths = (
{
closed = 1;
nodes = (
"36 580 CURVE SMOOTH",
"36 1028 OFFCURVE",
"413 1271 OFFCURVE",
"777 1271 CURVE SMOOTH",
"1043 1271 OFFCURVE",
"1172 1221 OFFCURVE",
"1258 1185 CURVE",
"1217 746 LINE",
"1029 761 LINE",
"988 1009 LINE",
"930 1052 OFFCURVE",
"859 1087 OFFCURVE",
"730 1087 CURVE SMOOTH",
"551 1087 OFFCURVE",
"444 978 OFFCURVE",
"444 696 CURVE SMOOTH",
"444 365 OFFCURVE",
"563 195 OFFCURVE",
"752 195 CURVE SMOOTH",
"832 195 OFFCURVE",
"884 205 OFFCURVE",
"925 255 CURVE",
"925 355 LINE",
"704 419 LINE",
"727 591 LINE",
"1377 591 LINE",
"1356 405 LINE",
"1261 363 LINE",
"1261 93 LINE",
"1175 38 OFFCURVE",
"913 -24 OFFCURVE",
"756 -24 CURVE SMOOTH",
"276 -24 OFFCURVE",
"36 186 OFFCURVE"
);
}
);
width = 1412;
}
);
unicode = 0047;
},
{
glyphname = H;
lastChange = "2016-08-10 11:03:53 +0000";
layers = (
{
layerId = "AE2A7EE3-C661-4E21-B15C-7E7CBD4BEDE2";
paths = (
{
closed = 1;
nodes = (
"49 1205 LINE",
"52 1244 LINE",
"508 1244 LINE",
"503 1205 LINE",
"334 1182 LINE",
"334 651 LINE",
"1052 651 LINE",
"1052 1180 LINE",
"868 1205 LINE",
"875 1244 LINE",
"1330 1244 LINE",
"1322 1205 LINE",
"1155 1182 LINE",
"1155 65 LINE",
"1338 46 LINE",
"1331 0 LINE",
"878 0 LINE",
"886 42 LINE",
"1052 72 LINE",
"1052 591 LINE",
"334 591 LINE",
"334 65 LINE",
"520 46 LINE",
"509 0 LINE",
"57 0 LINE",
"62 42 LINE",
"229 72 LINE",
"229 1180 LINE"
);
}
);
width = 1392;
},
{
layerId = "95A1F7A7-251D-4D34-8987-F15869CF2847";
paths = (
{
closed = 1;
nodes = (
"46 1187 LINE",
"53 1244 LINE",
"554 1244 LINE",
"546 1187 LINE",
"377 1156 LINE",
"377 672 LINE",
"1050 672 LINE",
"1050 1154 LINE",
"867 1187 LINE",
"876 1244 LINE",
"1376 1244 LINE",
"1367 1187 LINE",
"1200 1156 LINE",
"1200 90 LINE",
"1382 63 LINE",
"1374 0 LINE",
"875 0 LINE",
"885 58 LINE",
"1050 96 LINE",
"1050 592 LINE",
"377 591 LINE",
"377 90 LINE",
"563 63 LINE",
"551 0 LINE",
"54 0 LINE",
"60 58 LINE",
"228 96 LINE",
"228 1154 LINE"
);
}
);
width = 1435;
},
{
layerId = "A90FD956-C3C8-4F9C-A3E6-D92726884721";
paths = (
{
closed = 1;
nodes = (
"50 1168 LINE",
"61 1244 LINE",
"605 1244 LINE",
"595 1168 LINE",
"427 1130 LINE",
"427 692 LINE",
"1054 692 LINE",
"1054 1126 LINE",
"871 1168 LINE",
"882 1244 LINE",
"1428 1244 LINE",
"1416 1168 LINE",
"1249 1130 LINE",
"1249 114 LINE",
"1431 80 LINE",
"1421 0 LINE",
"878 0 LINE",
"888 74 LINE",
"1054 121 LINE",
"1054 589 LINE",
"427 589 LINE",
"427 114 LINE",
"611 80 LINE",
"598 0 LINE",
"57 0 LINE",
"65 74 LINE",
"232 121 LINE",
"232 1126 LINE"
);
}
);
width = 1416;
},
{
layerId = "E2DFD151-CE6A-4BFD-8A7C-97074A3C806B";
paths = (
{
closed = 1;
nodes = (
"47 1131 LINE",
"65 1244 LINE",
"697 1244 LINE",
"682 1131 LINE",
"515 1078 LINE",
"515 718 LINE",
"1052 718 LINE",
"1052 1073 LINE",
"870 1131 LINE",
"884 1244 LINE",
"1521 1244 LINE",
"1506 1131 LINE",
"1338 1078 LINE",
"1338 162 LINE",
"1518 114 LINE",
"1506 0 LINE",
"874 0 LINE",
"886 106 LINE",
"1052 169 LINE",
"1052 541 LINE",
"515 541 LINE",
"515 162 LINE",
"698 114 LINE",
"682 0 LINE",
"53 0 LINE",
"63 106 LINE",
"231 169 LINE",
"231 1073 LINE"
);
}
);
width = 1576;
},
{
layerId = "3A1433D5-008E-4B0B-A40A-C7A907BE4F87";
paths = (
{
closed = 1;
nodes = (
"34 1094 LINE",
"59 1244 LINE",
"749 1244 LINE",
"730 1094 LINE",
"593 1027 LINE",
"593 744 LINE",
"1010 744 LINE",
"1010 1020 LINE",
"859 1094 LINE",
"876 1244 LINE",
"1574 1244 LINE",
"1555 1094 LINE",
"1387 1027 LINE",
"1387 211 LINE",
"1566 148 LINE",
"1552 0 LINE",
"859 0 LINE",
"873 138 LINE",
"1010 217 LINE",
"1010 493 LINE",
"593 493 LINE",
"593 211 LINE",
"744 148 LINE",
"726 0 LINE",
"39 0 LINE",
"51 138 LINE",
"220 217 LINE",
"220 1020 LINE"
);
}
);
width = 1609;
}
);
unicode = 0048;
},
{
glyphname = I;
lastChange = "2016-08-10 11:03:53 +0000";
layers = (
{
layerId = "AE2A7EE3-C661-4E21-B15C-7E7CBD4BEDE2";
paths = (
{
closed = 1;
nodes = (
"47 1205 LINE",
"53 1244 LINE",
"510 1244 LINE",
"503 1205 LINE",
"328 1182 LINE",
"328 65 LINE",
"521 46 LINE",
"512 0 LINE",
"57 0 LINE",
"62 42 LINE",
"220 72 LINE",
"220 1180 LINE"
);
}
);
width = 575;
},
{
layerId = "95A1F7A7-251D-4D34-8987-F15869CF2847";
paths = (
{
closed = 1;
nodes = (
"46 1187 LINE",
"54 1244 LINE",
"555 1244 LINE",
"546 1187 LINE",
"374 1156 LINE",
"374 90 LINE",
"561 63 LINE",
"551 0 LINE",
"54 0 LINE",
"61 58 LINE",
"223 96 LINE",
"223 1154 LINE"
);
}
);
width = 614;
},
{
layerId = "A90FD956-C3C8-4F9C-A3E6-D92726884721";
paths = (
{
closed = 1;
nodes = (
"50 1168 LINE",
"61 1244 LINE",
"605 1244 LINE",
"595 1168 LINE",
"426 1130 LINE",
"426 114 LINE",
"607 80 LINE",
"597 0 LINE",
"57 0 LINE",
"65 74 LINE",
"232 121 LINE",
"232 1126 LINE"
);
}
);
width = 601;
},
{
layerId = "E2DFD151-CE6A-4BFD-8A7C-97074A3C806B";
paths = (
{
closed = 1;
nodes = (
"49 1131 LINE",
"64 1244 LINE",
"700 1244 LINE",
"687 1126 LINE",
"513 1074 LINE",
"513 168 LINE",
"694 120 LINE",
"682 0 LINE",
"54 0 LINE",
"62 108 LINE",
"234 171 LINE",
"234 1073 LINE"
);
}
);
width = 755;
},
{
layerId = "3A1433D5-008E-4B0B-A40A-C7A907BE4F87";
paths = (
{
closed = 1;
nodes = (
"34 1094 LINE",
"54 1244 LINE",
"781 1244 LINE",
"765 1084 LINE",
"586 1017 LINE",
"586 223 LINE",
"766 160 LINE",
"753 0 LINE",
"36 0 LINE",
"46 142 LINE",
"222 221 LINE",
"222 1020 LINE"
);
}
);
width = 816;
}
);
unicode = 0049;
},
{
color = 1;
glyphname = Iacute;
lastChange = "2016-08-10 12:14:12 +0000";
layers = (
{
components = (
{
name = I;
},
{
name = acute;
transform = "{1, 0, 0, 1, 152, 6}";
}
);
layerId = "AE2A7EE3-C661-4E21-B15C-7E7CBD4BEDE2";
width = 575;
},
{
components = (
{
name = acute;
transform = "{1, 0, 0, 1, 150, 16}";
},
{
name = I;
}
);
layerId = "95A1F7A7-251D-4D34-8987-F15869CF2847";
width = 614;
},
{
layerId = "A90FD956-C3C8-4F9C-A3E6-D92726884721";
paths = (
{
closed = 1;
nodes = (
"50 1168 LINE",
"61 1244 LINE",
"605 1244 LINE",
"595 1168 LINE",
"426 1130 LINE",
"426 114 LINE",
"607 80 LINE",
"597 0 LINE",
"57 0 LINE",
"65 74 LINE",
"232 121 LINE",
"232 1126 LINE"
);
},
{
closed = 1;
nodes = (
"289 1385 LINE",
"412 1710 LINE",
"523 1670 LINE",
"341 1354 LINE"
);
}
);
width = 601;
},
{
components = (
{
name = acute;
transform = "{1, 0, 0, 1, 178, 30}";
},
{
name = I;
}
);
layerId = "E2DFD151-CE6A-4BFD-8A7C-97074A3C806B";
width = 755;
},
{
components = (
{
name = acute;
transform = "{1, 0, 0, 1, 176, 1}";
},
{
name = I;
}
);
layerId = "3A1433D5-008E-4B0B-A40A-C7A907BE4F87";
width = 816;
}
);
unicode = 00CD;
},
{
color = 1;
glyphname = Icircumflex;
lastChange = "2016-08-10 12:14:12 +0000";
layers = (
{
components = (
{
name = I;
},
{
name = circumflex;
transform = "{1, 0, 0, 1, -3, 6}";
}
);
layerId = "AE2A7EE3-C661-4E21-B15C-7E7CBD4BEDE2";
width = 575;
},
{
components = (
{
name = circumflex;
transform = "{1, 0, 0, 1, 26, 4}";
},
{
name = I;
}
);
layerId = "95A1F7A7-251D-4D34-8987-F15869CF2847";
width = 614;
},
{
layerId = "A90FD956-C3C8-4F9C-A3E6-D92726884721";
paths = (
{
closed = 1;
nodes = (
"50 1168 LINE",
"61 1244 LINE",
"605 1244 LINE",
"595 1168 LINE",
"426 1130 LINE",
"426 114 LINE",
"607 80 LINE",
"597 0 LINE",
"57 0 LINE",
"65 74 LINE",
"232 121 LINE",
"232 1126 LINE"
);
},
{
closed = 1;
nodes = (
"132 1392 LINE",
"299 1572 LINE",
"354 1585 LINE",
"532 1400 LINE",
"483 1364 LINE",
"319 1472 LINE",
"309 1472 LINE",
"169 1361 LINE"
);
}
);
width = 601;
},
{
components = (
{
name = circumflex;
transform = "{1, 0, 0, 1, 108, 36}";
},
{
name = I;
}
);
layerId = "E2DFD151-CE6A-4BFD-8A7C-97074A3C806B";
width = 766;
},
{
components = (
{
name = circumflex;
transform = "{1, 0, 0, 1, 74, -10}";
},
{
name = I;
}
);
layerId = "3A1433D5-008E-4B0B-A40A-C7A907BE4F87";
width = 816;
}
);
unicode = 00CE;
},
{
color = 1;
glyphname = Idieresis;
lastChange = "2016-08-10 12:14:12 +0000";
layers = (
{
components = (
{
name = I;
},
{
name = dieresis;
transform = "{1, 0, 0, 1, 11, -11}";
}
);
layerId = "AE2A7EE3-C661-4E21-B15C-7E7CBD4BEDE2";
width = 575;
},
{
components = (
{
name = dieresis;
transform = "{1, 0, 0, 1, 16, -22}";
},
{
name = I;
}
);
layerId = "95A1F7A7-251D-4D34-8987-F15869CF2847";
width = 614;
},
{
layerId = "A90FD956-C3C8-4F9C-A3E6-D92726884721";
paths = (
{
closed = 1;
nodes = (
"50 1168 LINE",
"61 1244 LINE",
"605 1244 LINE",
"595 1168 LINE",
"426 1130 LINE",
"426 114 LINE",
"607 80 LINE",
"597 0 LINE",
"57 0 LINE",
"65 74 LINE",
"232 121 LINE",
"232 1126 LINE"
);
},
{
closed = 1;
nodes = (
"110 1453 CURVE SMOOTH",
"110 1500 OFFCURVE",
"154 1530 OFFCURVE",
"194 1530 CURVE SMOOTH",
"238 1530 OFFCURVE",
"279 1499 OFFCURVE",
"279 1453 CURVE SMOOTH",
"279 1404 OFFCURVE",
"238 1373 OFFCURVE",
"194 1373 CURVE SMOOTH",
"151 1373 OFFCURVE",
"110 1404 OFFCURVE"
);
},
{
closed = 1;
nodes = (
"377 1453 CURVE SMOOTH",
"377 1500 OFFCURVE",
"421 1530 OFFCURVE",
"461 1530 CURVE SMOOTH",
"505 1530 OFFCURVE",
"549 1499 OFFCURVE",
"549 1453 CURVE SMOOTH",
"549 1404 OFFCURVE",
"505 1373 OFFCURVE",
"461 1373 CURVE SMOOTH",
"418 1373 OFFCURVE",
"377 1404 OFFCURVE"
);
}
);
width = 601;
},
{
components = (
{
name = dieresis;
transform = "{1, 0, 0, 1, 70, 36}";
},
{
name = I;
}
);
layerId = "E2DFD151-CE6A-4BFD-8A7C-97074A3C806B";
width = 755;
},
{
components = (
{
name = dieresis;
transform = "{1, 0, 0, 1, 2, -53}";
},
{
name = I;
}
);
layerId = "3A1433D5-008E-4B0B-A40A-C7A907BE4F87";
width = 816;
}
);
unicode = 00CF;
},
{
color = 1;
glyphname = Igrave;
lastChange = "2016-08-10 12:14:12 +0000";
layers = (
{
components = (
{
name = I;
},
{
name = grave;
transform = "{1, 0, 0, 1, 29, 6}";
}
);
layerId = "AE2A7EE3-C661-4E21-B15C-7E7CBD4BEDE2";
width = 575;
},
{
components = (
{
name = grave;
transform = "{1, 0, 0, 1, 19, 33}";
},
{
name = I;
}
);
layerId = "95A1F7A7-251D-4D34-8987-F15869CF2847";
width = 614;
},
{
layerId = "A90FD956-C3C8-4F9C-A3E6-D92726884721";
paths = (
{
closed = 1;
nodes = (
"50 1168 LINE",
"61 1244 LINE",
"605 1244 LINE",
"595 1168 LINE",
"426 1130 LINE",
"426 114 LINE",
"607 80 LINE",
"597 0 LINE",
"57 0 LINE",
"65 74 LINE",
"232 121 LINE",
"232 1126 LINE"
);
},
{
closed = 1;
nodes = (
"133 1664 LINE",
"249 1702 LINE",
"381 1368 LINE",
"323 1334 LINE"
);
}
);
width = 601;
},
{
components = (
{
name = grave;
transform = "{1, 0, 0, 1, 97, 70}";
},
{
name = I;
}
);
layerId = "E2DFD151-CE6A-4BFD-8A7C-97074A3C806B";
width = 755;
},
{
components = (
{
name = grave;
transform = "{1, 0, 0, 1, 14, 1}";
},
{
name = I;
}
);
layerId = "3A1433D5-008E-4B0B-A40A-C7A907BE4F87";
width = 816;
}
);
unicode = 00CC;
},
{
glyphname = J;
lastChange = "2016-08-10 11:03:53 +0000";
layers = (
{
layerId = "AE2A7EE3-C661-4E21-B15C-7E7CBD4BEDE2";
paths = (
{
closed = 1;
nodes = (
"44 -281 LINE",
"211 -139 OFFCURVE",
"295 0 OFFCURVE",
"295 282 CURVE SMOOTH",
"295 1180 LINE",
"115 1205 LINE",
"120 1244 LINE",
"579 1244 LINE",
"573 1205 LINE",
"406 1182 LINE",
"402 360 LINE SMOOTH",
"399 -30 OFFCURVE",
"316 -151 OFFCURVE",
"66 -325 CURVE"
);
}
);
width = 629;
},
{
layerId = "95A1F7A7-251D-4D34-8987-F15869CF2847";
paths = (
{
closed = 1;
nodes = (
"38 -259 LINE",
"199 -114 OFFCURVE",
"283 23 OFFCURVE",
"283 209 CURVE SMOOTH",
"283 1154 LINE",
"101 1187 LINE",
"109 1244 LINE",
"612 1244 LINE",
"603 1187 LINE",
"433 1156 LINE",
"431 372 LINE SMOOTH",
"429 -28 OFFCURVE",
"345 -144 OFFCURVE",
"76 -325 CURVE"
);
}
);
width = 656;
},
{
layerId = "A90FD956-C3C8-4F9C-A3E6-D92726884721";
paths = (
{
closed = 1;
nodes = (
"-4 -237 LINE",
"151.657 -90 OFFCURVE",
"233 37 OFFCURVE",
"233 197 CURVE SMOOTH",
"233 1126 LINE",
"52 1168 LINE",
"62 1244 LINE",
"607 1244 LINE",
"597 1168 LINE",
"427 1130 LINE",
"427 385 LINE SMOOTH",
"425.997 -24 OFFCURVE",
"337.763 -138 OFFCURVE",
"50 -326 CURVE"
);
}
);
width = 592;
},
{
layerId = "E2DFD151-CE6A-4BFD-8A7C-97074A3C806B";
paths = (
{
closed = 1;
nodes = (
"35 -194 LINE",
"184 -63 OFFCURVE",
"255 89 OFFCURVE",
"255 241 CURVE SMOOTH",
"255 1073 LINE",
"75 1131 LINE",
"90 1244 LINE",
"721 1244 LINE",
"706 1131 LINE",
"536 1078 LINE",
"535 410 LINE SMOOTH",
"536 2 OFFCURVE",
"444 -124 OFFCURVE",
"121 -326 CURVE"
);
}
);
width = 763;
},
{
layerId = "3A1433D5-008E-4B0B-A40A-C7A907BE4F87";
paths = (
{
closed = 1;
nodes = (
"34 -151 LINE",
"177 -36 OFFCURVE",
"238 142 OFFCURVE",
"238 285 CURVE SMOOTH",
"238 1020 LINE",
"53 1094 LINE",
"72 1244 LINE",
"785 1244 LINE",
"765 1094 LINE",
"605 1027 LINE",
"605 434 LINE SMOOTH",
"608 26 OFFCURVE",
"510 -111 OFFCURVE",
"151 -326 CURVE"
);
}
);
width = 820;
}
);
unicode = 004A;
},
{
glyphname = K;
lastChange = "2016-08-10 11:03:53 +0000";
layers = (
{
layerId = "AE2A7EE3-C661-4E21-B15C-7E7CBD4BEDE2";
paths = (
{
closed = 1;
nodes = (
"48 1205 LINE",
"53 1244 LINE",
"502 1244 LINE",
"499 1205 LINE",
"329 1182 LINE",
"329 65 LINE",
"515 46 LINE",
"504 0 LINE",
"58 0 LINE",
"64 42 LINE",
"221 72 LINE",
"221 1180 LINE"
);
},
{
closed = 1;
nodes = (
"383 619 LINE",
"426 665 OFFCURVE",
"464 704 OFFCURVE",
"530 783 CURVE SMOOTH",
"861 1180 LINE",
"688 1205 LINE",
"692 1244 LINE",
"1099 1244 LINE",
"1096 1205 LINE",
"943 1182 LINE",
"487 629 LINE",
"749 321 LINE SMOOTH",
"892 153 OFFCURVE",
"977 72 OFFCURVE",
"1097 54 CURVE SMOOTH",
"1151 46 LINE",
"1139 3 LINE",
"1093 -12 OFFCURVE",
"1075 -22 OFFCURVE",
"1033 -22 CURVE SMOOTH",
"900 -22 OFFCURVE",
"805 89 OFFCURVE",
"688 230 CURVE SMOOTH",
"385 604 LINE"
);
}
);
width = 1205;
},
{
layerId = "95A1F7A7-251D-4D34-8987-F15869CF2847";
paths = (
{
closed = 1;
nodes = (
"46 1187 LINE",
"56 1244 LINE",
"556 1244 LINE",
"549 1187 LINE",
"378 1152 LINE",
"378 95 LINE",
"565 63 LINE",
"555 0 LINE",
"55 0 LINE",
"63 58 LINE",
"227 101 LINE",
"227 1149 LINE"
);
},
{
closed = 1;
nodes = (
"417 623 LINE",
"452 660 OFFCURVE",
"518 730 OFFCURVE",
"567 790 CURVE SMOOTH",
"856 1151 LINE",
"691 1187 LINE",
"697 1244 LINE",
"1147 1244 LINE",
"1140 1187 LINE",
"975 1152 LINE",
"564 649 LINE",
"809 358 LINE SMOOTH",
"956 184 OFFCURVE",
"1030 97 OFFCURVE",
"1154 68 CURVE SMOOTH",
"1200 58 LINE",
"1189 2 LINE",
"1143 -14 OFFCURVE",
"1111 -21 OFFCURVE",
"1070 -21 CURVE SMOOTH",
"920 -21 OFFCURVE",
"812 97 OFFCURVE",
"696 246 CURVE SMOOTH",
"419 604 LINE"
);
}
);
width = 1251;
},
{
layerId = "A90FD956-C3C8-4F9C-A3E6-D92726884721";
paths = (
{
closed = 1;
nodes = (
"47 1168 LINE",
"61 1244 LINE",
"611 1244 LINE",
"601 1168 LINE",
"429 1121 LINE",
"429 124 LINE",
"618 80 LINE",
"607 0 LINE",
"54 0 LINE",
"64 74 LINE",
"236 129 LINE",
"236 1117 LINE"
);
},
{
closed = 1;
nodes = (
"453 626 LINE",
"481 654 OFFCURVE",
"574 758 OFFCURVE",
"605 798 CURVE SMOOTH",
"851 1121 LINE",
"696 1168 LINE",
"704 1244 LINE",
"1197 1244 LINE",
"1185 1168 LINE",
"1008 1121 LINE",
"635 653 LINE",
"862 385 LINE SMOOTH",
"1013 206 OFFCURVE",
"1085 123 OFFCURVE",
"1213 83 CURVE SMOOTH",
"1250 70 LINE",
"1240 1 LINE",
"1194 -15 OFFCURVE",
"1149 -21 OFFCURVE",
"1109 -21 CURVE SMOOTH",
"942 -21 OFFCURVE",
"820 104 OFFCURVE",
"706 261 CURVE SMOOTH",
"454 605 LINE"
);
}
);
width = 1228;
},
{
layerId = "E2DFD151-CE6A-4BFD-8A7C-97074A3C806B";
paths = (
{
closed = 1;
nodes = (
"47 1131 LINE",
"69 1244 LINE",
"699 1244 LINE",
"684 1131 LINE",
"530 1060 LINE",
"530 182 LINE",
"722 114 LINE",
"711 0 LINE",
"51 0 LINE",
"65 106 LINE",
"251 185 LINE",
"251 1055 LINE"
);
},
{
closed = 1;
nodes = (
"565 640 LINE",
"587 664 OFFCURVE",
"645 730 OFFCURVE",
"673 769 CURVE SMOOTH",
"882 1062 LINE",
"811 1125 LINE",
"829 1244 LINE",
"1335 1244 LINE",
"1315 1131 LINE",
"1114 1060 LINE",
"811 669 LINE",
"1004 428 LINE SMOOTH",
"1160 229 OFFCURVE",
"1225 149 OFFCURVE",
"1371 111 CURVE SMOOTH",
"1401 102 LINE",
"1381 2 LINE",
"1335 -15 OFFCURVE",
"1245 -24 OFFCURVE",
"1205 -24 CURVE SMOOTH",
"1005 -24 OFFCURVE",
"877 114 OFFCURVE",
"757 304 CURVE SMOOTH",
"563 594 LINE"
);
}
);
width = 1452;
},
{
layerId = "3A1433D5-008E-4B0B-A40A-C7A907BE4F87";
paths = (
{
closed = 1;
nodes = (
"34 1094 LINE",
"66 1244 LINE",
"786 1244 LINE",
"763 1074 LINE",
"619 1000 LINE",
"619 240 LINE",
"814 148 LINE",
"802 0 LINE",
"37 0 LINE",
"53 138 LINE",
"255 241 LINE",
"255 993 LINE"
);
},
{
closed = 1;
nodes = (
"654 665 LINE",
"671 686 OFFCURVE",
"691 712 OFFCURVE",
"719 750 CURVE SMOOTH",
"904 1003 LINE",
"917 1082 LINE",
"944 1244 LINE",
"1462 1244 LINE",
"1432 1094 LINE",
"1211 1000 LINE",
"958 670 LINE",
"1136 460 LINE SMOOTH",
"1277 292 OFFCURVE",
"1373 205 OFFCURVE",
"1486 146 CURVE SMOOTH",
"1511 133 LINE",
"1479 2 LINE",
"1409 -13 OFFCURVE",
"1345 -22 OFFCURVE",
"1285 -22 CURVE SMOOTH",
"1101 -22 OFFCURVE",
"974 57 OFFCURVE",
"794 346 CURVE SMOOTH",
"650 578 LINE"
);
}
);
width = 1546;
}
);
unicode = 004B;
},
{
glyphname = L;
lastChange = "2016-08-10 11:03:53 +0000";
layers = (
{
layerId = "AE2A7EE3-C661-4E21-B15C-7E7CBD4BEDE2";
paths = (
{
closed = 1;
nodes = (
"52 0 LINE",
"57 42 LINE",
"226 72 LINE",
"226 1178 LINE",
"54 1203 LINE",
"58 1243 LINE",
"513 1243 LINE",
"509 1203 LINE",
"333 1182 LINE",
"333 54 LINE",
"863 54 LINE",
"940 338 LINE",
"984 330 LINE",
"968 0 LINE"
);
}
);
width = 1039;
},
{
layerId = "95A1F7A7-251D-4D34-8987-F15869CF2847";
paths = (
{
closed = 1;
nodes = (
"52 0 LINE",
"60 58 LINE",
"227 96 LINE",
"227 1148 LINE",
"47 1186 LINE",
"56 1244 LINE",
"558 1244 LINE",
"551 1186 LINE",
"376 1152 LINE",
"376 75 LINE",
"863 75 LINE",
"968 341 LINE",
"1032 331 LINE",
"998 0 LINE"
);
}
);
width = 1078;
},
{
layerId = "A90FD956-C3C8-4F9C-A3E6-D92726884721";
paths = (
{
closed = 1;
nodes = (
"58 0 LINE",
"67 74 LINE",
"233 121 LINE",
"233 1117 LINE",
"45 1168 LINE",
"58 1244 LINE",
"608 1244 LINE",
"598 1168 LINE",
"427 1121 LINE",
"427 96 LINE",
"869 96 LINE",
"1000 344 LINE",
"1085 331 LINE",
"1048 0 LINE"
);
}
);
width = 1065;
},
{
layerId = "E2DFD151-CE6A-4BFD-8A7C-97074A3C806B";
paths = (
{
closed = 1;
nodes = (
"52 0 LINE",
"65 106 LINE",
"227 169 LINE",
"227 1058 LINE",
"47 1133 LINE",
"63 1244 LINE",
"710 1244 LINE",
"695 1133 LINE",
"511 1060 LINE",
"511 148 LINE",
"867 137 LINE",
"1019 398 LINE",
"1145 380 LINE",
"1103 0 LINE"
);
}
);
width = 1188;
},
{
layerId = "3A1433D5-008E-4B0B-A40A-C7A907BE4F87";
paths = (
{
closed = 1;
nodes = (
"34 0 LINE",
"50 138 LINE",
"210 217 LINE",
"210 998 LINE",
"38 1098 LINE",
"57 1245 LINE",
"800 1245 LINE",
"779 1098 LINE",
"583 1000 LINE",
"583 200 LINE",
"853 178 LINE",
"1027 453 LINE",
"1193 430 LINE",
"1146 0 LINE"
);
}
);
width = 1228;
}
);
unicode = 004C;
},
{
glyphname = M;
lastChange = "2016-08-10 11:03:53 +0000";
layers = (
{
layerId = "AE2A7EE3-C661-4E21-B15C-7E7CBD4BEDE2";
paths = (
{
closed = 1;
nodes = (
"46 0 LINE",
"51 33 LINE",
"218 64 LINE",
"301 1175 LINE",
"117 1208 LINE",
"124 1244 LINE",
"443 1244 LINE",
"514 1056 LINE",
"828 227 LINE",
"1186 1099 LINE",
"1247 1244 LINE",
"1573 1244 LINE",
"1568 1208 LINE",
"1396 1178 LINE",
"1451 57 LINE",
"1631 40 LINE",
"1629 0 LINE",
"1167 0 LINE",
"1173 33 LINE",
"1344 64 LINE",
"1287 1169 LINE",
"822 60 LINE",
"772 50 LINE",
"364 1151 LINE",
"285 57 LINE",
"466 40 LINE",
"460 0 LINE"
);
}
);
width = 1683;
},
{
layerId = "95A1F7A7-251D-4D34-8987-F15869CF2847";
paths = (
{
closed = 1;
nodes = (
"44 0 LINE",
"52 54 LINE",
"220 92 LINE",
"297 1151 LINE",
"113 1188 LINE",
"122 1244 LINE",
"482 1244 LINE",
"557 1053 LINE",
"844 268 LINE",
"1178 1092 LINE",
"1245 1244 LINE",
"1605 1244 LINE",
"1598 1188 LINE",
"1427 1154 LINE",
"1481 86 LINE",
"1662 60 LINE",
"1656 0 LINE",
"1157 0 LINE",
"1165 54 LINE",
"1334 92 LINE",
"1277 1087 LINE",
"854 55 LINE",
"765 41 LINE",
"389 1059 LINE",
"318 86 LINE",
"501 60 LINE",
"491 0 LINE"
);
}
);
width = 1711;
},
{
layerId = "A90FD956-C3C8-4F9C-A3E6-D92726884721";
paths = (
{
closed = 1;
nodes = (
"24 0 LINE",
"35 74 LINE",
"202 121 LINE",
"275 1126 LINE",
"92 1168 LINE",
"102 1244 LINE",
"505 1244 LINE",
"583 1050 LINE",
"845 313 LINE",
"1152 1083 LINE",
"1223 1244 LINE",
"1618 1244 LINE",
"1608 1168 LINE",
"1440 1130 LINE",
"1492 114 LINE",
"1674 80 LINE",
"1664 0 LINE",
"1128 0 LINE",
"1139 74 LINE",
"1305 121 LINE",
"1249 1004 LINE",
"868 50 LINE",
"740 31 LINE",
"397 967 LINE",
"334 114 LINE",
"517 80 LINE",
"504 0 LINE"
);
}
);
width = 1664;
},
{
layerId = "E2DFD151-CE6A-4BFD-8A7C-97074A3C806B";
paths = (
{
closed = 1;
nodes = (
"43 0 LINE",
"59 114 LINE",
"227 177 LINE",
"292 1078 LINE",
"109 1128 LINE",
"121 1244 LINE",
"626 1244 LINE",
"701 1044 LINE",
"909 426 LINE",
"1143 1062 LINE",
"1211 1244 LINE",
"1709 1244 LINE",
"1695 1128 LINE",
"1530 1082 LINE",
"1591 172 LINE",
"1770 120 LINE",
"1758 0 LINE",
"1169 0 LINE",
"1187 114 LINE",
"1325 177 LINE",
"1271 890 LINE",
"968 40 LINE",
"763 12 LINE",
"471 877 LINE",
"423 172 LINE",
"579 120 LINE",
"561 0 LINE"
);
}
);
width = 1821;
},
{
layerId = "3A1433D5-008E-4B0B-A40A-C7A907BE4F87";
paths = (
{
closed = 1;
nodes = (
"34 0 LINE",
"55 154 LINE",
"223 233 LINE",
"281 1030 LINE",
"97 1087 LINE",
"113 1244 LINE",
"764 1244 LINE",
"821 1039 LINE",
"949 553 LINE",
"1105 1041 LINE",
"1172 1244 LINE",
"1792 1244 LINE",
"1774 1087 LINE",
"1622 1033 LINE",
"1672 229 LINE",
"1838 161 LINE",
"1824 0 LINE",
"1163 0 LINE",
"1186 154 LINE",
"1288 223 LINE",
"1265 786 LINE",
"1040 31 LINE",
"747 -8 LINE",
"518 787 LINE",
"485 229 LINE",
"614 161 LINE",
"589 0 LINE"
);
}
);
width = 1873;
}
);
unicode = 004D;
},
{
glyphname = N;
lastChange = "2016-08-10 11:03:53 +0000";
layers = (
{
layerId = "AE2A7EE3-C661-4E21-B15C-7E7CBD4BEDE2";
paths = (
{
closed = 1;
nodes = (
"47 1208 LINE",
"55 1244 LINE",
"353 1244 LINE",
"1069 189 LINE",
"1069 1180 LINE",
"886 1205 LINE",
"892 1244 LINE",
"1316 1244 LINE",
"1308 1205 LINE",
"1142 1182 LINE",
"1142 -7 LINE",
"1088 -18 LINE",
"306 1133 LINE",
"306 65 LINE",
"490 46 LINE",
"480 0 LINE",
"59 0 LINE",
"65 42 LINE",
"232 72 LINE",
"232 1175 LINE"
);
}
);
width = 1346;
},
{
layerId = "95A1F7A7-251D-4D34-8987-F15869CF2847";
paths = (
{
closed = 1;
nodes = (
"46 1188 LINE",
"56 1244 LINE",
"383 1244 LINE",
"1050 225 LINE",
"1050 1154 LINE",
"865 1187 LINE",
"874 1244 LINE",
"1324 1244 LINE",
"1313 1187 LINE",
"1147 1156 LINE",
"1147 -3 LINE",
"1043 -24 LINE",
"330 1047 LINE",
"330 90 LINE",
"514 63 LINE",
"504 0 LINE",
"56 0 LINE",
"62 58 LINE",
"229 96 LINE",
"229 1147 LINE"
);
}
);
width = 1368;
},
{
layerId = "A90FD956-C3C8-4F9C-A3E6-D92726884721";
paths = (
{
closed = 1;
nodes = (
"50 1168 LINE",
"61 1244 LINE",
"411 1244 LINE",
"1054 274 LINE",
"1054 1126 LINE",
"869 1168 LINE",
"881 1244 LINE",
"1356 1244 LINE",
"1343 1168 LINE",
"1176 1130 LINE",
"1176 1 LINE",
"1023 -30 LINE",
"360 961 LINE",
"360 114 LINE",
"543 80 LINE",
"532 0 LINE",
"57 0 LINE",
"65 74 LINE",
"232 121 LINE",
"232 1117 LINE"
);
}
);
width = 1337;
},
{
layerId = "E2DFD151-CE6A-4BFD-8A7C-97074A3C806B";
paths = (
{
closed = 1;
nodes = (
"51 1128 LINE",
"64 1244 LINE",
"459 1244 LINE",
"1046 402 LINE",
"1046 1073 LINE",
"860 1131 LINE",
"878 1244 LINE",
"1404 1244 LINE",
"1384 1131 LINE",
"1217 1078 LINE",
"1217 8 LINE",
"999 -30 LINE",
"411 790 LINE",
"411 162 LINE",
"592 114 LINE",
"580 0 LINE",
"52 0 LINE",
"62 106 LINE",
"230 169 LINE",
"230 1060 LINE"
);
}
);
width = 1445;
},
{
layerId = "3A1433D5-008E-4B0B-A40A-C7A907BE4F87";
paths = (
{
closed = 1;
nodes = (
"38 1087 LINE",
"52 1244 LINE",
"462 1244 LINE",
"1024 513 LINE",
"1024 1020 LINE",
"836 1094 LINE",
"860 1244 LINE",
"1407 1244 LINE",
"1382 1094 LINE",
"1244 1027 LINE",
"1244 15 LINE",
"951 -29 LINE",
"448 619 LINE",
"448 211 LINE",
"628 148 LINE",
"615 0 LINE",
"34 0 LINE",
"44 138 LINE",
"215 217 LINE",
"215 1003 LINE"
);
}
);
width = 1442;
}
);
unicode = 004E;
},
{
color = 1;
glyphname = Ntilde;
lastChange = "2016-08-10 12:14:12 +0000";
layers = (
{
components = (
{
name = N;
},
{
name = tilde;
transform = "{1, 0, 0, 1, 319, 6}";
}
);
layerId = "AE2A7EE3-C661-4E21-B15C-7E7CBD4BEDE2";
width = 1346;
},
{
components = (
{
name = tilde;
transform = "{1, 0, 0, 1, 335, -9}";
},
{
name = N;
}
);
layerId = "95A1F7A7-251D-4D34-8987-F15869CF2847";
width = 1368;
},
{
layerId = "A90FD956-C3C8-4F9C-A3E6-D92726884721";
paths = (
{
closed = 1;
nodes = (
"50 1168 LINE",
"61 1244 LINE",
"412 1244 LINE",
"1054 271 LINE",
"1054 1126 LINE",
"869 1168 LINE",
"881 1244 LINE",
"1356 1244 LINE",
"1343 1168 LINE",
"1176 1130 LINE",
"1176 1 LINE",
"1023 -30 LINE",
"360 961 LINE",
"360 114 LINE",
"543 80 LINE",
"532 0 LINE",
"57 0 LINE",
"65 74 LINE",
"232 121 LINE",
"232 1117 LINE"
);
},
{
closed = 1;
nodes = (
"445 1383 LINE",
"445 1383 OFFCURVE",
"477 1526 OFFCURVE",
"566 1526 CURVE SMOOTH",
"570 1526 OFFCURVE",
"576 1527 OFFCURVE",
"580 1526 CURVE SMOOTH",
"802 1496 LINE",
"807 1496 LINE SMOOTH",
"832 1496 OFFCURVE",
"862 1536 OFFCURVE",
"862 1536 CURVE",
"910 1535 LINE",
"910 1535 OFFCURVE",
"873 1391 OFFCURVE",
"781 1391 CURVE SMOOTH",
"777 1391 OFFCURVE",
"772 1391 OFFCURVE",
"768 1392 CURVE SMOOTH",
"546 1423 LINE",
"543 1423 LINE SMOOTH",
"515 1423 OFFCURVE",
"483 1376 OFFCURVE",
"483 1376 CURVE"
);
}
);
width = 1337;
},
{
components = (
{
name = tilde;
transform = "{1, 0, 0, 1, 387, 47}";
},
{
name = N;
}
);
layerId = "E2DFD151-CE6A-4BFD-8A7C-97074A3C806B";
width = 1445;
},
{
components = (
{
name = tilde;
transform = "{1, 0, 0, 1, 306, -3}";
},
{
name = N;
}
);
layerId = "3A1433D5-008E-4B0B-A40A-C7A907BE4F87";
width = 1442;
}
);
unicode = 00D1;
},
{
glyphname = O;
lastChange = "2016-08-10 11:03:53 +0000";
layers = (
{
layerId = "AE2A7EE3-C661-4E21-B15C-7E7CBD4BEDE2";
paths = (
{
closed = 1;
nodes = (
"54 620 CURVE SMOOTH",
"54 1005 OFFCURVE",
"290.619 1274 OFFCURVE",
"669 1274 CURVE SMOOTH",
"1014.28 1274 OFFCURVE",
"1195 996 OFFCURVE",
"1195 627 CURVE SMOOTH",
"1195 321 OFFCURVE",
"1008.5 -27 OFFCURVE",
"597 -27 CURVE SMOOTH",
"266.614 -27 OFFCURVE",
"54 267 OFFCURVE"
);
},
{
closed = 1;
nodes = (
"164 669 CURVE SMOOTH",
"164 305.748 OFFCURVE",
"337.956 37 OFFCURVE",
"645 37 CURVE SMOOTH",
"940.346 37 OFFCURVE",
"1087 297 OFFCURVE",
"1087 573 CURVE SMOOTH",
"1087 954 OFFCURVE",
"910.102 1218 OFFCURVE",
"621 1218 CURVE SMOOTH",
"311.044 1218 OFFCURVE",
"164 934.842 OFFCURVE"
);
}
);
width = 1221;
},
{
layerId = "95A1F7A7-251D-4D34-8987-F15869CF2847";
paths = (
{
closed = 1;
nodes = (
"50 620 CURVE SMOOTH",
"50 1005 OFFCURVE",
"288 1274 OFFCURVE",
"669 1274 CURVE SMOOTH",
"1021 1274 OFFCURVE",
"1218 984 OFFCURVE",
"1218 624 CURVE SMOOTH",
"1218 299 OFFCURVE",
"1010 -27 OFFCURVE",
"599 -27 CURVE SMOOTH",
"268 -27 OFFCURVE",
"50 263 OFFCURVE"
);
},
{
closed = 1;
nodes = (
"217 678 CURVE SMOOTH",
"217 346 OFFCURVE",
"356 58 OFFCURVE",
"647 58 CURVE SMOOTH",
"944 58 OFFCURVE",
"1052 331 OFFCURVE",
"1052 574 CURVE SMOOTH",
"1052 906 OFFCURVE",
"907 1197 OFFCURVE",
"620 1197 CURVE SMOOTH",
"323 1197 OFFCURVE",
"217 939 OFFCURVE"
);
}
);
width = 1266;
},
{
layerId = "A90FD956-C3C8-4F9C-A3E6-D92726884721";
paths = (
{
closed = 1;
nodes = (
"61 619 CURVE SMOOTH",
"61 1004 OFFCURVE",
"308 1272 OFFCURVE",
"706 1272 CURVE SMOOTH",
"1068 1272 OFFCURVE",
"1284 970 OFFCURVE",
"1284 619 CURVE SMOOTH",
"1284 274 OFFCURVE",
"1051 -27 OFFCURVE",
"636 -27 CURVE SMOOTH",
"291 -27 OFFCURVE",
"61 257 OFFCURVE"
);
},
{
closed = 1;
nodes = (
"283 676 CURVE SMOOTH",
"283 382 OFFCURVE",
"398 79 OFFCURVE",
"686 79 CURVE SMOOTH",
"990 79 OFFCURVE",
"1062 330 OFFCURVE",
"1062 573 CURVE SMOOTH",
"1062 856 OFFCURVE",
"945 1176 OFFCURVE",
"658 1176 CURVE SMOOTH",
"358 1176 OFFCURVE",
"283 937 OFFCURVE"
);
}
);
width = 1322;
},
{
layerId = "E2DFD151-CE6A-4BFD-8A7C-97074A3C806B";
paths = (
{
closed = 1;
nodes = (
"47 619 CURVE SMOOTH",
"47 1004 OFFCURVE",
"293 1270 OFFCURVE",
"727 1270 CURVE SMOOTH",
"1115 1270 OFFCURVE",
"1350 1031 OFFCURVE",
"1350 616 CURVE SMOOTH",
"1350 235 OFFCURVE",
"1082 -27 OFFCURVE",
"657 -27 CURVE SMOOTH",
"249 -27 OFFCURVE",
"47 248 OFFCURVE"
);
},
{
closed = 1;
nodes = (
"363 674 CURVE SMOOTH",
"363 454 OFFCURVE",
"444 121 OFFCURVE",
"708 121 CURVE SMOOTH",
"946 121 OFFCURVE",
"1027 309 OFFCURVE",
"1027 573 CURVE SMOOTH",
"1027 788 OFFCURVE",
"949 1135 OFFCURVE",
"679 1135 CURVE SMOOTH",
"434 1135 OFFCURVE",
"363 936 OFFCURVE"
);
}
);
width = 1397;
},
{
layerId = "3A1433D5-008E-4B0B-A40A-C7A907BE4F87";
paths = (
{
closed = 1;
nodes = (
"36 619 CURVE SMOOTH",
"36 1004 OFFCURVE",
"285 1269 OFFCURVE",
"699 1269 CURVE SMOOTH",
"1060 1269 OFFCURVE",
"1318 1092 OFFCURVE",
"1318 613 CURVE SMOOTH",
"1318 196 OFFCURVE",
"1027 -27 OFFCURVE",
"659 -27 CURVE SMOOTH",
"230 -27 OFFCURVE",
"36 239 OFFCURVE"
);
},
{
closed = 1;
nodes = (
"444 671 CURVE SMOOTH",
"444 526 OFFCURVE",
"488 163 OFFCURVE",
"712 163 CURVE SMOOTH",
"837 163 OFFCURVE",
"904 287 OFFCURVE",
"904 573 CURVE SMOOTH",
"904 720 OFFCURVE",
"871 1094 OFFCURVE",
"653 1094 CURVE SMOOTH",
"500 1094 OFFCURVE",
"444 933 OFFCURVE"
);
}
);
width = 1355;
}
);
unicode = 004F;
},
{
color = 1;
glyphname = Oacute;
lastChange = "2016-08-10 12:14:12 +0000";
layers = (
{
components = (
{
name = O;
},
{
name = acute;
transform = "{1, 0, 0, 1, 483, 6}";
}
);
layerId = "AE2A7EE3-C661-4E21-B15C-7E7CBD4BEDE2";
width = 1221;
},
{
components = (
{
name = acute;
transform = "{1, 0, 0, 1, 482, 16}";
},
{
name = O;
}
);
layerId = "95A1F7A7-251D-4D34-8987-F15869CF2847";
width = 1266;
},
{
layerId = "A90FD956-C3C8-4F9C-A3E6-D92726884721";
paths = (
{
closed = 1;
nodes = (
"61 619 CURVE SMOOTH",
"61 1004 OFFCURVE",
"308 1272 OFFCURVE",
"706 1272 CURVE SMOOTH",
"1068 1272 OFFCURVE",
"1284 970 OFFCURVE",
"1284 619 CURVE SMOOTH",
"1284 274 OFFCURVE",
"1052 -27 OFFCURVE",
"637 -27 CURVE SMOOTH",
"292 -27 OFFCURVE",
"61 257 OFFCURVE"
);
},
{
closed = 1;
nodes = (
"283 676 CURVE SMOOTH",
"283 382 OFFCURVE",
"398 79 OFFCURVE",
"686 79 CURVE SMOOTH",
"990 79 OFFCURVE",
"1061 330 OFFCURVE",
"1061 573 CURVE SMOOTH",
"1061 856 OFFCURVE",
"945 1176 OFFCURVE",
"658 1176 CURVE SMOOTH",
"358 1176 OFFCURVE",
"283 937 OFFCURVE"
);
},
{
closed = 1;
nodes = (
"562 1380 LINE",
"684 1705 LINE",
"796 1666 LINE",
"612 1348 LINE"
);
}
);
width = 1322;
},
{
components = (
{
name = acute;
transform = "{1, 0, 0, 1, 550, 30}";
},
{
name = O;
}
);
layerId = "E2DFD151-CE6A-4BFD-8A7C-97074A3C806B";
width = 1397;
},
{
components = (
{
name = acute;
transform = "{1, 0, 0, 1, 436, 3}";
},
{
name = O;
}
);
layerId = "3A1433D5-008E-4B0B-A40A-C7A907BE4F87";
width = 1355;
}
);
unicode = 00D3;
},
{
color = 1;
glyphname = Ocircumflex;
lastChange = "2016-08-10 12:14:12 +0000";
layers = (
{
components = (
{
name = O;
},
{
name = circumflex;
transform = "{1, 0, 0, 1, 351, 6}";
}
);
layerId = "AE2A7EE3-C661-4E21-B15C-7E7CBD4BEDE2";
width = 1221;
},
{
components = (
{
name = circumflex;
transform = "{1, 0, 0, 1, 364, 4}";
},
{
name = O;
}
);
layerId = "95A1F7A7-251D-4D34-8987-F15869CF2847";
width = 1266;
},
{
layerId = "A90FD956-C3C8-4F9C-A3E6-D92726884721";
paths = (
{
closed = 1;
nodes = (
"61 619 CURVE SMOOTH",
"61 1004 OFFCURVE",
"308 1272 OFFCURVE",
"706 1272 CURVE SMOOTH",
"1068 1272 OFFCURVE",
"1284 970 OFFCURVE",
"1284 619 CURVE SMOOTH",
"1284 274 OFFCURVE",
"1051 -27 OFFCURVE",
"636 -27 CURVE SMOOTH",
"291 -27 OFFCURVE",
"61 257 OFFCURVE"
);
},
{
closed = 1;
nodes = (
"283 676 CURVE SMOOTH",
"283 382 OFFCURVE",
"398 79 OFFCURVE",
"686 79 CURVE SMOOTH",
"990 79 OFFCURVE",
"1062 330 OFFCURVE",
"1062 573 CURVE SMOOTH",
"1062 856 OFFCURVE",
"945 1176 OFFCURVE",
"658 1176 CURVE SMOOTH",
"358 1176 OFFCURVE",
"283 937 OFFCURVE"
);
},
{
closed = 1;
nodes = (
"484 1392 LINE",
"652 1572 LINE",
"707 1585 LINE",
"885 1400 LINE",
"836 1364 LINE",
"672 1472 LINE",
"662 1472 LINE",
"522 1361 LINE"
);
}
);
width = 1322;
},
{
components = (
{
name = circumflex;
transform = "{1, 0, 0, 1, 419, 36}";
},
{
name = O;
}
);
layerId = "E2DFD151-CE6A-4BFD-8A7C-97074A3C806B";
width = 1397;
},
{
components = (
{
name = circumflex;
transform = "{1, 0, 0, 1, 342, -7}";
},
{
name = O;
}
);
layerId = "3A1433D5-008E-4B0B-A40A-C7A907BE4F87";
width = 1355;
}
);
unicode = 00D4;
},
{
color = 1;
glyphname = Odieresis;
lastChange = "2016-08-10 12:14:12 +0000";
layers = (
{
components = (
{
name = O;
},
{
name = dieresis;
transform = "{1, 0, 0, 1, 365, -11}";
}
);
layerId = "AE2A7EE3-C661-4E21-B15C-7E7CBD4BEDE2";
width = 1221;
},
{
components = (
{
name = dieresis;
transform = "{1, 0, 0, 1, 338, -20}";
},
{
name = O;
}
);
layerId = "95A1F7A7-251D-4D34-8987-F15869CF2847";
width = 1266;
},
{
layerId = "A90FD956-C3C8-4F9C-A3E6-D92726884721";
paths = (
{
closed = 1;
nodes = (
"61 619 CURVE SMOOTH",
"61 1004 OFFCURVE",
"308 1272 OFFCURVE",
"706 1272 CURVE SMOOTH",
"1068 1272 OFFCURVE",
"1284 970 OFFCURVE",
"1284 619 CURVE SMOOTH",
"1284 274 OFFCURVE",
"1051 -27 OFFCURVE",
"636 -27 CURVE SMOOTH",
"291 -27 OFFCURVE",
"61 257 OFFCURVE"
);
},
{
closed = 1;
nodes = (
"283 676 CURVE SMOOTH",
"283 382 OFFCURVE",
"398 79 OFFCURVE",
"686 79 CURVE SMOOTH",
"990 79 OFFCURVE",
"1062 330 OFFCURVE",
"1062 573 CURVE SMOOTH",
"1062 856 OFFCURVE",
"945 1176 OFFCURVE",
"658 1176 CURVE SMOOTH",
"358 1176 OFFCURVE",
"283 937 OFFCURVE"
);
},
{
closed = 1;
nodes = (
"463 1453 CURVE SMOOTH",
"463 1500 OFFCURVE",
"507 1530 OFFCURVE",
"547 1530 CURVE SMOOTH",
"591 1530 OFFCURVE",
"632 1499 OFFCURVE",
"632 1453 CURVE SMOOTH",
"632 1404 OFFCURVE",
"591 1373 OFFCURVE",
"547 1373 CURVE SMOOTH",
"504 1373 OFFCURVE",
"463 1404 OFFCURVE"
);
},
{
closed = 1;
nodes = (
"730 1453 CURVE SMOOTH",
"730 1500 OFFCURVE",
"774 1530 OFFCURVE",
"814 1530 CURVE SMOOTH",
"858 1530 OFFCURVE",
"902 1499 OFFCURVE",
"902 1453 CURVE SMOOTH",
"902 1404 OFFCURVE",
"858 1373 OFFCURVE",
"814 1373 CURVE SMOOTH",
"771 1373 OFFCURVE",
"730 1404 OFFCURVE"
);
}
);
width = 1322;
},
{
components = (
{
name = dieresis;
transform = "{1, 0, 0, 1, 441, 36}";
},
{
name = O;
}
);
layerId = "E2DFD151-CE6A-4BFD-8A7C-97074A3C806B";
width = 1397;
},
{
components = (
{
name = dieresis;
transform = "{1, 0, 0, 1, 262, -47}";
},
{
name = O;
}
);
layerId = "3A1433D5-008E-4B0B-A40A-C7A907BE4F87";
width = 1355;
}
);
unicode = 00D6;
},
{
color = 1;
glyphname = Ograve;
lastChange = "2016-08-10 12:14:12 +0000";
layers = (
{
components = (
{
name = O;
},
{
name = grave;
transform = "{1, 0, 0, 1, 353, 6}";
}
);
layerId = "AE2A7EE3-C661-4E21-B15C-7E7CBD4BEDE2";
width = 1221;
},
{
components = (
{
name = grave;
transform = "{1, 0, 0, 1, 354, 30}";
},
{
name = O;
}
);
layerId = "95A1F7A7-251D-4D34-8987-F15869CF2847";
width = 1266;
},
{
layerId = "A90FD956-C3C8-4F9C-A3E6-D92726884721";
paths = (
{
closed = 1;
nodes = (
"61 619 CURVE SMOOTH",
"61 1004 OFFCURVE",
"308 1272 OFFCURVE",
"706 1272 CURVE SMOOTH",
"1068 1272 OFFCURVE",
"1284 970 OFFCURVE",
"1284 619 CURVE SMOOTH",
"1284 274 OFFCURVE",
"1051 -27 OFFCURVE",
"636 -27 CURVE SMOOTH",
"291 -27 OFFCURVE",
"61 257 OFFCURVE"
);
},
{
closed = 1;
nodes = (
"283 676 CURVE SMOOTH",
"283 382 OFFCURVE",
"398 79 OFFCURVE",
"686 79 CURVE SMOOTH",
"990 79 OFFCURVE",
"1062 330 OFFCURVE",
"1062 573 CURVE SMOOTH",
"1062 856 OFFCURVE",
"945 1176 OFFCURVE",
"658 1176 CURVE SMOOTH",
"358 1176 OFFCURVE",
"283 937 OFFCURVE"
);
},
{
closed = 1;
nodes = (
"527 1664 LINE",
"642 1702 LINE",
"774 1368 LINE",
"717 1334 LINE"
);
}
);
width = 1322;
},
{
components = (
{
name = grave;
transform = "{1, 0, 0, 1, 468, 70}";
},
{
name = O;
}
);
layerId = "E2DFD151-CE6A-4BFD-8A7C-97074A3C806B";
width = 1397;
},
{
components = (
{
name = grave;
transform = "{1, 0, 0, 1, 304, 4}";
},
{
name = O;
}
);
layerId = "3A1433D5-008E-4B0B-A40A-C7A907BE4F87";
width = 1355;
}
);
unicode = 00D2;
},
{
glyphname = Oslash;
lastChange = "2016-08-10 11:03:53 +0000";
layers = (
{
layerId = "AE2A7EE3-C661-4E21-B15C-7E7CBD4BEDE2";
paths = (
{
closed = 1;
nodes = (
"46 127 LINE",
"193 255 LINE",
"231 276 LINE",
"1009 1012 LINE",
"1033 1048 LINE",
"1148 1161 LINE",
"1236 1127 LINE",
"1087 1005 LINE",
"1042 976 LINE",
"255 229 LINE",
"231 199 LINE",
"130 92 LINE"
);
},
{
closed = 1;
nodes = (
"194 679 CURVE SMOOTH",
"194 310 OFFCURVE",
"363 37 OFFCURVE",
"653 37 CURVE SMOOTH",
"943 37 OFFCURVE",
"1087 330 OFFCURVE",
"1087 573 CURVE SMOOTH",
"1087 954 OFFCURVE",
"912 1218 OFFCURVE",
"626 1218 CURVE SMOOTH",
"333 1218 OFFCURVE",
"194 940 OFFCURVE"
);
},
{
closed = 1;
nodes = (
"84 620 CURVE SMOOTH",
"84 1005 OFFCURVE",
"311 1274 OFFCURVE",
"674 1274 CURVE SMOOTH",
"1016 1274 OFFCURVE",
"1195 1004 OFFCURVE",
"1195 627 CURVE SMOOTH",
"1195 321 OFFCURVE",
"1011 -27 OFFCURVE",
"605 -27 CURVE SMOOTH",
"288 -27 OFFCURVE",
"84 267 OFFCURVE"
);
}
);
width = 1283;
},
{
layerId = "95A1F7A7-251D-4D34-8987-F15869CF2847";
paths = (
{
closed = 1;
nodes = (
"108 8 LINE",
"247 194 LINE",
"286 216 LINE",
"938 1076 LINE",
"947 1113 LINE",
"1037 1233 LINE",
"1158 1220 LINE",
"1034 1070 LINE",
"986 1033 LINE",
"321 155 LINE",
"315 125 LINE",
"224 -5 LINE"
);
},
{
closed = 1;
nodes = (
"215 678 CURVE SMOOTH",
"215 346 OFFCURVE",
"358 58 OFFCURVE",
"647 58 CURVE SMOOTH",
"944 58 OFFCURVE",
"1051 331 OFFCURVE",
"1051 574 CURVE SMOOTH",
"1051 906 OFFCURVE",
"906 1197 OFFCURVE",
"619 1197 CURVE SMOOTH",
"322 1197 OFFCURVE",
"215 939 OFFCURVE"
);
},
{
closed = 1;
nodes = (
"50 620 CURVE SMOOTH",
"50 1005 OFFCURVE",
"287 1274 OFFCURVE",
"668 1274 CURVE SMOOTH",
"1020 1274 OFFCURVE",
"1216 988 OFFCURVE",
"1216 624 CURVE SMOOTH",
"1216 299 OFFCURVE",
"1009 -27 OFFCURVE",
"598 -27 CURVE SMOOTH",
"267 -27 OFFCURVE",
"50 263 OFFCURVE"
);
}
);
width = 1264;
},
{
layerId = "A90FD956-C3C8-4F9C-A3E6-D92726884721";
paths = (
{
closed = 1;
nodes = (
"228 -111 LINE",
"359 133 LINE",
"399 157 LINE",
"925 1139 LINE",
"917 1178 LINE",
"984 1304 LINE",
"1136 1312 LINE",
"1039 1134 LINE",
"988 1090 LINE",
"445 80 LINE",
"458 52 LINE",
"375 -102 LINE"
);
},
{
closed = 1;
nodes = (
"295 676 CURVE SMOOTH",
"295 382 OFFCURVE",
"410 79 OFFCURVE",
"698 79 CURVE SMOOTH",
"1002 79 OFFCURVE",
"1073 330 OFFCURVE",
"1073 573 CURVE SMOOTH",
"1073 856 OFFCURVE",
"957 1176 OFFCURVE",
"670 1176 CURVE SMOOTH",
"370 1176 OFFCURVE",
"295 937 OFFCURVE"
);
},
{
closed = 1;
nodes = (
"73 619 CURVE SMOOTH",
"73 1004 OFFCURVE",
"320 1272 OFFCURVE",
"718 1272 CURVE SMOOTH",
"1080 1272 OFFCURVE",
"1296 970 OFFCURVE",
"1296 619 CURVE SMOOTH",
"1296 274 OFFCURVE",
"1064 -27 OFFCURVE",
"649 -27 CURVE SMOOTH",
"304 -27 OFFCURVE",
"73 257 OFFCURVE"
);
}
);
width = 1342;
},
{
layerId = "E2DFD151-CE6A-4BFD-8A7C-97074A3C806B";
paths = (
{
closed = 1;
nodes = (
"135.003 -34 LINE",
"303.003 202 LINE",
"409.003 230 LINE",
"980.003 1098 LINE",
"985.003 1168 LINE",
"1085 1293 LINE",
"1282 1272 LINE",
"1114 1060 LINE",
"1032 1029 LINE",
"453.003 142 LINE",
"425.003 74 LINE",
"331.003 -60 LINE"
);
},
{
closed = 1;
nodes = (
"383.003 674 CURVE SMOOTH",
"383.003 454 OFFCURVE",
"464.003 121 OFFCURVE",
"728.003 121 CURVE SMOOTH",
"966.003 121 OFFCURVE",
"1047 309 OFFCURVE",
"1047 573 CURVE SMOOTH",
"1047 788 OFFCURVE",
"969.003 1135 OFFCURVE",
"699.003 1135 CURVE SMOOTH",
"454.003 1135 OFFCURVE",
"383.003 936 OFFCURVE"
);
},
{
closed = 1;
nodes = (
"47.003 619 CURVE",
"47.003 1004 OFFCURVE",
"313.003 1270 OFFCURVE",
"747.003 1270 CURVE SMOOTH",
"1135 1270 OFFCURVE",
"1390 1031 OFFCURVE",
"1390 616 CURVE SMOOTH",
"1390 235 OFFCURVE",
"1102 -27 OFFCURVE",
"677.003 -27 CURVE",
"270.003 -27 OFFCURVE",
"46.003 248 OFFCURVE"
);
}
);
width = 1437;
},
{
components = (
{
name = O;
}
);
layerId = "3A1433D5-008E-4B0B-A40A-C7A907BE4F87";
paths = (
{
closed = 1;
nodes = (
"-14 64 LINE",
"191 290 LINE",
"364 322 LINE",
"915 1012 LINE",
"933 1112 LINE",
"1097 1262 LINE",
"1340 1211 LINE",
"1069 941 LINE",
"956 922 LINE",
"406 223 LINE",
"335 116 LINE",
"232 1 LINE"
);
}
);
width = 1355;
}
);
unicode = 00D8;
},
{
color = 1;
glyphname = Otilde;
lastChange = "2016-08-10 12:14:12 +0000";
layers = (
{
components = (
{
name = tilde;
transform = "{1, 0, 0, 1, 314, 0}";
},
{
name = O;
}
);
layerId = "AE2A7EE3-C661-4E21-B15C-7E7CBD4BEDE2";
width = 1221;
},
{
components = (
{
name = tilde;
transform = "{1, 0, 0, 1, 318, -9}";
},
{
name = O;
}
);
layerId = "95A1F7A7-251D-4D34-8987-F15869CF2847";
width = 1266;
},
{
layerId = "A90FD956-C3C8-4F9C-A3E6-D92726884721";
paths = (
{
closed = 1;
nodes = (
"61 619 CURVE SMOOTH",
"61 1004 OFFCURVE",
"308 1272 OFFCURVE",
"706 1272 CURVE SMOOTH",
"1068 1272 OFFCURVE",
"1284 970 OFFCURVE",
"1284 619 CURVE SMOOTH",
"1284 274 OFFCURVE",
"1051 -27 OFFCURVE",
"636 -27 CURVE SMOOTH",
"291 -27 OFFCURVE",
"61 257 OFFCURVE"
);
},
{
closed = 1;
nodes = (
"283 676 CURVE SMOOTH",
"283 382 OFFCURVE",
"398 79 OFFCURVE",
"686 79 CURVE SMOOTH",
"990 79 OFFCURVE",
"1062 330 OFFCURVE",
"1062 573 CURVE SMOOTH",
"1062 856 OFFCURVE",
"945 1176 OFFCURVE",
"658 1176 CURVE SMOOTH",
"358 1176 OFFCURVE",
"283 937 OFFCURVE"
);
},
{
closed = 1;
nodes = (
"448 1383 LINE",
"448 1383 OFFCURVE",
"479 1526 OFFCURVE",
"568 1526 CURVE SMOOTH",
"572 1526 OFFCURVE",
"577 1527 OFFCURVE",
"581 1526 CURVE SMOOTH",
"805 1496 LINE",
"810 1496 LINE SMOOTH",
"835 1496 OFFCURVE",
"866 1536 OFFCURVE",
"866 1536 CURVE",
"913 1535 LINE",
"913 1535 OFFCURVE",
"875 1391 OFFCURVE",
"783 1391 CURVE SMOOTH",
"779 1391 OFFCURVE",
"775 1391 OFFCURVE",
"771 1392 CURVE SMOOTH",
"547 1423 LINE",
"546 1423 LINE SMOOTH",
"518 1423 OFFCURVE",
"485 1376 OFFCURVE",
"485 1376 CURVE"
);
}
);
width = 1322;
},
{
components = (
{
name = tilde;
transform = "{1, 0, 0, 1, 407, 47}";
},
{
name = O;
}
);
layerId = "E2DFD151-CE6A-4BFD-8A7C-97074A3C806B";
width = 1397;
},
{
components = (
{
name = tilde;
transform = "{1, 0, 0, 1, 279, -3}";
},
{
name = O;
}
);
layerId = "3A1433D5-008E-4B0B-A40A-C7A907BE4F87";
width = 1355;
}
);
unicode = 00D5;
},
{
glyphname = OE;
lastChange = "2016-08-10 11:03:53 +0000";
layers = (
{
layerId = "AE2A7EE3-C661-4E21-B15C-7E7CBD4BEDE2";
paths = (
{
closed = 1;
nodes = (
"64 620 CURVE SMOOTH",
"64 1005 OFFCURVE",
"292 1274 OFFCURVE",
"655 1274 CURVE SMOOTH",
"716 1274 OFFCURVE",
"779 1265 OFFCURVE",
"832 1245 CURVE",
"1483 1244 LINE",
"1453 925 LINE",
"1407 931 LINE",
"1386 1193 LINE",
"894 1193 LINE",
"894 659 LINE",
"1192 659 LINE",
"1229 798 LINE",
"1280 806 LINE",
"1246 417 LINE",
"1200 408 LINE",
"1182 605 LINE",
"894 605 LINE",
"894 54 LINE",
"1416 54 LINE",
"1488 323 LINE",
"1531 313 LINE",
"1499 0 LINE",
"785 0 LINE",
"719 -15 OFFCURVE",
"650 -27 OFFCURVE",
"586 -27 CURVE SMOOTH",
"269 -27 OFFCURVE",
"64 267 OFFCURVE"
);
},
{
closed = 1;
nodes = (
"172 679 CURVE SMOOTH",
"172 310 OFFCURVE",
"346 31 OFFCURVE",
"632 31 CURVE SMOOTH",
"692 31 OFFCURVE",
"742 41 OFFCURVE",
"788 63 CURVE",
"788 1151 LINE",
"735 1196 OFFCURVE",
"676 1218 OFFCURVE",
"607 1218 CURVE SMOOTH",
"314 1218 OFFCURVE",
"172 940 OFFCURVE"
);
}
);
width = 1649;
},
{
layerId = "95A1F7A7-251D-4D34-8987-F15869CF2847";
paths = (
{
closed = 1;
nodes = (
"64 620 CURVE SMOOTH",
"64 1007 OFFCURVE",
"278 1274 OFFCURVE",
"657 1274 CURVE SMOOTH",
"722 1274 OFFCURVE",
"786 1265 OFFCURVE",
"839 1245 CURVE",
"1553 1244 LINE",
"1522 925 LINE",
"1456 934 LINE",
"1426 1173 LINE",
"945 1173 LINE",
"945 668 LINE",
"1238 668 LINE",
"1278 797 LINE",
"1351 808 LINE",
"1317 419 LINE",
"1250 408 LINE",
"1225 594 LINE",
"945 594 LINE",
"945 75 LINE",
"1452 75 LINE",
"1537 324 LINE",
"1600 313 LINE",
"1569 0 LINE",
"792 0 LINE",
"726 -16 OFFCURVE",
"656 -27 OFFCURVE",
"588 -27 CURVE SMOOTH",
"260 -27 OFFCURVE",
"64 258 OFFCURVE"
);
},
{
closed = 1;
nodes = (
"229 678 CURVE SMOOTH",
"229 363 OFFCURVE",
"360 55 OFFCURVE",
"633 55 CURVE SMOOTH",
"693 55 OFFCURVE",
"746 67 OFFCURVE",
"795 93 CURVE",
"795 1139 LINE",
"740 1178 OFFCURVE",
"679 1197 OFFCURVE",
"610 1197 CURVE SMOOTH",
"355 1197 OFFCURVE",
"229 976 OFFCURVE"
);
}
);
width = 1679;
},
{
layerId = "A90FD956-C3C8-4F9C-A3E6-D92726884721";
paths = (
{
closed = 1;
nodes = (
"64 619 CURVE SMOOTH",
"64 1009 OFFCURVE",
"266 1272 OFFCURVE",
"660 1272 CURVE SMOOTH",
"730 1272 OFFCURVE",
"792 1263 OFFCURVE",
"845 1244 CURVE",
"1622 1244 LINE",
"1590 924 LINE",
"1504 937 LINE",
"1464 1152 LINE",
"995 1152 LINE",
"995 676 LINE",
"1283 676 LINE",
"1325 796 LINE",
"1419 810 LINE",
"1387 421 LINE",
"1300 408 LINE",
"1267 583 LINE",
"995 583 LINE",
"995 96 LINE",
"1487 96 LINE",
"1585 326 LINE",
"1668 313 LINE",
"1639 0 LINE",
"798 0 LINE",
"732 -16 OFFCURVE",
"663 -27 OFFCURVE",
"590 -27 CURVE SMOOTH",
"252 -27 OFFCURVE",
"64 247 OFFCURVE"
);
},
{
closed = 1;
nodes = (
"286 676 CURVE SMOOTH",
"286 415 OFFCURVE",
"373 79 OFFCURVE",
"633 79 CURVE SMOOTH",
"692 79 OFFCURVE",
"749 92 OFFCURVE",
"802 122 CURVE",
"802 1126 LINE",
"746 1159 OFFCURVE",
"681 1176 OFFCURVE",
"611 1176 CURVE SMOOTH",
"393 1176 OFFCURVE",
"286 1010 OFFCURVE"
);
}
);
width = 1708;
},
{
layerId = "E2DFD151-CE6A-4BFD-8A7C-97074A3C806B";
paths = (
{
closed = 1;
nodes = (
"32 619 CURVE SMOOTH",
"32 1015 OFFCURVE",
"210 1270 OFFCURVE",
"634 1270 CURVE SMOOTH",
"712 1270 OFFCURVE",
"774 1260 OFFCURVE",
"826 1242 CURVE",
"1684 1244 LINE",
"1654 875 LINE",
"1525 894 LINE",
"1464 1112 LINE",
"1064 1112 LINE",
"1064 694 LINE",
"1304 702 LINE",
"1334 763 LINE",
"1494 780 LINE",
"1461 462 LINE",
"1310 465 LINE",
"1284 554 LINE",
"1064 562 LINE",
"1064 137 LINE",
"1504 138 LINE",
"1626 377 LINE",
"1750 362 LINE",
"1720 0 LINE",
"780 0 LINE",
"715 -17 OFFCURVE",
"645 -27 OFFCURVE",
"563 -27 CURVE SMOOTH",
"203 -27 OFFCURVE",
"32 229 OFFCURVE"
);
},
{
closed = 1;
nodes = (
"366 674 CURVE SMOOTH",
"366 482 OFFCURVE",
"417 137 OFFCURVE",
"636 137 CURVE SMOOTH",
"683 137 OFFCURVE",
"733 151 OFFCURVE",
"784 181 CURVE",
"784 1092 LINE",
"726 1121 OFFCURVE",
"666 1140 OFFCURVE",
"608 1140 CURVE SMOOTH",
"450 1140 OFFCURVE",
"366 1010 OFFCURVE"
);
}
);
width = 1770;
},
{
layerId = "3A1433D5-008E-4B0B-A40A-C7A907BE4F87";
paths = (
{
closed = 1;
nodes = (
"0 619 CURVE SMOOTH",
"0 1021 OFFCURVE",
"153 1269 OFFCURVE",
"607 1269 CURVE SMOOTH",
"694 1269 OFFCURVE",
"755 1259 OFFCURVE",
"806 1241 CURVE",
"1747 1244 LINE",
"1717 826 LINE",
"1546 852 LINE",
"1463 1072 LINE",
"1134 1072 LINE",
"1134 712 LINE",
"1324 728.124 LINE",
"1344 729.821 LINE",
"1570 749 LINE",
"1535 502 LINE",
"1320 522.374 LINE",
"1300 525.27 LINE",
"1134 540 LINE",
"1134 178 LINE",
"1521 180 LINE",
"1667 428 LINE",
"1832 411 LINE",
"1802 0 LINE",
"761 0 LINE",
"697 -18 OFFCURVE",
"626 -27 OFFCURVE",
"536 -27 CURVE SMOOTH",
"155 -27 OFFCURVE",
"0 210 OFFCURVE"
);
},
{
closed = 1;
nodes = (
"447 671 CURVE SMOOTH",
"447 548 OFFCURVE",
"462 195 OFFCURVE",
"640 195 CURVE SMOOTH",
"675 195 OFFCURVE",
"716 209 OFFCURVE",
"765 240 CURVE",
"765 1058 LINE",
"705 1083 OFFCURVE",
"652 1104 OFFCURVE",
"606 1104 CURVE SMOOTH",
"508 1104 OFFCURVE",
"447 1010 OFFCURVE"
);
}
);
width = 1832;
}
);
unicode = 0152;
},
{
glyphname = P;
lastChange = "2016-08-10 11:03:53 +0000";
layers = (
{
layerId = "AE2A7EE3-C661-4E21-B15C-7E7CBD4BEDE2";
paths = (
{
closed = 1;
nodes = (
"50 0 LINE",
"55 42 LINE",
"213 72 LINE",
"213 1153 LINE",
"51 1175 LINE",
"60 1211 LINE",
"190 1231 OFFCURVE",
"292 1256 OFFCURVE",
"464 1256 CURVE SMOOTH",
"782.017 1256 OFFCURVE",
"945 1136.56 OFFCURVE",
"945 885 CURVE SMOOTH",
"945 632.847 OFFCURVE",
"710.457 462 OFFCURVE",
"462 462 CURVE SMOOTH",
"447 462 OFFCURVE",
"426 462 OFFCURVE",
"412 464 CURVE",
"402 506 LINE",
"456 509 LINE SMOOTH",
"730.255 521 OFFCURVE",
"834 675 OFFCURVE",
"834 853 CURVE SMOOTH",
"834 1062.68 OFFCURVE",
"702.726 1212 OFFCURVE",
"433 1212 CURVE SMOOTH",
"391 1212 OFFCURVE",
"323 1206 OFFCURVE",
"323 1206 CURVE",
"323 66 LINE",
"557 46 LINE",
"549 0 LINE"
);
}
);
width = 999;
},
{
layerId = "95A1F7A7-251D-4D34-8987-F15869CF2847";
paths = (
{
closed = 1;
nodes = (
"46 0 LINE",
"54 58 LINE",
"217 96 LINE",
"217 1129 LINE",
"51 1155 LINE",
"59 1211 LINE",
"188 1231 OFFCURVE",
"329 1256 OFFCURVE",
"500 1256 CURVE SMOOTH",
"762 1256 OFFCURVE",
"993 1166 OFFCURVE",
"993 893 CURVE SMOOTH",
"993 652 OFFCURVE",
"766 488 OFFCURVE",
"519 488 CURVE SMOOTH",
"493 488 OFFCURVE",
"468 489 OFFCURVE",
"445 491 CURVE",
"430 553 LINE",
"483 555 LINE SMOOTH",
"724 564 OFFCURVE",
"827 687 OFFCURVE",
"827 865 CURVE SMOOTH",
"827 1036 OFFCURVE",
"719 1192 OFFCURVE",
"474 1192 CURVE SMOOTH",
"433 1192 OFFCURVE",
"368 1186 OFFCURVE",
"368 1186 CURVE",
"368 94 LINE",
"603 65 LINE",
"592 0 LINE"
);
}
);
width = 1039;
},
{
layerId = "A90FD956-C3C8-4F9C-A3E6-D92726884721";
paths = (
{
closed = 1;
nodes = (
"50 0 LINE",
"61 74 LINE",
"228 121 LINE",
"228 1104 LINE",
"57 1134 LINE",
"67 1211 LINE",
"196 1230 OFFCURVE",
"372 1255 OFFCURVE",
"543 1255 CURVE SMOOTH",
"804 1255 OFFCURVE",
"1045 1184 OFFCURVE",
"1045 892 CURVE SMOOTH",
"1045 655 OFFCURVE",
"827 494 OFFCURVE",
"584 494 CURVE SMOOTH",
"548 494 OFFCURVE",
"515 496 OFFCURVE",
"484 497 CURVE",
"466 580 LINE",
"519 581 LINE SMOOTH",
"734 587 OFFCURVE",
"838 678 OFFCURVE",
"838 856 CURVE SMOOTH",
"838 1027 OFFCURVE",
"750 1172 OFFCURVE",
"522 1172 CURVE SMOOTH",
"482 1172 OFFCURVE",
"420 1166 OFFCURVE",
"420 1166 CURVE",
"420 122 LINE",
"657 83 LINE",
"643 0 LINE"
);
}
);
width = 1009;
},
{
layerId = "E2DFD151-CE6A-4BFD-8A7C-97074A3C806B";
paths = (
{
closed = 1;
nodes = (
"44 0 LINE",
"61 106 LINE",
"237 169 LINE",
"237 1056 LINE",
"57 1093 LINE",
"69 1211 LINE",
"241 1237 OFFCURVE",
"413 1261 OFFCURVE",
"631 1261 CURVE SMOOTH",
"919 1261 OFFCURVE",
"1139 1184 OFFCURVE",
"1139 890 CURVE SMOOTH",
"1139 652 OFFCURVE",
"931 470 OFFCURVE",
"660 470 CURVE SMOOTH",
"629 470 OFFCURVE",
"599 472 OFFCURVE",
"569 474 CURVE",
"545 602 LINE",
"581 603 LINE SMOOTH",
"763 606 OFFCURVE",
"851 698 OFFCURVE",
"851 848 CURVE SMOOTH",
"851 994 OFFCURVE",
"775 1113 OFFCURVE",
"595 1113 CURVE SMOOTH",
"565 1113 OFFCURVE",
"523 1108 OFFCURVE",
"511 1106 CURVE",
"511 178 LINE",
"749 120 LINE",
"731 0 LINE"
);
}
);
width = 1181;
},
{
layerId = "3A1433D5-008E-4B0B-A40A-C7A907BE4F87";
paths = (
{
closed = 1;
nodes = (
"34 0 LINE",
"56 138 LINE",
"243 217 LINE",
"243 1008 LINE",
"53 1052 LINE",
"66 1211 LINE",
"272 1244 OFFCURVE",
"429 1267 OFFCURVE",
"681 1267 CURVE SMOOTH",
"1013 1267 OFFCURVE",
"1229 1170 OFFCURVE",
"1229 858 CURVE SMOOTH",
"1229 618 OFFCURVE",
"1031 423 OFFCURVE",
"732 423 CURVE SMOOTH",
"706 423 OFFCURVE",
"679 425 OFFCURVE",
"651 428 CURVE",
"619 602 LINE",
"640 602 LINE SMOOTH",
"789 602 OFFCURVE",
"859 685 OFFCURVE",
"859 800 CURVE SMOOTH",
"859 938 OFFCURVE",
"796 1054 OFFCURVE",
"664 1054 CURVE SMOOTH",
"643 1054 OFFCURVE",
"620 1051 OFFCURVE",
"597 1047 CURVE",
"597 233 LINE",
"848 164 LINE",
"824 0 LINE"
);
}
);
width = 1265;
}
);
unicode = 0050;
},
{
glyphname = Thorn;
lastChange = "2016-08-10 11:03:53 +0000";
layers = (
{
layerId = "AE2A7EE3-C661-4E21-B15C-7E7CBD4BEDE2";
paths = (
{
closed = 1;
nodes = (
"49 1205 LINE",
"54 1244 LINE",
"512 1244 LINE",
"507 1205 LINE",
"329 1182 LINE",
"329 1021 LINE",
"371 1024 OFFCURVE",
"428 1024 OFFCURVE",
"470 1024 CURVE SMOOTH",
"738 1024 OFFCURVE",
"954 915 OFFCURVE",
"954 660 CURVE SMOOTH",
"954 410 OFFCURVE",
"721 248 OFFCURVE",
"471 248 CURVE SMOOTH",
"454 248 OFFCURVE",
"435 247 OFFCURVE",
"418 250 CURVE",
"408 293 LINE",
"462 296 LINE SMOOTH",
"729 308 OFFCURVE",
"830 462 OFFCURVE",
"830 640 CURVE SMOOTH",
"830 812 OFFCURVE",
"702 979 OFFCURVE",
"439 979 CURVE SMOOTH",
"397 979 OFFCURVE",
"329 972 OFFCURVE",
"329 972 CURVE",
"329 66 LINE",
"563 46 LINE",
"555 0 LINE",
"56 0 LINE",
"61 42 LINE",
"219 72 LINE",
"222 1180 LINE"
);
}
);
width = 1008;
},
{
layerId = "95A1F7A7-251D-4D34-8987-F15869CF2847";
paths = (
{
closed = 1;
nodes = (
"47 1187 LINE",
"55 1244 LINE",
"556 1244 LINE",
"548 1187 LINE",
"375 1156 LINE",
"375 1021 LINE",
"416 1023 OFFCURVE",
"465 1024 OFFCURVE",
"506 1024 CURVE SMOOTH",
"771 1024 OFFCURVE",
"999 933 OFFCURVE",
"999 660 CURVE SMOOTH",
"999 416 OFFCURVE",
"782 254 OFFCURVE",
"535 254 CURVE SMOOTH",
"508 254 OFFCURVE",
"480 256 OFFCURVE",
"451 259 CURVE",
"447 271 OFFCURVE",
"437 302 OFFCURVE",
"437 322 CURVE",
"446 322 OFFCURVE",
"482 323 OFFCURVE",
"490 323 CURVE",
"731 329 OFFCURVE",
"834 454 OFFCURVE",
"834 632 CURVE SMOOTH",
"834 803 OFFCURVE",
"722 953 OFFCURVE",
"482 953 CURVE SMOOTH",
"441 953 OFFCURVE",
"375 946 OFFCURVE",
"375 946 CURVE",
"375 94 LINE",
"610 64 LINE",
"599 0 LINE",
"53 0 LINE",
"60 57 LINE",
"225 96 LINE",
"225 1154 LINE"
);
}
);
width = 1045;
},
{
layerId = "A90FD956-C3C8-4F9C-A3E6-D92726884721";
paths = (
{
closed = 1;
nodes = (
"50 1168 LINE",
"61 1244 LINE",
"604 1244 LINE",
"594 1168 LINE",
"423 1130 LINE",
"423 1020 LINE",
"463 1021 OFFCURVE",
"507 1024 OFFCURVE",
"547 1024 CURVE SMOOTH",
"808 1024 OFFCURVE",
"1048 952 OFFCURVE",
"1048 660 CURVE SMOOTH",
"1048 423 OFFCURVE",
"847 260 OFFCURVE",
"604 260 CURVE SMOOTH",
"568 260 OFFCURVE",
"527 262 OFFCURVE",
"487 266 CURVE",
"470 351 LINE",
"711 338 OFFCURVE",
"841 429 OFFCURVE",
"841 624 CURVE SMOOTH",
"841 795 OFFCURVE",
"747 926 OFFCURVE",
"529 926 CURVE SMOOTH",
"489 926 OFFCURVE",
"423 919 OFFCURVE",
"423 919 CURVE",
"423 121 LINE",
"660 83 LINE",
"647 -1 LINE",
"54 -1 LINE",
"64 73 LINE",
"232 119 LINE",
"232 1126 LINE"
);
}
);
width = 1084;
},
{
layerId = "E2DFD151-CE6A-4BFD-8A7C-97074A3C806B";
paths = (
{
closed = 1;
nodes = (
"49 1131 LINE",
"64 1244 LINE",
"700 1244 LINE",
"686 1126 LINE",
"512 1074 LINE",
"512 1001 LINE",
"552 1005 OFFCURVE",
"593 1008 OFFCURVE",
"633 1008 CURVE SMOOTH",
"921 1008 OFFCURVE",
"1141 946 OFFCURVE",
"1141 652 CURVE SMOOTH",
"1141 414 OFFCURVE",
"941 251 OFFCURVE",
"670 251 CURVE SMOOTH",
"639 251 OFFCURVE",
"606 252 OFFCURVE",
"572 256 CURVE",
"547 386 LINE",
"747 379 OFFCURVE",
"852 447 OFFCURVE",
"852 610 CURVE SMOOTH",
"852 756 OFFCURVE",
"774 858 OFFCURVE",
"599 858 CURVE SMOOTH",
"569 858 OFFCURVE",
"524 853 OFFCURVE",
"512 851 CURVE",
"512 172 LINE",
"720 122 LINE",
"707 0 LINE",
"52 0 LINE",
"62 108 LINE",
"234 170 LINE",
"234 1073 LINE"
);
}
);
width = 1185;
},
{
layerId = "3A1433D5-008E-4B0B-A40A-C7A907BE4F87";
paths = (
{
closed = 1;
nodes = (
"50 1094 LINE",
"70 1244 LINE",
"797 1244 LINE",
"781 1084 LINE",
"602 1017 LINE",
"602 982 LINE",
"641 989 OFFCURVE",
"681 993 OFFCURVE",
"721 993 CURVE SMOOTH",
"1035 993 OFFCURVE",
"1236 942 OFFCURVE",
"1236 645 CURVE SMOOTH",
"1236 405 OFFCURVE",
"1038 242 OFFCURVE",
"739 242 CURVE SMOOTH",
"713 242 OFFCURVE",
"686 244 OFFCURVE",
"658 247 CURVE",
"626 421 LINE",
"785 421 OFFCURVE",
"866 465 OFFCURVE",
"866 597 CURVE SMOOTH",
"866 719 OFFCURVE",
"803 790 OFFCURVE",
"671 790 CURVE SMOOTH",
"650 790 OFFCURVE",
"627 787 OFFCURVE",
"604 783 CURVE",
"604 222 LINE",
"782 160 LINE",
"769 0 LINE",
"52 0 LINE",
"62 142 LINE",
"238 221 LINE",
"238 1020 LINE"
);
}
);
width = 1281;
}
);
unicode = 00DE;
},
{
glyphname = Q;
lastChange = "2016-08-10 11:03:53 +0000";
layers = (
{
layerId = "AE2A7EE3-C661-4E21-B15C-7E7CBD4BEDE2";
paths = (
{
closed = 1;
nodes = (
"54 615 CURVE SMOOTH",
"54 994 OFFCURVE",
"274.208 1274 OFFCURVE",
"646 1274 CURVE SMOOTH",
"1024 1274 OFFCURVE",
"1193 995.374 OFFCURVE",
"1193 637 CURVE SMOOTH",
"1193 323 OFFCURVE",
"1004.76 55.033 OFFCURVE",
"710 -12 CURVE",
"823 -257 OFFCURVE",
"957 -298 OFFCURVE",
"1149 -313 CURVE",
"1140 -358 LINE",
"1125.12 -366 OFFCURVE",
"1093.5 -375 OFFCURVE",
"1007 -375 CURVE SMOOTH",
"820.235 -375 OFFCURVE",
"696.079 -211.628 OFFCURVE",
"660 -22 CURVE",
"634 -25 OFFCURVE",
"607 -25 OFFCURVE",
"580 -25 CURVE SMOOTH",
"294.398 -25 OFFCURVE",
"54 262 OFFCURVE"
);
},
{
closed = 1;
nodes = (
"158 660 CURVE SMOOTH",
"158 297 OFFCURVE",
"378.052 33 OFFCURVE",
"667 27 CURVE",
"892.552 73.648 OFFCURVE",
"1089 271 OFFCURVE",
"1089 593 CURVE SMOOTH",
"1089 976.721 OFFCURVE",
"896.695 1218 OFFCURVE",
"601 1218 CURVE SMOOTH",
"310.83 1218 OFFCURVE",
"158 984 OFFCURVE"
);
}
);
width = 1218;
},
{
layerId = "95A1F7A7-251D-4D34-8987-F15869CF2847";
paths = (
{
closed = 1;
nodes = (
"50 614 CURVE SMOOTH",
"50 999 OFFCURVE",
"297 1274 OFFCURVE",
"676 1274 CURVE SMOOTH",
"1026 1274 OFFCURVE",
"1225 985 OFFCURVE",
"1225 629 CURVE SMOOTH",
"1225 346 OFFCURVE",
"1058 61 OFFCURVE",
"755 -9 CURVE",
"841 -199 OFFCURVE",
"951 -263 OFFCURVE",
"1191 -294 CURVE",
"1190 -309 OFFCURVE",
"1186 -343 OFFCURVE",
"1181 -355 CURVE",
"1133 -378 OFFCURVE",
"1073 -385 OFFCURVE",
"1017 -385 CURVE SMOOTH",
"838 -385 OFFCURVE",
"698 -233 OFFCURVE",
"672 -21 CURVE",
"655 -24 OFFCURVE",
"621 -27 OFFCURVE",
"600 -27 CURVE SMOOTH",
"279 -27 OFFCURVE",
"50 257 OFFCURVE"
);
},
{
closed = 1;
nodes = (
"207 670 CURVE SMOOTH",
"207 368 OFFCURVE",
"368 60 OFFCURVE",
"699 47 CURVE",
"950 103 OFFCURVE",
"1068 333 OFFCURVE",
"1068 568 CURVE SMOOTH",
"1068 906 OFFCURVE",
"898 1193 OFFCURVE",
"623 1193 CURVE SMOOTH",
"357 1193 OFFCURVE",
"207 981 OFFCURVE"
);
}
);
width = 1273;
},
{
layerId = "A90FD956-C3C8-4F9C-A3E6-D92726884721";
paths = (
{
closed = 1;
nodes = (
"61 608 CURVE SMOOTH",
"61 994 OFFCURVE",
"325 1272 OFFCURVE",
"721 1272 CURVE SMOOTH",
"1078 1272 OFFCURVE",
"1299 980 OFFCURVE",
"1299 629 CURVE SMOOTH",
"1299 335 OFFCURVE",
"1122 68 OFFCURVE",
"818 -6 CURVE",
"877 -141 OFFCURVE",
"963 -228 OFFCURVE",
"1250 -275 CURVE",
"1250 -299 OFFCURVE",
"1247 -333 OFFCURVE",
"1241 -351 CURVE",
"1179 -381 OFFCURVE",
"1121 -385 OFFCURVE",
"1065 -385 CURVE SMOOTH",
"884 -385 OFFCURVE",
"721 -249 OFFCURVE",
"703 -21 CURVE",
"693 -24 OFFCURVE",
"653 -27 OFFCURVE",
"638 -27 CURVE SMOOTH",
"293 -27 OFFCURVE",
"61 246 OFFCURVE"
);
},
{
closed = 1;
nodes = (
"263 679 CURVE SMOOTH",
"263 439 OFFCURVE",
"369 88 OFFCURVE",
"749 67 CURVE",
"1019 134 OFFCURVE",
"1092 336 OFFCURVE",
"1092 563 CURVE SMOOTH",
"1092 857 OFFCURVE",
"928 1168 OFFCURVE",
"664 1168 CURVE SMOOTH",
"413 1168 OFFCURVE",
"263 989 OFFCURVE"
);
}
);
width = 1334;
},
{
layerId = "E2DFD151-CE6A-4BFD-8A7C-97074A3C806B";
paths = (
{
closed = 1;
nodes = (
"47 608 CURVE SMOOTH",
"47 994 OFFCURVE",
"311 1270 OFFCURVE",
"735 1270 CURVE SMOOTH",
"1121 1270 OFFCURVE",
"1352 1030 OFFCURVE",
"1352 626 CURVE SMOOTH",
"1352 323 OFFCURVE",
"1175 77 OFFCURVE",
"903 5 CURVE",
"965 -123 OFFCURVE",
"1098 -196 OFFCURVE",
"1336 -238 CURVE",
"1336 -250 OFFCURVE",
"1324 -334 OFFCURVE",
"1321 -343 CURVE",
"1245 -373 OFFCURVE",
"1167 -384 OFFCURVE",
"1091 -384 CURVE SMOOTH",
"887 -384 OFFCURVE",
"703 -266 OFFCURVE",
"711 -24 CURVE",
"697 -26 OFFCURVE",
"675 -27 OFFCURVE",
"659 -27 CURVE SMOOTH",
"265 -27 OFFCURVE",
"47 237 OFFCURVE"
);
},
{
closed = 1;
nodes = (
"356 675 CURVE SMOOTH",
"356 441.825 OFFCURVE",
"460 137.901 OFFCURVE",
"777 110 CURVE",
"991 183.678 OFFCURVE",
"1033 356.922 OFFCURVE",
"1033 568 CURVE SMOOTH",
"1033 797.545 OFFCURVE",
"935 1111 OFFCURVE",
"677 1111 CURVE SMOOTH",
"457 1111 OFFCURVE",
"356 948.456 OFFCURVE"
);
}
);
width = 1399;
},
{
layerId = "3A1433D5-008E-4B0B-A40A-C7A907BE4F87";
paths = (
{
closed = 1;
nodes = (
"36 609 CURVE SMOOTH",
"36 994 OFFCURVE",
"299 1269 OFFCURVE",
"691 1269 CURVE SMOOTH",
"1081 1269 OFFCURVE",
"1347 1086 OFFCURVE",
"1347 643 CURVE SMOOTH",
"1347 321 OFFCURVE",
"1147 89 OFFCURVE",
"929 16 CURVE",
"981 -104 OFFCURVE",
"1123 -164 OFFCURVE",
"1274 -200 CURVE",
"1253 -335 LINE",
"1178 -359 OFFCURVE",
"1098 -373 OFFCURVE",
"1022 -373 CURVE SMOOTH",
"815 -373 OFFCURVE",
"638 -272 OFFCURVE",
"660 -26 CURVE",
"643 -27 OFFCURVE",
"638 -27 OFFCURVE",
"621 -27 CURVE SMOOTH",
"244 -27 OFFCURVE",
"36 229 OFFCURVE"
);
},
{
closed = 1;
nodes = (
"431 681 CURVE SMOOTH",
"431 409.948 OFFCURVE",
"539 221.229 OFFCURVE",
"765 187 CURVE",
"907 263.466 OFFCURVE",
"937 403.655 OFFCURVE",
"937 593 CURVE SMOOTH",
"937 758.461 OFFCURVE",
"886 1064 OFFCURVE",
"633 1064 CURVE SMOOTH",
"487 1064 OFFCURVE",
"431 918.404 OFFCURVE"
);
}
);
width = 1384;
}
);
unicode = 0051;
},
{
glyphname = R;
lastChange = "2016-08-10 11:03:53 +0000";
layers = (
{
layerId = "AE2A7EE3-C661-4E21-B15C-7E7CBD4BEDE2";
paths = (
{
closed = 1;
nodes = (
"50 0 LINE",
"57 42 LINE",
"213 72 LINE",
"213 1153 LINE",
"53 1174 LINE",
"62 1210 LINE",
"211 1234 OFFCURVE",
"338 1253 OFFCURVE",
"487 1253 CURVE SMOOTH",
"726.8 1253 OFFCURVE",
"927 1138.28 OFFCURVE",
"927 910 CURVE SMOOTH",
"927 777.886 OFFCURVE",
"860.48 660 OFFCURVE",
"686 570 CURVE",
"686 569 LINE",
"849 323 LINE SMOOTH",
"984 119 OFFCURVE",
"1062.68 74 OFFCURVE",
"1135 50 CURVE SMOOTH",
"1183 34 LINE",
"1177 -3 LINE",
"1134 -18 OFFCURVE",
"1121 -18 OFFCURVE",
"1084 -18 CURVE SMOOTH",
"955.616 -18 OFFCURVE",
"878 60 OFFCURVE",
"773 238 CURVE SMOOTH",
"600 531 LINE",
"316 531 LINE",
"316 65 LINE",
"527 46 LINE",
"517 0 LINE"
);
},
{
closed = 1;
nodes = (
"316 587 LINE",
"613 587 LINE",
"729.413 624 OFFCURVE",
"817 751.444 OFFCURVE",
"817 883 CURVE SMOOTH",
"817 1097.03 OFFCURVE",
"669.47 1207 OFFCURVE",
"437 1207 CURVE SMOOTH",
"383 1207 OFFCURVE",
"316 1202 OFFCURVE",
"316 1202 CURVE"
);
}
);
width = 1164;
},
{
layerId = "95A1F7A7-251D-4D34-8987-F15869CF2847";
paths = (
{
closed = 1;
nodes = (
"46 0 LINE",
"55 58 LINE",
"217 96 LINE",
"217 1127 LINE",
"51 1153 LINE",
"61 1209 LINE",
"209 1233 OFFCURVE",
"353 1254 OFFCURVE",
"501 1254 CURVE SMOOTH",
"759 1254 OFFCURVE",
"952 1166 OFFCURVE",
"952 952 CURVE SMOOTH",
"952 820 OFFCURVE",
"870 690 OFFCURVE",
"671 605 CURVE",
"671 604 LINE",
"857 336 LINE SMOOTH",
"990 145 OFFCURVE",
"1039 94 OFFCURVE",
"1134 64 CURVE SMOOTH",
"1175 51 LINE",
"1164 -2 LINE",
"1121 -17 OFFCURVE",
"1095 -19 OFFCURVE",
"1058 -19 CURVE SMOOTH",
"921 -19 OFFCURVE",
"828 94 OFFCURVE",
"739 245 CURVE SMOOTH",
"558 554 LINE",
"364 554 LINE",
"364 96 LINE",
"564 64 LINE",
"554 0 LINE"
);
},
{
closed = 1;
nodes = (
"364 628 LINE",
"577 628 LINE",
"691 669 OFFCURVE",
"794 771 OFFCURVE",
"794 910 CURVE SMOOTH",
"794 1082 OFFCURVE",
"678 1189 OFFCURVE",
"485 1189 CURVE SMOOTH",
"423 1189 OFFCURVE",
"364 1184 OFFCURVE",
"364 1184 CURVE"
);
}
);
width = 1223;
},
{
layerId = "A90FD956-C3C8-4F9C-A3E6-D92726884721";
paths = (
{
closed = 1;
nodes = (
"50 0 LINE",
"61 74 LINE",
"228 121 LINE",
"228 1100 LINE",
"57 1130 LINE",
"67 1207 LINE",
"214 1230 OFFCURVE",
"375 1253 OFFCURVE",
"523 1253 CURVE SMOOTH",
"820 1253 OFFCURVE",
"1025 1176 OFFCURVE",
"1025 943 CURVE SMOOTH",
"1025 814 OFFCURVE",
"926 666 OFFCURVE",
"738 599 CURVE",
"738 598 LINE",
"918 349 LINE SMOOTH",
"1035 187 OFFCURVE",
"1087 114 OFFCURVE",
"1211 77 CURVE SMOOTH",
"1244 67 LINE",
"1229 -1 LINE",
"1186 -16 OFFCURVE",
"1146 -21 OFFCURVE",
"1109 -21 CURVE SMOOTH",
"950 -21 OFFCURVE",
"840 98 OFFCURVE",
"753 253 CURVE SMOOTH",
"594 537 LINE",
"420 537 LINE",
"420 126 LINE",
"608 83 LINE",
"598 0 LINE"
);
},
{
closed = 1;
nodes = (
"420 628 LINE",
"618 628 LINE",
"717 661 OFFCURVE",
"818 745 OFFCURVE",
"818 887 CURVE SMOOTH",
"818 1051 OFFCURVE",
"717 1169 OFFCURVE",
"540 1169 CURVE SMOOTH",
"470 1169 OFFCURVE",
"420 1164 OFFCURVE",
"420 1164 CURVE"
);
}
);
width = 1213;
},
{
layerId = "E2DFD151-CE6A-4BFD-8A7C-97074A3C806B";
paths = (
{
closed = 1;
nodes = (
"45 0 LINE",
"60 106 LINE",
"238 169 LINE",
"238 1048 LINE",
"57 1086 LINE",
"68 1205 LINE",
"214 1228 OFFCURVE",
"466 1254 OFFCURVE",
"614 1254 CURVE SMOOTH",
"953 1254 OFFCURVE",
"1158 1172 OFFCURVE",
"1158 926 CURVE SMOOTH",
"1158 770 OFFCURVE",
"1025 632 OFFCURVE",
"877 580 CURVE",
"1028 374 LINE SMOOTH",
"1128 238 OFFCURVE",
"1198 146 OFFCURVE",
"1334 110 CURVE SMOOTH",
"1370 100 LINE",
"1347 0 LINE",
"1304 -14 OFFCURVE",
"1248 -24 OFFCURVE",
"1178 -24 CURVE SMOOTH",
"976 -24 OFFCURVE",
"858 98 OFFCURVE",
"768 268 CURVE SMOOTH",
"644 498 LINE",
"520 498 LINE",
"520 178 LINE",
"685 119 LINE",
"674 0 LINE"
);
},
{
closed = 1;
nodes = (
"520 648 LINE",
"695 648 LINE",
"783 686 OFFCURVE",
"854 756 OFFCURVE",
"854 874 CURVE SMOOTH",
"854 1013 OFFCURVE",
"758 1122 OFFCURVE",
"596 1122 CURVE SMOOTH",
"556 1122 OFFCURVE",
"526 1119 OFFCURVE",
"520 1119 CURVE"
);
}
);
width = 1419;
},
{
layerId = "3A1433D5-008E-4B0B-A40A-C7A907BE4F87";
paths = (
{
closed = 1;
nodes = (
"34 0 LINE",
"53 138 LINE",
"243 217 LINE",
"243 996 LINE",
"51 1043 LINE",
"63 1203 LINE",
"205 1232 OFFCURVE",
"405 1255 OFFCURVE",
"670 1255 CURVE SMOOTH",
"1058 1255 OFFCURVE",
"1266 1167 OFFCURVE",
"1266 908 CURVE SMOOTH",
"1266 729 OFFCURVE",
"1156 623 OFFCURVE",
"1032 572 CURVE",
"1032 571 LINE",
"1135 420 LINE SMOOTH",
"1225 291.448 OFFCURVE",
"1326.77 215.154 OFFCURVE",
"1411 159 CURVE SMOOTH",
"1450 133 LINE",
"1419 2 LINE",
"1382.88 -16.149 OFFCURVE",
"1317.94 -26.279 OFFCURVE",
"1254.09 -26.279 CURVE SMOOTH",
"1000.56 -26.279 OFFCURVE",
"871.443 107.238 OFFCURVE",
"790 388 CURVE SMOOTH",
"767 469 LINE",
"613 469 LINE",
"613 209 LINE",
"766 155 LINE",
"754 0 LINE"
);
},
{
closed = 1;
nodes = (
"613 648 LINE",
"816 648 LINE",
"861 694 OFFCURVE",
"885 756 OFFCURVE",
"885 860 CURVE SMOOTH",
"885 974 OFFCURVE",
"792 1075 OFFCURVE",
"646 1075 CURVE SMOOTH",
"635 1075 OFFCURVE",
"624 1075 OFFCURVE",
"613 1074 CURVE"
);
}
);
width = 1485;
}
);
unicode = 0052;
},
{
color = 1;
glyphname = Rcaron;
lastChange = "2016-08-10 12:14:12 +0000";
layers = (
{
components = (
{
name = R;
}
);
layerId = "AE2A7EE3-C661-4E21-B15C-7E7CBD4BEDE2";
paths = (
{
closed = 1;
nodes = (
"395 1543 LINE",
"450 1592 LINE",
"616 1423 LINE",
"625 1423 LINE",
"768 1588 LINE",
"804 1561 LINE",
"630 1377 LINE",
"574 1363 LINE"
);
}
);
width = 1164;
},
{
components = (
{
name = R;
}
);
layerId = "95A1F7A7-251D-4D34-8987-F15869CF2847";
paths = (
{
closed = 1;
nodes = (
"381 1545 LINE",
"449 1600 LINE",
"606 1444 LINE",
"616 1444 LINE",
"748 1597 LINE",
"789 1568 LINE",
"616 1386 LINE",
"560 1372 LINE"
);
}
);
width = 1223;
},
{
layerId = "A90FD956-C3C8-4F9C-A3E6-D92726884721";
paths = (
{
closed = 1;
nodes = (
"50 0 LINE",
"61 74 LINE",
"228 121 LINE",
"228 1100 LINE",
"57 1130 LINE",
"67 1207 LINE",
"214 1230 OFFCURVE",
"375 1253 OFFCURVE",
"523 1253 CURVE SMOOTH",
"820 1253 OFFCURVE",
"1025 1176 OFFCURVE",
"1025 943 CURVE SMOOTH",
"1025 814 OFFCURVE",
"926 666 OFFCURVE",
"738 599 CURVE",
"738 598 LINE",
"918 349 LINE SMOOTH",
"1035 187 OFFCURVE",
"1087 114 OFFCURVE",
"1211 77 CURVE SMOOTH",
"1244 67 LINE",
"1229 -1 LINE",
"1186 -16 OFFCURVE",
"1146 -21 OFFCURVE",
"1109 -21 CURVE SMOOTH",
"950 -21 OFFCURVE",
"840 98 OFFCURVE",
"753 253 CURVE SMOOTH",
"594 537 LINE",
"420 537 LINE",
"420 126 LINE",
"608 83 LINE",
"598 0 LINE"
);
},
{
closed = 1;
nodes = (
"374 1527 LINE",
"454 1589 LINE",
"604 1445 LINE",
"614 1445 LINE",
"737 1585 LINE",
"781 1555 LINE",
"608 1376 LINE",
"553 1361 LINE"
);
},
{
closed = 1;
nodes = (
"420 628 LINE",
"618 628 LINE",
"717 661 OFFCURVE",
"818 745 OFFCURVE",
"818 887 CURVE SMOOTH",
"818 1051 OFFCURVE",
"717 1169 OFFCURVE",
"540 1169 CURVE SMOOTH",
"470 1169 OFFCURVE",
"420 1164 OFFCURVE",
"420 1164 CURVE"
);
}
);
width = 1213;
},
{
components = (
{
name = R;
}
);
layerId = "E2DFD151-CE6A-4BFD-8A7C-97074A3C806B";
paths = (
{
closed = 1;
nodes = (
"328 1543 LINE",
"533 1578 LINE",
"622 1493 LINE",
"632 1493 LINE",
"716 1574 LINE",
"859 1560 LINE",
"669 1344 LINE",
"522 1323 LINE"
);
}
);
width = 1419;
},
{
components = (
{
name = R;
}
);
layerId = "3A1433D5-008E-4B0B-A40A-C7A907BE4F87";
paths = (
{
closed = 1;
nodes = (
"417 1597 LINE",
"602 1634 LINE",
"715 1549 LINE",
"725 1549 LINE",
"821 1631 LINE",
"993 1602 LINE",
"783 1401 LINE",
"625 1391 LINE"
);
}
);
width = 1485;
}
);
unicode = 0158;
},
{
glyphname = S;
lastChange = "2016-08-10 11:03:53 +0000";
layers = (
{
layerId = "AE2A7EE3-C661-4E21-B15C-7E7CBD4BEDE2";
paths = (
{
closed = 1;
nodes = (
"41 76 CURVE",
"74 391 LINE",
"129 383 LINE",
"137 134 LINE",
"185.26 72.401 OFFCURVE",
"311.812 37 OFFCURVE",
"433 37 CURVE SMOOTH",
"572.5 37 OFFCURVE",
"703 113 OFFCURVE",
"703 262 CURVE SMOOTH",
"703 561 OFFCURVE",
"100 609 OFFCURVE",
"100 959 CURVE SMOOTH",
"100 1158 OFFCURVE",
"282.361 1271 OFFCURVE",
"452 1271 CURVE SMOOTH",
"562.219 1271 OFFCURVE",
"681.623 1248.72 OFFCURVE",
"750 1201 CURVE",
"729 871 LINE",
"673 878 LINE",
"656 1131 LINE",
"615.246 1179.48 OFFCURVE",
"508.83 1214 OFFCURVE",
"416 1214 CURVE SMOOTH",
"298.615 1214 OFFCURVE",
"198 1137 OFFCURVE",
"198 1006 CURVE SMOOTH",
"198 689 OFFCURVE",
"813 631 OFFCURVE",
"813 308 CURVE SMOOTH",
"813 119 OFFCURVE",
"647.507 -26 OFFCURVE",
"381 -26 CURVE SMOOTH",
"232.636 -26 OFFCURVE",
"106.939 19.253 OFFCURVE"
);
}
);
width = 838;
},
{
layerId = "95A1F7A7-251D-4D34-8987-F15869CF2847";
paths = (
{
closed = 1;
nodes = (
"48 119 CURVE",
"70 395 LINE",
"145 384 LINE",
"178 181 LINE",
"219 109 OFFCURVE",
"316 57 OFFCURVE",
"419 57 CURVE SMOOTH",
"534 57 OFFCURVE",
"658 126 OFFCURVE",
"658 274 CURVE SMOOTH",
"658 554 OFFCURVE",
"84 577 OFFCURVE",
"84 938 CURVE SMOOTH",
"84 1151 OFFCURVE",
"266 1270 OFFCURVE",
"445 1270 CURVE SMOOTH",
"553 1270 OFFCURVE",
"659 1235 OFFCURVE",
"732 1165 CURVE",
"732 1161 OFFCURVE",
"705 869 OFFCURVE",
"705 869 CURVE",
"632 878 LINE",
"606 1096 LINE",
"579 1147 OFFCURVE",
"496 1200 OFFCURVE",
"415 1200 CURVE SMOOTH",
"309 1200 OFFCURVE",
"220 1132 OFFCURVE",
"220 1001 CURVE SMOOTH",
"220 699 OFFCURVE",
"805 680 OFFCURVE",
"805 331 CURVE SMOOTH",
"805 122 OFFCURVE",
"619 -25 OFFCURVE",
"381 -25 CURVE SMOOTH",
"237 -25 OFFCURVE",
"112 40 OFFCURVE"
);
}
);
width = 850;
},
{
layerId = "A90FD956-C3C8-4F9C-A3E6-D92726884721";
paths = (
{
closed = 1;
nodes = (
"66 92 CURVE",
"79 379 LINE",
"181 365 LINE",
"220 177 LINE",
"256 125.182 OFFCURVE",
"333 77 OFFCURVE",
"426 77 CURVE SMOOTH",
"531 77 OFFCURVE",
"663 139 OFFCURVE",
"663 287 CURVE SMOOTH",
"663 547 OFFCURVE",
"90 544 OFFCURVE",
"90 916 CURVE SMOOTH",
"90 1143 OFFCURVE",
"282 1269 OFFCURVE",
"479 1269 CURVE SMOOTH",
"587 1269 OFFCURVE",
"682 1235 OFFCURVE",
"761 1169 CURVE",
"761 1161 OFFCURVE",
"739 887 OFFCURVE",
"739 887 CURVE",
"640 899 LINE",
"615 1090 LINE",
"597 1126 OFFCURVE",
"525 1185 OFFCURVE",
"445 1185 CURVE SMOOTH",
"345 1185 OFFCURVE",
"263 1126 OFFCURVE",
"263 995 CURVE SMOOTH",
"263 682.47 OFFCURVE",
"847 693 OFFCURVE",
"847 357 CURVE SMOOTH",
"847 125.175 OFFCURVE",
"630 -24 OFFCURVE",
"402 -24 CURVE SMOOTH",
"258 -24 OFFCURVE",
"130 29.233 OFFCURVE"
);
}
);
width = 863;
},
{
layerId = "E2DFD151-CE6A-4BFD-8A7C-97074A3C806B";
paths = (
{
closed = 1;
nodes = (
"51 124 CURVE",
"74 438 LINE",
"214 417 LINE",
"254 230 LINE",
"293 172 OFFCURVE",
"381 129 OFFCURVE",
"470 129 CURVE SMOOTH",
"562 129 OFFCURVE",
"652 184 OFFCURVE",
"652 284 CURVE SMOOTH",
"652 512 OFFCURVE",
"67 488 OFFCURVE",
"67 886 CURVE SMOOTH",
"67 1143 OFFCURVE",
"304 1268 OFFCURVE",
"532 1268 CURVE SMOOTH",
"640 1268 OFFCURVE",
"785 1230 OFFCURVE",
"850 1172 CURVE",
"850 1156 OFFCURVE",
"824 850 OFFCURVE",
"824 850 CURVE",
"688 872 LINE",
"656 1038 LINE",
"625 1088 OFFCURVE",
"543 1136 OFFCURVE",
"464 1136 CURVE SMOOTH",
"380 1136 OFFCURVE",
"320 1086 OFFCURVE",
"320 992 CURVE SMOOTH",
"320 751 OFFCURVE",
"941 768 OFFCURVE",
"941 368 CURVE SMOOTH",
"941 96 OFFCURVE",
"653 -24 OFFCURVE",
"445 -24 CURVE SMOOTH",
"258 -24 OFFCURVE",
"110 42 OFFCURVE"
);
}
);
width = 984;
},
{
layerId = "3A1433D5-008E-4B0B-A40A-C7A907BE4F87";
paths = (
{
closed = 1;
nodes = (
"34 66 CURVE",
"68 438 LINE",
"245 409 LINE",
"287 222 LINE",
"326 178 OFFCURVE",
"418 156 OFFCURVE",
"498 156 CURVE SMOOTH",
"586 156 OFFCURVE",
"661 213 OFFCURVE",
"661 271 CURVE SMOOTH",
"661 460 OFFCURVE",
"45 460 OFFCURVE",
"45 857 CURVE SMOOTH",
"45 1107 OFFCURVE",
"259 1266 OFFCURVE",
"532 1266 CURVE SMOOTH",
"642 1266 OFFCURVE",
"844 1230 OFFCURVE",
"896 1186 CURVE",
"896 1162 OFFCURVE",
"868 824 OFFCURVE",
"868 824 CURVE",
"695 854 LINE",
"656 1017 LINE",
"620 1072 OFFCURVE",
"531 1106 OFFCURVE",
"460 1106 CURVE SMOOTH",
"371 1106 OFFCURVE",
"325 1060 OFFCURVE",
"325 990 CURVE SMOOTH",
"325 814 OFFCURVE",
"973 773 OFFCURVE",
"973 391 CURVE SMOOTH",
"973 70 OFFCURVE",
"639 -23 OFFCURVE",
"466 -23 CURVE SMOOTH",
"246 -23 OFFCURVE",
"86 16 OFFCURVE"
);
}
);
width = 1008;
}
);
unicode = 0053;
},
{
color = 1;
glyphname = Scaron;
lastChange = "2016-08-10 12:14:12 +0000";
layers = (
{
components = (
{
name = S;
}
);
layerId = "AE2A7EE3-C661-4E21-B15C-7E7CBD4BEDE2";
paths = (
{
closed = 1;
nodes = (
"265 1540 LINE",
"320 1589 LINE",
"486 1420 LINE",
"495 1420 LINE",
"638 1585 LINE",
"674 1558 LINE",
"500 1374 LINE",
"444 1360 LINE"
);
}
);
width = 838;
},
{
components = (
{
name = S;
}
);
layerId = "95A1F7A7-251D-4D34-8987-F15869CF2847";
paths = (
{
closed = 1;
nodes = (
"273 1545 LINE",
"341 1600 LINE",
"498 1444 LINE",
"508 1444 LINE",
"640 1597 LINE",
"681 1568 LINE",
"508 1386 LINE",
"452 1372 LINE"
);
}
);
width = 850;
},
{
layerId = "A90FD956-C3C8-4F9C-A3E6-D92726884721";
paths = (
{
closed = 1;
nodes = (
"66 122 CURVE",
"79 389 LINE",
"181 375 LINE",
"220 187 LINE",
"256 130 OFFCURVE",
"333 77 OFFCURVE",
"426 77 CURVE SMOOTH",
"531 77 OFFCURVE",
"663 139 OFFCURVE",
"663 287 CURVE SMOOTH",
"663 547 OFFCURVE",
"90 544 OFFCURVE",
"90 916 CURVE SMOOTH",
"90 1143 OFFCURVE",
"282 1269 OFFCURVE",
"479 1269 CURVE SMOOTH",
"587 1269 OFFCURVE",
"682 1235 OFFCURVE",
"761 1169 CURVE",
"761 1161 OFFCURVE",
"739 887 OFFCURVE",
"739 887 CURVE",
"640 899 LINE",
"615 1090 LINE",
"597 1126 OFFCURVE",
"525 1185 OFFCURVE",
"445 1185 CURVE SMOOTH",
"345 1185 OFFCURVE",
"263 1126 OFFCURVE",
"263 995 CURVE SMOOTH",
"263 708 OFFCURVE",
"847 730 OFFCURVE",
"847 354 CURVE SMOOTH",
"847 124 OFFCURVE",
"630 -24 OFFCURVE",
"402 -24 CURVE SMOOTH",
"258 -24 OFFCURVE",
"130 43 OFFCURVE"
);
},
{
closed = 1;
nodes = (
"255 1526 LINE",
"335 1587 LINE",
"484 1443 LINE",
"494 1443 LINE",
"618 1584 LINE",
"661 1553 LINE",
"489 1373 LINE",
"434 1360 LINE"
);
}
);
width = 863;
},
{
components = (
{
name = S;
}
);
layerId = "E2DFD151-CE6A-4BFD-8A7C-97074A3C806B";
paths = (
{
closed = 1;
nodes = (
"248 1543 LINE",
"453 1578 LINE",
"542 1493 LINE",
"552 1493 LINE",
"636 1574 LINE",
"779 1560 LINE",
"589 1344 LINE",
"442 1323 LINE"
);
}
);
width = 984;
},
{
components = (
{
name = S;
}
);
layerId = "3A1433D5-008E-4B0B-A40A-C7A907BE4F87";
paths = (
{
closed = 1;
nodes = (
"219 1597 LINE",
"404 1634 LINE",
"517 1549 LINE",
"527 1549 LINE",
"623 1631 LINE",
"795 1602 LINE",
"585 1401 LINE",
"427 1391 LINE"
);
}
);
width = 1008;
}
);
unicode = 0160;
},
{
glyphname = Germandbls;
lastChange = "2016-08-10 11:03:53 +0000";
layers = (
{
layerId = "AE2A7EE3-C661-4E21-B15C-7E7CBD4BEDE2";
paths = (
{
closed = 1;
nodes = (
"50 0 LINE",
"55 42 LINE",
"225 72 LINE",
"225 763 LINE SMOOTH",
"225 1119 OFFCURVE",
"394 1271 OFFCURVE",
"693 1271 CURVE SMOOTH",
"883 1271 OFFCURVE",
"1130 1187 OFFCURVE",
"1130 1062 CURVE SMOOTH",
"1130 1008 OFFCURVE",
"1102 984 OFFCURVE",
"1047 966 CURVE",
"1026 1074 OFFCURVE",
"947 1194 OFFCURVE",
"811 1194 CURVE SMOOTH",
"726 1194 OFFCURVE",
"604 1118 OFFCURVE",
"604 964 CURVE SMOOTH",
"604 652 OFFCURVE",
"1189 614 OFFCURVE",
"1189 308 CURVE SMOOTH",
"1189 119 OFFCURVE",
"1034 -26 OFFCURVE",
"786 -26 CURVE SMOOTH",
"642 -26 OFFCURVE",
"522 37 OFFCURVE",
"458 116 CURVE",
"487 401 LINE",
"536 393 LINE",
"562 174 LINE",
"607 87 OFFCURVE",
"726 37 OFFCURVE",
"839 37 CURVE SMOOTH",
"963 37 OFFCURVE",
"1080 113 OFFCURVE",
"1080 262 CURVE SMOOTH",
"1080 545 OFFCURVE",
"506 588 OFFCURVE",
"506 918 CURVE SMOOTH",
"506 1034 OFFCURVE",
"575 1180 OFFCURVE",
"717 1213 CURVE",
"718 1218 LINE",
"698 1221 OFFCURVE",
"650 1221 OFFCURVE",
"630 1221 CURVE SMOOTH",
"430 1221 OFFCURVE",
"328 1043 OFFCURVE",
"328 786 CURVE SMOOTH",
"328 0 LINE"
);
}
);
width = 1244;
},
{
layerId = "95A1F7A7-251D-4D34-8987-F15869CF2847";
paths = (
{
closed = 1;
nodes = (
"46 0 LINE",
"53 57 LINE",
"220 96 LINE",
"220 758 LINE SMOOTH",
"220 1112 OFFCURVE",
"401 1261 OFFCURVE",
"699 1261 CURVE SMOOTH",
"887 1261 OFFCURVE",
"1158 1198 OFFCURVE",
"1158 1048 CURVE SMOOTH",
"1158 983 OFFCURVE",
"1122 954 OFFCURVE",
"1056 932 CURVE",
"1028 1038 OFFCURVE",
"970 1153 OFFCURVE",
"845 1153 CURVE SMOOTH",
"760 1153 OFFCURVE",
"655 1074 OFFCURVE",
"655 946 CURVE SMOOTH",
"655 645 OFFCURVE",
"1219 647 OFFCURVE",
"1219 312 CURVE SMOOTH",
"1219 105 OFFCURVE",
"1050 -25 OFFCURVE",
"814 -25 CURVE SMOOTH",
"671 -25 OFFCURVE",
"544 33 OFFCURVE",
"484 118 CURVE",
"505 388 LINE",
"577 377 LINE",
"608 179 LINE",
"648 107 OFFCURVE",
"749 57 OFFCURVE",
"852 57 CURVE SMOOTH",
"966 57 OFFCURVE",
"1073 112 OFFCURVE",
"1073 256 CURVE SMOOTH",
"1073 524 OFFCURVE",
"522 528 OFFCURVE",
"522 874 CURVE SMOOTH",
"522 1013 OFFCURVE",
"606 1151 OFFCURVE",
"747 1184 CURVE",
"749 1188 LINE",
"729 1190 OFFCURVE",
"681 1191 OFFCURVE",
"661 1191 CURVE SMOOTH",
"464 1191 OFFCURVE",
"366 1035 OFFCURVE",
"366 780 CURVE SMOOTH",
"366 0 LINE"
);
}
);
width = 1264;
},
{
layerId = "A90FD956-C3C8-4F9C-A3E6-D92726884721";
paths = (
{
closed = 1;
nodes = (
"26 0 LINE",
"34 73 LINE",
"198 119 LINE",
"198 751 LINE SMOOTH",
"198 1102 OFFCURVE",
"393 1250 OFFCURVE",
"689 1250 CURVE SMOOTH",
"874 1250 OFFCURVE",
"1169 1208 OFFCURVE",
"1169 1032 CURVE SMOOTH",
"1169 956 OFFCURVE",
"1127 923 OFFCURVE",
"1049 897 CURVE",
"1013 1001 OFFCURVE",
"976 1112 OFFCURVE",
"862 1112 CURVE SMOOTH",
"778 1112 OFFCURVE",
"691 1028 OFFCURVE",
"691 928 CURVE SMOOTH",
"691 637 OFFCURVE",
"1232 680 OFFCURVE",
"1232 316 CURVE SMOOTH",
"1232 90 OFFCURVE",
"1050 -24 OFFCURVE",
"826 -24 CURVE SMOOTH",
"684 -24 OFFCURVE",
"549 30 OFFCURVE",
"494 121 CURVE",
"507 376 LINE",
"602 361 LINE",
"637 184 LINE",
"673 127 OFFCURVE",
"757 76 OFFCURVE",
"849 76 CURVE SMOOTH",
"953 76 OFFCURVE",
"1050 110 OFFCURVE",
"1050 250 CURVE SMOOTH",
"1050 503 OFFCURVE",
"521 468 OFFCURVE",
"521 829 CURVE SMOOTH",
"521 992 OFFCURVE",
"621 1123 OFFCURVE",
"761 1155 CURVE",
"763 1158 LINE",
"744 1160 OFFCURVE",
"695 1161 OFFCURVE",
"676 1161 CURVE SMOOTH",
"481 1161 OFFCURVE",
"387 1027 OFFCURVE",
"387 774 CURVE SMOOTH",
"389 0 LINE"
);
}
);
width = 1283;
},
{
layerId = "E2DFD151-CE6A-4BFD-8A7C-97074A3C806B";
paths = (
{
closed = 1;
nodes = (
"43 0 LINE",
"54 104 LINE",
"212 166 LINE",
"212 740 LINE SMOOTH",
"212 1104 OFFCURVE",
"514 1259 OFFCURVE",
"842 1259 CURVE SMOOTH",
"1080 1259 OFFCURVE",
"1387 1198 OFFCURVE",
"1387 1015 CURVE SMOOTH",
"1387 921 OFFCURVE",
"1342 862 OFFCURVE",
"1244 828 CURVE",
"1166 973 OFFCURVE",
"1082 1071 OFFCURVE",
"986 1071 CURVE SMOOTH",
"921 1071 OFFCURVE",
"863 1010 OFFCURVE",
"863 934 CURVE SMOOTH",
"863 704 OFFCURVE",
"1442 728 OFFCURVE",
"1442 334 CURVE SMOOTH",
"1442 64 OFFCURVE",
"1172 -24 OFFCURVE",
"966 -24 CURVE SMOOTH",
"780 -24 OFFCURVE",
"628 36 OFFCURVE",
"574 124 CURVE",
"597 432 LINE",
"733 410 LINE",
"772 228 LINE",
"811 170 OFFCURVE",
"902 128 OFFCURVE",
"990 128 CURVE SMOOTH",
"1082 128 OFFCURVE",
"1154 154 OFFCURVE",
"1154 250 CURVE SMOOTH",
"1154 474 OFFCURVE",
"591 438 OFFCURVE",
"591 813 CURVE SMOOTH",
"591 969 OFFCURVE",
"698 1078 OFFCURVE",
"808 1102 CURVE",
"804 1109 LINE",
"786 1111 OFFCURVE",
"754 1112 OFFCURVE",
"738 1112 CURVE SMOOTH",
"558 1112 OFFCURVE",
"487 976 OFFCURVE",
"487 762 CURVE SMOOTH",
"488 0 LINE"
);
}
);
width = 1485;
},
{
layerId = "3A1433D5-008E-4B0B-A40A-C7A907BE4F87";
paths = (
{
closed = 1;
nodes = (
"42 0 LINE",
"55 136 LINE",
"209 212 LINE",
"209 728 LINE SMOOTH",
"209 1105 OFFCURVE",
"616 1268 OFFCURVE",
"976 1268 CURVE SMOOTH",
"1266 1268 OFFCURVE",
"1587 1188 OFFCURVE",
"1587 998 CURVE SMOOTH",
"1587 887 OFFCURVE",
"1540 801 OFFCURVE",
"1421 760 CURVE",
"1301 946 OFFCURVE",
"1170 1030 OFFCURVE",
"1091 1030 CURVE SMOOTH",
"1045 1030 OFFCURVE",
"1017 992 OFFCURVE",
"1017 940 CURVE SMOOTH",
"1017 771 OFFCURVE",
"1634 774 OFFCURVE",
"1634 351 CURVE SMOOTH",
"1634 38 OFFCURVE",
"1274 -23 OFFCURVE",
"1087 -23 CURVE SMOOTH",
"857 -23 OFFCURVE",
"689 42 OFFCURVE",
"635 126 CURVE",
"669 488 LINE",
"846 459 LINE",
"888 272 LINE",
"930 212 OFFCURVE",
"1029 181 OFFCURVE",
"1114 181 CURVE SMOOTH",
"1193 181 OFFCURVE",
"1240 198 OFFCURVE",
"1240 251 CURVE SMOOTH",
"1240 447 OFFCURVE",
"643 408 OFFCURVE",
"643 797 CURVE SMOOTH",
"643 946 OFFCURVE",
"755 1035 OFFCURVE",
"836 1050 CURVE",
"826 1060 LINE",
"810 1062 OFFCURVE",
"796 1063 OFFCURVE",
"782 1063 CURVE SMOOTH",
"618 1063 OFFCURVE",
"569 927 OFFCURVE",
"569 751 CURVE SMOOTH",
"569 0 LINE"
);
}
);
width = 1676;
}
);
unicode = 1E9E;
},
{
glyphname = T;
lastChange = "2016-08-10 11:03:53 +0000";
layers = (
{
layerId = "AE2A7EE3-C661-4E21-B15C-7E7CBD4BEDE2";
paths = (
{
closed = 1;
nodes = (
"49 1244 LINE",
"1082 1244 LINE",
"1047 912 LINE",
"997 918 LINE",
"980 1193 LINE",
"609 1193 LINE",
"609 73 LINE",
"786 46 LINE",
"775 0 LINE",
"322 0 LINE",
"327 42 LINE",
"502 72 LINE",
"502 1193 LINE",
"146 1193 LINE",
"111 914 LINE",
"59 922 LINE"
);
}
);
width = 1007;
},
{
layerId = "95A1F7A7-251D-4D34-8987-F15869CF2847";
paths = (
{
closed = 1;
nodes = (
"46 1244 LINE",
"1118 1244 LINE",
"1084 909 LINE",
"1011 920 LINE",
"984 1173 LINE",
"646 1173 LINE",
"646 94 LINE",
"827 63 LINE",
"815 0 LINE",
"318 0 LINE",
"324 58 LINE",
"496 96 LINE",
"496 1173 LINE",
"171 1173 LINE",
"126 912 LINE",
"55 923 LINE"
);
}
);
width = 1166;
},
{
layerId = "A90FD956-C3C8-4F9C-A3E6-D92726884721";
paths = (
{
closed = 1;
nodes = (
"23 1244 LINE",
"1134 1244 LINE",
"1100 906 LINE",
"1005 921 LINE",
"967 1152 LINE",
"662 1152 LINE",
"662 114 LINE",
"847 80 LINE",
"833 0 LINE",
"294 0 LINE",
"301 74 LINE",
"470 121 LINE",
"470 1152 LINE",
"175 1152 LINE",
"122 909 LINE",
"31 922 LINE"
);
}
);
width = 1119;
},
{
layerId = "E2DFD151-CE6A-4BFD-8A7C-97074A3C806B";
paths = (
{
closed = 1;
nodes = (
"47 1244 LINE",
"1234 1244 LINE",
"1201 851 LINE",
"1062 874 LINE",
"1011 1112 LINE",
"767 1112 LINE",
"767 161 LINE",
"960 116 LINE",
"945 0 LINE",
"307 0 LINE",
"317 107 LINE",
"490 165 LINE",
"490 1112 LINE",
"253 1112 LINE",
"183 848 LINE",
"52 867 LINE"
);
}
);
width = 1280;
},
{
layerId = "3A1433D5-008E-4B0B-A40A-C7A907BE4F87";
paths = (
{
closed = 1;
nodes = (
"37 1244 LINE",
"1261 1244 LINE",
"1229 786 LINE",
"1046 817 LINE",
"982 1072 LINE",
"818 1072 LINE",
"818 208 LINE",
"1030 153 LINE",
"1014 0 LINE",
"257 0 LINE",
"270 140 LINE",
"457 209 LINE",
"457 1072 LINE",
"297 1072 LINE",
"210 776 LINE",
"40 802 LINE"
);
}
);
width = 1297;
}
);
unicode = 0054;
},
{
glyphname = U;
lastChange = "2016-08-10 11:03:53 +0000";
layers = (
{
layerId = "AE2A7EE3-C661-4E21-B15C-7E7CBD4BEDE2";
paths = (
{
closed = 1;
nodes = (
"46 1205 LINE",
"50 1244 LINE",
"504 1244 LINE",
"500 1205 LINE",
"331 1182 LINE",
"331 485 LINE SMOOTH",
"331 147.616 OFFCURVE",
"491.172 42 OFFCURVE",
"723 42 CURVE SMOOTH",
"956.306 42 OFFCURVE",
"1093 164 OFFCURVE",
"1093 449 CURVE SMOOTH",
"1093 1180 LINE",
"907 1205 LINE",
"912 1244 LINE",
"1337 1244 LINE",
"1329 1205 LINE",
"1163 1182 LINE",
"1160 490 LINE SMOOTH",
"1158.5 144.007 OFFCURVE",
"1026 -27 OFFCURVE",
"690 -27 CURVE SMOOTH",
"446 -27 OFFCURVE",
"227 60 OFFCURVE",
"227 452 CURVE SMOOTH",
"227 1180 LINE"
);
}
);
width = 1357;
},
{
layerId = "95A1F7A7-251D-4D34-8987-F15869CF2847";
paths = (
{
closed = 1;
nodes = (
"43 1187 LINE",
"52 1244 LINE",
"550 1244 LINE",
"543 1187 LINE",
"374 1156 LINE",
"374 503 LINE SMOOTH",
"374 188 OFFCURVE",
"522 73 OFFCURVE",
"734 73 CURVE SMOOTH",
"948 73 OFFCURVE",
"1077 202 OFFCURVE",
"1077 466 CURVE SMOOTH",
"1078 1154 LINE",
"894 1187 LINE",
"902 1244 LINE",
"1353 1244 LINE",
"1344 1187 LINE",
"1178 1156 LINE",
"1173 503 LINE SMOOTH",
"1171 160 OFFCURVE",
"1035 -27 OFFCURVE",
"693 -27 CURVE SMOOTH",
"462 -27 OFFCURVE",
"226 61 OFFCURVE",
"226 465 CURVE SMOOTH",
"226 1154 LINE"
);
}
);
width = 1398;
},
{
layerId = "A90FD956-C3C8-4F9C-A3E6-D92726884721";
paths = (
{
closed = 1;
nodes = (
"22 1168 LINE",
"35 1244 LINE",
"577 1244 LINE",
"568 1168 LINE",
"399 1130 LINE",
"399 510 LINE SMOOTH",
"399 225 OFFCURVE",
"542 105 OFFCURVE",
"747 105 CURVE SMOOTH",
"949 105 OFFCURVE",
"1071 221 OFFCURVE",
"1072 482 CURVE SMOOTH",
"1075 1126 LINE",
"892 1168 LINE",
"902 1244 LINE",
"1380 1244 LINE",
"1369 1168 LINE",
"1203 1130 LINE",
"1198 515 LINE SMOOTH",
"1195 155 OFFCURVE",
"1044 -27 OFFCURVE",
"697 -27 CURVE SMOOTH",
"466 -27 OFFCURVE",
"206 48 OFFCURVE",
"206 469 CURVE SMOOTH",
"206 1126 LINE"
);
}
);
width = 1369;
},
{
layerId = "E2DFD151-CE6A-4BFD-8A7C-97074A3C806B";
paths = (
{
closed = 1;
nodes = (
"41 1131 LINE",
"62 1244 LINE",
"693 1244 LINE",
"678 1131 LINE",
"510 1078 LINE",
"510 526 LINE SMOOTH",
"510 273 OFFCURVE",
"642 169 OFFCURVE",
"832 169 CURVE SMOOTH",
"1010 169 OFFCURVE",
"1124 273 OFFCURVE",
"1124 510 CURVE SMOOTH",
"1125 1073 LINE",
"946 1131 LINE",
"960 1244 LINE",
"1492 1244 LINE",
"1478 1131 LINE",
"1312 1078 LINE",
"1308 540 LINE SMOOTH",
"1304 155 OFFCURVE",
"1126 -27 OFFCURVE",
"767 -27 CURVE SMOOTH",
"535 -27 OFFCURVE",
"228 21 OFFCURVE",
"228 476 CURVE SMOOTH",
"228 1073 LINE"
);
}
);
width = 1535;
},
{
layerId = "3A1433D5-008E-4B0B-A40A-C7A907BE4F87";
paths = (
{
closed = 1;
nodes = (
"34 1094 LINE",
"63 1244 LINE",
"783 1244 LINE",
"761 1094 LINE",
"596 1027 LINE",
"596 501 LINE SMOOTH",
"596 280 OFFCURVE",
"705 193 OFFCURVE",
"862 193 CURVE SMOOTH",
"1003 193 OFFCURVE",
"1099 281 OFFCURVE",
"1099 487 CURVE SMOOTH",
"1099 1020 LINE",
"923 1094 LINE",
"943 1244 LINE",
"1528 1244 LINE",
"1511 1094 LINE",
"1346 1027 LINE",
"1342 555 LINE SMOOTH",
"1338 152 OFFCURVE",
"1143 -27 OFFCURVE",
"791 -27 CURVE SMOOTH",
"567 -27 OFFCURVE",
"224 -5 OFFCURVE",
"224 474 CURVE SMOOTH",
"224 1020 LINE"
);
}
);
width = 1563;
}
);
unicode = 0055;
},
{
color = 1;
glyphname = Ucircumflex;
lastChange = "2016-08-10 12:14:12 +0000";
layers = (
{
components = (
{
name = U;
},
{
name = circumflex;
transform = "{1, 0, 0, 1, 407, 6}";
}
);
layerId = "AE2A7EE3-C661-4E21-B15C-7E7CBD4BEDE2";
width = 1357;
},
{
components = (
{
name = circumflex;
transform = "{1, 0, 0, 1, 440, 4}";
},
{
name = U;
}
);
layerId = "95A1F7A7-251D-4D34-8987-F15869CF2847";
width = 1398;
},
{
layerId = "A90FD956-C3C8-4F9C-A3E6-D92726884721";
paths = (
{
closed = 1;
nodes = (
"22 1168 LINE",
"35 1244 LINE",
"577 1244 LINE",
"568 1168 LINE",
"399 1130 LINE",
"399 510 LINE SMOOTH",
"399 225 OFFCURVE",
"542 105 OFFCURVE",
"747 105 CURVE SMOOTH",
"949 105 OFFCURVE",
"1071 221 OFFCURVE",
"1072 482 CURVE SMOOTH",
"1075 1126 LINE",
"892 1168 LINE",
"902 1244 LINE",
"1380 1244 LINE",
"1369 1168 LINE",
"1203 1130 LINE",
"1198 515 LINE SMOOTH",
"1195 155 OFFCURVE",
"1044 -27 OFFCURVE",
"697 -27 CURVE SMOOTH",
"466 -27 OFFCURVE",
"206 48 OFFCURVE",
"206 469 CURVE SMOOTH",
"206 1126 LINE"
);
},
{
closed = 1;
nodes = (
"537 1392 LINE",
"704 1572 LINE",
"759 1585 LINE",
"937 1400 LINE",
"887 1364 LINE",
"724 1472 LINE",
"713 1472 LINE",
"574 1361 LINE"
);
}
);
width = 1369;
},
{
components = (
{
name = circumflex;
transform = "{1, 0, 0, 1, 496, 36}";
},
{
name = U;
}
);
layerId = "E2DFD151-CE6A-4BFD-8A7C-97074A3C806B";
width = 1535;
},
{
components = (
{
name = circumflex;
transform = "{1, 0, 0, 1, 506, -4}";
},
{
name = U;
}
);
layerId = "3A1433D5-008E-4B0B-A40A-C7A907BE4F87";
width = 1563;
}
);
unicode = 00DB;
},
{
color = 1;
glyphname = Udieresis;
lastChange = "2016-08-10 12:14:12 +0000";
layers = (
{
components = (
{
name = U;
},
{
name = dieresis;
transform = "{1, 0, 0, 1, 405, -11}";
}
);
layerId = "AE2A7EE3-C661-4E21-B15C-7E7CBD4BEDE2";
width = 1357;
},
{
components = (
{
name = dieresis;
transform = "{1, 0, 0, 1, 426, -16}";
},
{
name = U;
}
);
layerId = "95A1F7A7-251D-4D34-8987-F15869CF2847";
width = 1398;
},
{
layerId = "A90FD956-C3C8-4F9C-A3E6-D92726884721";
paths = (
{
closed = 1;
nodes = (
"22 1168 LINE",
"35 1244 LINE",
"577 1244 LINE",
"568 1168 LINE",
"399 1130 LINE",
"399 510 LINE SMOOTH",
"399 225 OFFCURVE",
"542 105 OFFCURVE",
"747 105 CURVE SMOOTH",
"949 105 OFFCURVE",
"1071 221 OFFCURVE",
"1072 482 CURVE SMOOTH",
"1075 1126 LINE",
"892 1168 LINE",
"902 1244 LINE",
"1380 1244 LINE",
"1369 1168 LINE",
"1203 1130 LINE",
"1198 515 LINE SMOOTH",
"1195 155 OFFCURVE",
"1044 -27 OFFCURVE",
"697 -27 CURVE SMOOTH",
"466 -27 OFFCURVE",
"206 48 OFFCURVE",
"206 469 CURVE SMOOTH",
"206 1126 LINE"
);
},
{
closed = 1;
nodes = (
"515 1453 CURVE SMOOTH",
"515 1500 OFFCURVE",
"558 1530 OFFCURVE",
"598 1530 CURVE SMOOTH",
"642 1530 OFFCURVE",
"684 1499 OFFCURVE",
"684 1453 CURVE SMOOTH",
"684 1404 OFFCURVE",
"642 1373 OFFCURVE",
"598 1373 CURVE SMOOTH",
"555 1373 OFFCURVE",
"515 1404 OFFCURVE"
);
},
{
closed = 1;
nodes = (
"782 1453 CURVE SMOOTH",
"782 1500 OFFCURVE",
"826 1530 OFFCURVE",
"866 1530 CURVE SMOOTH",
"910 1530 OFFCURVE",
"953 1499 OFFCURVE",
"953 1453 CURVE SMOOTH",
"953 1404 OFFCURVE",
"910 1373 OFFCURVE",
"866 1373 CURVE SMOOTH",
"823 1373 OFFCURVE",
"782 1404 OFFCURVE"
);
}
);
width = 1369;
},
{
components = (
{
name = dieresis;
transform = "{1, 0, 0, 1, 458, 36}";
},
{
name = U;
}
);
layerId = "E2DFD151-CE6A-4BFD-8A7C-97074A3C806B";
width = 1535;
},
{
components = (
{
name = dieresis;
transform = "{1, 0, 0, 1, 447, -47}";
},
{
name = U;
}
);
layerId = "3A1433D5-008E-4B0B-A40A-C7A907BE4F87";
width = 1563;
}
);
unicode = 00DC;
},
{
glyphname = V;
lastChange = "2016-08-10 11:03:53 +0000";
layers = (
{
layerId = "AE2A7EE3-C661-4E21-B15C-7E7CBD4BEDE2";
paths = (
{
closed = 1;
nodes = (
"37 1208 LINE",
"41 1244 LINE",
"465 1244 LINE",
"461 1208 LINE",
"293 1182 LINE",
"649 160 LINE",
"1036 1178 LINE",
"850 1208 LINE",
"853 1244 LINE",
"1243 1244 LINE",
"1239 1208 LINE",
"1110 1182 LINE",
"659 -11 LINE",
"608 -26 LINE",
"184 1178 LINE"
);
}
);
width = 1285;
},
{
layerId = "95A1F7A7-251D-4D34-8987-F15869CF2847";
paths = (
{
closed = 1;
nodes = (
"44 1188 LINE",
"51 1244 LINE",
"533 1244 LINE",
"526 1188 LINE",
"357 1156 LINE",
"687 206 LINE",
"1035 1152 LINE",
"850 1188 LINE",
"856 1244 LINE",
"1278 1244 LINE",
"1273 1188 LINE",
"1143 1156 LINE",
"709 -4 LINE",
"607 -25 LINE",
"191 1152 LINE"
);
}
);
width = 1325;
},
{
layerId = "A90FD956-C3C8-4F9C-A3E6-D92726884721";
paths = (
{
closed = 1;
nodes = (
"-21 1168 LINE",
"-11 1244 LINE",
"527 1244 LINE",
"517 1168 LINE",
"347 1130 LINE",
"660 251 LINE",
"980 1126 LINE",
"798 1168 LINE",
"805 1244 LINE",
"1260 1244 LINE",
"1253 1168 LINE",
"1121 1130 LINE",
"696 4 LINE",
"544 -24 LINE",
"126 1126 LINE"
);
}
);
width = 1284;
},
{
layerId = "E2DFD151-CE6A-4BFD-8A7C-97074A3C806B";
paths = (
{
closed = 1;
nodes = (
"43 1128 LINE",
"57 1244 LINE",
"705 1244 LINE",
"688 1128 LINE",
"522 1078 LINE",
"796 336 LINE",
"1065 1076 LINE",
"887 1128 LINE",
"898 1244 LINE",
"1418 1244 LINE",
"1407 1128 LINE",
"1274 1078 LINE",
"865 20 LINE",
"612 -24 LINE",
"189 1076 LINE"
);
}
);
width = 1463;
},
{
layerId = "3A1433D5-008E-4B0B-A40A-C7A907BE4F87";
paths = (
{
closed = 1;
nodes = (
"34 1087 LINE",
"54 1244 LINE",
"790 1244 LINE",
"767 1087 LINE",
"615 1027 LINE",
"850 391 LINE",
"1078 1025 LINE",
"924 1087 LINE",
"939 1244 LINE",
"1504 1244 LINE",
"1489 1087 LINE",
"1355 1027 LINE",
"931 25 LINE",
"578 -33 LINE",
"179 1025 LINE"
);
}
);
width = 1539;
}
);
unicode = 0056;
},
{
glyphname = W;
lastChange = "2016-08-10 11:03:53 +0000";
layers = (
{
layerId = "AE2A7EE3-C661-4E21-B15C-7E7CBD4BEDE2";
paths = (
{
closed = 1;
nodes = (
"16 1207 LINE",
"23 1244 LINE",
"416 1244 LINE",
"413 1212 LINE",
"248 1182 LINE",
"564 178 LINE",
"873 1202 LINE",
"919 1208 LINE",
"1222 178 LINE",
"1566 1175 LINE",
"1379 1210 LINE",
"1384 1244 LINE",
"1767 1244 LINE",
"1764 1208 LINE",
"1646 1178 LINE",
"1232 -13 LINE",
"1167 -26 LINE",
"879 990 LINE",
"574 -13 LINE",
"503 -25 LINE",
"138 1178 LINE"
);
}
);
width = 1769;
},
{
layerId = "95A1F7A7-251D-4D34-8987-F15869CF2847";
paths = (
{
closed = 1;
nodes = (
"44 1188 LINE",
"52 1244 LINE",
"506 1244 LINE",
"497 1190 LINE",
"331 1156 LINE",
"595 225 LINE",
"885 1199 LINE",
"996 1214 LINE",
"1262 233 LINE",
"1554 1151 LINE",
"1370 1189 LINE",
"1378 1244 LINE",
"1795 1244 LINE",
"1787 1188 LINE",
"1667 1154 LINE",
"1287 -4 LINE",
"1178 -25 LINE",
"913 971 LINE",
"623 -4 LINE",
"506 -24 LINE",
"175 1153 LINE"
);
}
);
width = 1841;
},
{
layerId = "A90FD956-C3C8-4F9C-A3E6-D92726884721";
paths = (
{
closed = 1;
nodes = (
"-11 1168 LINE",
"-2 1244 LINE",
"512 1244 LINE",
"497 1168 LINE",
"330 1130 LINE",
"572 271 LINE",
"853 1194 LINE",
"1029 1219 LINE",
"1277 287 LINE",
"1538 1126 LINE",
"1357 1168 LINE",
"1368 1244 LINE",
"1817 1244 LINE",
"1806 1168 LINE",
"1683 1130 LINE",
"1318 4 LINE",
"1164 -24 LINE",
"902 951 LINE",
"617 4 LINE",
"454 -24 LINE",
"129 1126 LINE"
);
}
);
width = 1844;
},
{
layerId = "E2DFD151-CE6A-4BFD-8A7C-97074A3C806B";
paths = (
{
closed = 1;
nodes = (
"43 1128 LINE",
"53 1244 LINE",
"688 1244 LINE",
"663 1124 LINE",
"503 1078 LINE",
"701 378 LINE",
"929 1197 LINE",
"1186 1230 LINE",
"1413 394 LINE",
"1620 1078 LINE",
"1446 1126 LINE",
"1462 1244 LINE",
"1976 1244 LINE",
"1958 1128 LINE",
"1831 1082 LINE",
"1481 21 LINE",
"1237 -24 LINE",
"1003 836 LINE",
"771 21 LINE",
"517 -24 LINE",
"201 1074 LINE"
);
}
);
width = 2019;
},
{
layerId = "3A1433D5-008E-4B0B-A40A-C7A907BE4F87";
paths = (
{
closed = 1;
nodes = (
"34 1089 LINE",
"45 1244 LINE",
"800 1244 LINE",
"764 1081 LINE",
"611 1027 LINE",
"765 486 LINE",
"940 1200 LINE",
"1279 1240 LINE",
"1485 502 LINE",
"1638 1030 LINE",
"1471 1084 LINE",
"1492 1244 LINE",
"2071 1244 LINE",
"2046 1087 LINE",
"1914 1033 LINE",
"1579 28 LINE",
"1246 -33 LINE",
"1039 721 LINE",
"861 28 LINE",
"515 -34 LINE",
"210 1023 LINE"
);
}
);
width = 2106;
}
);
unicode = 0057;
},
{
glyphname = X;
lastChange = "2016-08-10 11:03:53 +0000";
layers = (
{
layerId = "AE2A7EE3-C661-4E21-B15C-7E7CBD4BEDE2";
paths = (
{
closed = 1;
nodes = (
"50 0 LINE",
"56 36 LINE",
"180 64 LINE",
"593 630 LINE",
"207 1184 LINE",
"71 1212 LINE",
"75 1244 LINE",
"495 1244 LINE",
"490 1212 LINE",
"334 1182 LINE",
"667 699 LINE",
"1023 1184 LINE",
"851 1207 LINE",
"856 1244 LINE",
"1224 1244 LINE",
"1224 1208 LINE",
"1098 1187 LINE",
"703 653 LINE",
"1116 53 LINE",
"1243 36 LINE",
"1236 0 LINE",
"821 0 LINE",
"825 27 LINE",
"988 60 LINE",
"634 576 LINE",
"259 60 LINE",
"424 42 LINE",
"416 0 LINE"
);
}
);
width = 1305;
},
{
layerId = "95A1F7A7-251D-4D34-8987-F15869CF2847";
paths = (
{
closed = 1;
nodes = (
"46 0 LINE",
"55 56 LINE",
"181 92 LINE",
"572 620 LINE",
"208 1154 LINE",
"71 1189 LINE",
"79 1244 LINE",
"545 1244 LINE",
"538 1189 LINE",
"382 1152 LINE",
"671 727 LINE",
"985 1155 LINE",
"814 1187 LINE",
"823 1244 LINE",
"1225 1244 LINE",
"1221 1188 LINE",
"1095 1159 LINE",
"727 654 LINE",
"1105 84 LINE",
"1241 58 LINE",
"1231 0 LINE",
"766 0 LINE",
"775 51 LINE",
"937 90 LINE",
"628 550 LINE",
"295 89 LINE",
"461 62 LINE",
"449 0 LINE"
);
}
);
width = 1294;
},
{
layerId = "A90FD956-C3C8-4F9C-A3E6-D92726884721";
paths = (
{
closed = 1;
nodes = (
"-1 0 LINE",
"11 76 LINE",
"138 121 LINE",
"504 615 LINE",
"165 1123 LINE",
"28 1166 LINE",
"40 1244 LINE",
"553 1244 LINE",
"543 1166 LINE",
"386 1121 LINE",
"633 750 LINE",
"904 1126 LINE",
"734 1166 LINE",
"747 1244 LINE",
"1182 1244 LINE",
"1174 1168 LINE",
"1047 1130 LINE",
"709 657 LINE",
"1050 114 LINE",
"1185 80 LINE",
"1172 0 LINE",
"669 0 LINE",
"682 74 LINE",
"842 121 LINE",
"580 529 LINE",
"288 117 LINE",
"454 83 LINE",
"439 0 LINE"
);
}
);
width = 1202;
},
{
layerId = "E2DFD151-CE6A-4BFD-8A7C-97074A3C806B";
paths = (
{
closed = 1;
nodes = (
"46 0 LINE",
"64 116 LINE",
"192 177 LINE",
"538 602 LINE",
"198 1068 LINE",
"66 1116 LINE",
"86 1244 LINE",
"666 1244 LINE",
"647 1121 LINE",
"523 1066 LINE",
"727 769 LINE",
"942 1070 LINE",
"800 1125 LINE",
"820 1244 LINE",
"1291 1244 LINE",
"1275 1128 LINE",
"1146 1072 LINE",
"825 650 LINE",
"1192 170 LINE",
"1310 130 LINE",
"1291 0 LINE",
"718 0 LINE",
"738 120 LINE",
"864 176 LINE",
"641 486 LINE",
"414 174 LINE",
"568 125 LINE",
"546 0 LINE"
);
}
);
width = 1363;
},
{
layerId = "3A1433D5-008E-4B0B-A40A-C7A907BE4F87";
paths = (
{
closed = 1;
nodes = (
"34 0 LINE",
"59 157 LINE",
"188 233 LINE",
"514 591 LINE",
"173 1012 LINE",
"47 1066 LINE",
"75 1244 LINE",
"720 1244 LINE",
"693 1076 LINE",
"602 1010 LINE",
"782 790 LINE",
"921 1014 LINE",
"807 1084 LINE",
"834 1244 LINE",
"1342 1244 LINE",
"1318 1087 LINE",
"1188 1015 LINE",
"903 645 LINE",
"1275 225 LINE",
"1378 179 LINE",
"1352 0 LINE",
"708 0 LINE",
"737 166 LINE",
"827 231 LINE",
"653 436 LINE",
"482 232 LINE",
"625 167 LINE",
"594 0 LINE"
);
}
);
width = 1413;
}
);
unicode = 0058;
},
{
glyphname = Y;
lastChange = "2016-08-10 11:03:53 +0000";
layers = (
{
layerId = "AE2A7EE3-C661-4E21-B15C-7E7CBD4BEDE2";
paths = (
{
closed = 1;
nodes = (
"48 1207 LINE",
"52 1243 LINE",
"469 1243 LINE",
"465 1207 LINE",
"299 1181 LINE",
"612 571 LINE",
"922 1178 LINE",
"737 1208 LINE",
"739 1244 LINE",
"1129 1244 LINE",
"1126 1208 LINE",
"997 1182 LINE",
"648 489 LINE",
"648 67 LINE",
"829 46 LINE",
"821 0 LINE",
"361 0 LINE",
"367 42 LINE",
"542 72 LINE",
"542 489 LINE",
"187 1177 LINE"
);
}
);
width = 1182;
},
{
layerId = "95A1F7A7-251D-4D34-8987-F15869CF2847";
paths = (
{
closed = 1;
nodes = (
"44 1188 LINE",
"53 1244 LINE",
"516 1244 LINE",
"508 1188 LINE",
"345 1156 LINE",
"641 605 LINE",
"928 1152 LINE",
"744 1188 LINE",
"750 1244 LINE",
"1167 1244 LINE",
"1161 1188 LINE",
"1034 1156 LINE",
"687 509 LINE",
"687 91 LINE",
"859 63 LINE",
"850 0 LINE",
"367 0 LINE",
"375 58 LINE",
"537 96 LINE",
"537 497 LINE",
"183 1152 LINE"
);
}
);
width = 1214;
},
{
layerId = "A90FD956-C3C8-4F9C-A3E6-D92726884721";
paths = (
{
closed = 1;
nodes = (
"-21 1168 LINE",
"-8 1244 LINE",
"500 1244 LINE",
"488 1168 LINE",
"330 1130 LINE",
"607 640 LINE",
"871 1126 LINE",
"688 1168 LINE",
"698 1244 LINE",
"1143 1244 LINE",
"1133 1168 LINE",
"1008 1130 LINE",
"663 529 LINE",
"663 114 LINE",
"826 80 LINE",
"816 0 LINE",
"310 0 LINE",
"320 74 LINE",
"470 121 LINE",
"470 504 LINE",
"117 1126 LINE"
);
}
);
width = 1210;
},
{
layerId = "E2DFD151-CE6A-4BFD-8A7C-97074A3C806B";
paths = (
{
closed = 1;
nodes = (
"41 1128 LINE",
"63 1244 LINE",
"647 1244 LINE",
"627 1128 LINE",
"511 1079 LINE",
"724 690 LINE",
"931 1076 LINE",
"791 1128 LINE",
"807 1244 LINE",
"1267 1244 LINE",
"1249 1128 LINE",
"1130 1078 LINE",
"799 514 LINE",
"799 168 LINE",
"965 110 LINE",
"953 0 LINE",
"349 0 LINE",
"363 106 LINE",
"517 169 LINE",
"517 494 LINE",
"177 1076 LINE"
);
}
);
width = 1310;
},
{
layerId = "3A1433D5-008E-4B0B-A40A-C7A907BE4F87";
paths = (
{
closed = 1;
nodes = (
"34 1089 LINE",
"66 1245 LINE",
"727 1245 LINE",
"699 1089 LINE",
"624 1028 LINE",
"773 739 LINE",
"924 1025 LINE",
"825 1087 LINE",
"849 1244 LINE",
"1322 1244 LINE",
"1298 1087 LINE",
"1184 1027 LINE",
"868 498 LINE",
"868 221 LINE",
"1035 140 LINE",
"1022 0 LINE",
"320 0 LINE",
"338 138 LINE",
"497 217 LINE",
"497 485 LINE",
"168 1027 LINE"
);
}
);
width = 1357;
}
);
unicode = 0059;
},
{
glyphname = Z;
lastChange = "2016-08-10 11:03:53 +0000";
layers = (
{
layerId = "AE2A7EE3-C661-4E21-B15C-7E7CBD4BEDE2";
paths = (
{
closed = 1;
nodes = (
"51 37 LINE",
"853 1189 LINE",
"197 1189 LINE",
"139 903 LINE",
"99 914 LINE",
"98 1244 LINE",
"984 1244 LINE",
"989 1207 LINE",
"184 58 LINE",
"871 58 LINE",
"957 342 LINE",
"1001 335 LINE",
"971 0 LINE",
"56 0 LINE"
);
}
);
width = 1057;
},
{
layerId = "95A1F7A7-251D-4D34-8987-F15869CF2847";
paths = (
{
closed = 1;
nodes = (
"49 71 LINE",
"823 1170 LINE",
"236 1170 LINE",
"158 903 LINE",
"94 918 LINE",
"103 1244 LINE",
"1006 1244 LINE",
"1008 1188 LINE",
"223 79 LINE",
"841 79 LINE",
"956 347 LINE",
"1025 336 LINE",
"977 0 LINE",
"56 0 LINE"
);
}
);
width = 1070;
},
{
layerId = "A90FD956-C3C8-4F9C-A3E6-D92726884721";
paths = (
{
closed = 1;
nodes = (
"47 104 LINE",
"792 1149 LINE",
"255 1149 LINE",
"178 903 LINE",
"88 921 LINE",
"98 1244 LINE",
"1026 1244 LINE",
"1026 1168 LINE",
"262 100 LINE",
"832 100 LINE",
"955 351 LINE",
"1048 335 LINE",
"991 0 LINE",
"55 0 LINE"
);
}
);
width = 1009;
},
{
layerId = "E2DFD151-CE6A-4BFD-8A7C-97074A3C806B";
paths = (
{
closed = 1;
nodes = (
"53 170 LINE",
"741 1109 LINE",
"302 1109 LINE",
"232 858 LINE",
"87 882 LINE",
"97 1244 LINE",
"1077 1244 LINE",
"1073 1128 LINE",
"349 153 LINE",
"813 138 LINE",
"967 404 LINE",
"1089 384 LINE",
"1030 0 LINE",
"63 0 LINE"
);
}
);
width = 1136;
},
{
layerId = "3A1433D5-008E-4B0B-A40A-C7A907BE4F87";
paths = (
{
closed = 1;
nodes = (
"34 236 LINE",
"665 1069 LINE",
"325 1069 LINE",
"262 812 LINE",
"62 844 LINE",
"73 1244 LINE",
"1104 1244 LINE",
"1096 1089 LINE",
"411 206 LINE",
"769 176 LINE",
"956 457 LINE",
"1106 434 LINE",
"1045 0 LINE",
"47 0 LINE"
);
}
);
width = 1142;
}
);
unicode = 005A;
},
{
color = 1;
glyphname = Zcaron;
lastChange = "2016-08-10 12:14:12 +0000";
layers = (
{
components = (
{
name = Z;
}
);
layerId = "AE2A7EE3-C661-4E21-B15C-7E7CBD4BEDE2";
paths = (
{
closed = 1;
nodes = (
"318 1543 LINE",
"373 1592 LINE",
"539 1423 LINE",
"548 1423 LINE",
"691 1588 LINE",
"727 1561 LINE",
"553 1377 LINE",
"497 1363 LINE"
);
}
);
width = 1057;
},
{
components = (
{
name = Z;
}
);
layerId = "95A1F7A7-251D-4D34-8987-F15869CF2847";
paths = (
{
closed = 1;
nodes = (
"347 1545 LINE",
"415 1600 LINE",
"572 1444 LINE",
"582 1444 LINE",
"714 1597 LINE",
"755 1568 LINE",
"582 1386 LINE",
"526 1372 LINE"
);
}
);
width = 1070;
},
{
layerId = "A90FD956-C3C8-4F9C-A3E6-D92726884721";
paths = (
{
closed = 1;
nodes = (
"47 104 LINE",
"792 1149 LINE",
"255 1149 LINE",
"178 903 LINE",
"88 921 LINE",
"98 1244 LINE",
"1026 1244 LINE",
"1026 1168 LINE",
"262 100 LINE",
"832 100 LINE",
"955 351 LINE",
"1048 335 LINE",
"991 0 LINE",
"55 0 LINE"
);
},
{
closed = 1;
nodes = (
"341 1527 LINE",
"423 1589 LINE",
"571 1445 LINE",
"581 1445 LINE",
"704 1585 LINE",
"748 1555 LINE",
"575 1376 LINE",
"520 1361 LINE"
);
}
);
width = 1009;
},
{
components = (
{
name = Z;
}
);
layerId = "E2DFD151-CE6A-4BFD-8A7C-97074A3C806B";
paths = (
{
closed = 1;
nodes = (
"292 1543 LINE",
"497 1578 LINE",
"586 1493 LINE",
"596 1493 LINE",
"680 1574 LINE",
"823 1560 LINE",
"633 1344 LINE",
"486 1323 LINE"
);
}
);
width = 1136;
},
{
components = (
{
name = Z;
}
);
layerId = "3A1433D5-008E-4B0B-A40A-C7A907BE4F87";
paths = (
{
closed = 1;
nodes = (
"335.5 1597 LINE",
"520.5 1634 LINE",
"633.5 1549 LINE",
"643.5 1549 LINE",
"739.5 1631 LINE",
"911.5 1602 LINE",
"701.5 1401 LINE",
"543.5 1391 LINE"
);
}
);
width = 1142;
}
);
unicode = 017D;
},
{
glyphname = Germandbls.alt;
lastChange = "2016-09-14 15:00:12 +0000";
layers = (
{
layerId = "AE2A7EE3-C661-4E21-B15C-7E7CBD4BEDE2";
paths = (
{
closed = 1;
nodes = (
"44 0 LINE",
"49 42 LINE",
"219 72 LINE",
"219 763 LINE SMOOTH",
"219 1119 OFFCURVE",
"388 1271 OFFCURVE",
"687 1271 CURVE SMOOTH",
"853 1271 OFFCURVE",
"1022 1253 OFFCURVE",
"1082 1233 CURVE",
"1082 1202 LINE",
"735 736 LINE",
"873 651 OFFCURVE",
"1183 528 OFFCURVE",
"1183 308 CURVE SMOOTH",
"1183 119 OFFCURVE",
"1028 -26 OFFCURVE",
"780 -26 CURVE SMOOTH",
"636 -26 OFFCURVE",
"516 37 OFFCURVE",
"452 116 CURVE",
"481 401 LINE",
"530 393 LINE",
"556 174 LINE",
"601 87 OFFCURVE",
"720 37 OFFCURVE",
"833 37 CURVE SMOOTH",
"957 37 OFFCURVE",
"1074 113 OFFCURVE",
"1074 262 CURVE SMOOTH",
"1074 459 OFFCURVE",
"787 576 OFFCURVE",
"627 680 CURVE",
"606 721 LINE",
"945 1171 LINE",
"945 1174 LINE",
"870 1203 OFFCURVE",
"717 1221 OFFCURVE",
"624 1221 CURVE SMOOTH",
"424 1221 OFFCURVE",
"322 1043 OFFCURVE",
"322 786 CURVE SMOOTH",
"322 0 LINE"
);
}
);
width = 1231;
},
{
layerId = "95A1F7A7-251D-4D34-8987-F15869CF2847";
paths = (
{
closed = 1;
nodes = (
"43 0 LINE",
"50 58 LINE",
"219 97 LINE",
"219 727 LINE SMOOTH",
"219 1090 OFFCURVE",
"371 1274 OFFCURVE",
"703 1274 CURVE SMOOTH",
"885 1274 OFFCURVE",
"1057 1256 OFFCURVE",
"1128 1235 CURVE",
"1129 1184 LINE",
"802 751 LINE",
"951 664 OFFCURVE",
"1228 566 OFFCURVE",
"1228 323 CURVE SMOOTH",
"1228 112 OFFCURVE",
"1060 -25 OFFCURVE",
"819 -25 CURVE SMOOTH",
"674 -25 OFFCURVE",
"546 39 OFFCURVE",
"486 123 CURVE",
"507 400 LINE",
"583 389 LINE",
"616 185 LINE",
"657 112 OFFCURVE",
"754 57 OFFCURVE",
"857 57 CURVE SMOOTH",
"981 57 OFFCURVE",
"1080 129 OFFCURVE",
"1080 267 CURVE SMOOTH",
"1080 466 OFFCURVE",
"788 579 OFFCURVE",
"633 666 CURVE",
"611 711 LINE",
"943 1159 LINE",
"943 1163 LINE",
"894 1182 OFFCURVE",
"729 1203 OFFCURVE",
"665 1203 CURVE SMOOTH",
"438 1203 OFFCURVE",
"366 1013 OFFCURVE",
"366 750 CURVE SMOOTH",
"366 0 LINE"
);
}
);
width = 1277;
},
{
layerId = "A90FD956-C3C8-4F9C-A3E6-D92726884721";
paths = (
{
closed = 1;
nodes = (
"25 0 LINE",
"33 73 LINE",
"198 119 LINE",
"198 678 LINE SMOOTH",
"198 1115 OFFCURVE",
"392 1250 OFFCURVE",
"688 1250 CURVE SMOOTH",
"851 1250 OFFCURVE",
"1076 1232 OFFCURVE",
"1134 1213 CURVE",
"1135 1142 LINE",
"835 751 LINE",
"922 689 OFFCURVE",
"1232 595 OFFCURVE",
"1232 332 CURVE SMOOTH",
"1232 106 OFFCURVE",
"1049 -24 OFFCURVE",
"825 -24 CURVE SMOOTH",
"683 -24 OFFCURVE",
"548 38 OFFCURVE",
"493 129 CURVE",
"506 392 LINE",
"607 377 LINE",
"646 192 LINE",
"682 135 OFFCURVE",
"756 76 OFFCURVE",
"848 76 CURVE SMOOTH",
"952 76 OFFCURVE",
"1049 126 OFFCURVE",
"1049 266 CURVE SMOOTH",
"1049 432 OFFCURVE",
"772 545 OFFCURVE",
"609 639 CURVE",
"586 687 LINE",
"906 1125 LINE",
"906 1130 LINE",
"864 1148 OFFCURVE",
"694 1161 OFFCURVE",
"675 1161 CURVE SMOOTH",
"480 1161 OFFCURVE",
"386 1053 OFFCURVE",
"386 700 CURVE",
"388 0 LINE"
);
}
);
width = 1283;
},
{
layerId = "E2DFD151-CE6A-4BFD-8A7C-97074A3C806B";
paths = (
{
closed = 1;
nodes = (
"43 0 LINE",
"54 106 LINE",
"215 167 LINE",
"215 710 LINE SMOOTH",
"215 1083 OFFCURVE",
"486 1272 OFFCURVE",
"848 1272 CURVE SMOOTH",
"1078 1272 OFFCURVE",
"1271 1244 OFFCURVE",
"1365 1212 CURVE",
"1355 1102 LINE",
"1029 782 LINE",
"1206 695 OFFCURVE",
"1447 633 OFFCURVE",
"1447 360 CURVE SMOOTH",
"1447 87 OFFCURVE",
"1176 -24 OFFCURVE",
"966 -24 CURVE SMOOTH",
"778 -24 OFFCURVE",
"625 41 OFFCURVE",
"571 128 CURVE",
"595 444 LINE",
"735 422 LINE",
"775 234 LINE",
"814 174 OFFCURVE",
"901 129 OFFCURVE",
"991 129 CURVE SMOOTH",
"1093 129 OFFCURVE",
"1157 186 OFFCURVE",
"1157 276 CURVE SMOOTH",
"1157 462 OFFCURVE",
"835 587 OFFCURVE",
"653 646 CURVE",
"629 704 LINE",
"1009 1082 LINE",
"1009 1088 LINE",
"952 1110 OFFCURVE",
"822 1130 OFFCURVE",
"770 1130 CURVE SMOOTH",
"562 1130 OFFCURVE",
"491 982 OFFCURVE",
"491 733 CURVE SMOOTH",
"491 0 LINE"
);
}
);
width = 1497;
},
{
layerId = "3A1433D5-008E-4B0B-A40A-C7A907BE4F87";
paths = (
{
closed = 1;
nodes = (
"43 1 LINE",
"56 137 LINE",
"210 213 LINE",
"210 729 LINE SMOOTH",
"210 1106 OFFCURVE",
"617 1269 OFFCURVE",
"977 1269 CURVE SMOOTH",
"1239 1269 OFFCURVE",
"1450 1227 OFFCURVE",
"1555 1187 CURVE",
"1535 1040 LINE",
"1188 797 LINE",
"1408 733 OFFCURVE",
"1620 660 OFFCURVE",
"1620 381 CURVE SMOOTH",
"1620 68 OFFCURVE",
"1260 -23 OFFCURVE",
"1073 -23 CURVE SMOOTH",
"843 -23 OFFCURVE",
"675 42 OFFCURVE",
"621 126 CURVE",
"655 488 LINE",
"832 459 LINE",
"874 272 LINE",
"916 212 OFFCURVE",
"1014 181 OFFCURVE",
"1099 181 CURVE SMOOTH",
"1178 181 OFFCURVE",
"1226 228 OFFCURVE",
"1226 281 CURVE SMOOTH",
"1226 446 OFFCURVE",
"938 582 OFFCURVE",
"758 630 CURVE",
"732 697 LINE",
"1078 1017 LINE",
"1078 1025 LINE",
"987 1058 OFFCURVE",
"905 1076 OFFCURVE",
"834 1076 CURVE SMOOTH",
"671 1076 OFFCURVE",
"570 981 OFFCURVE",
"570 752 CURVE SMOOTH",
"570 1 LINE"
);
}
);
width = 1669;
}
);
},
{
glyphname = a;
lastChange = "2016-08-10 11:03:53 +0000";
layers = (
{
layerId = "AE2A7EE3-C661-4E21-B15C-7E7CBD4BEDE2";
paths = (
{
closed = 1;
nodes = (
"21 162 CURVE SMOOTH",
"21 330.295 OFFCURVE",
"203 444 OFFCURVE",
"511 457 CURVE",
"511 516 LINE SMOOTH",
"511 720 OFFCURVE",
"458.346 818.883 OFFCURVE",
"309 818.883 CURVE SMOOTH",
"190.49 818.883 OFFCURVE",
"157.065 718.625 OFFCURVE",
"152 589 CURVE",
"106.378 589 OFFCURVE",
"65 614.284 OFFCURVE",
"65 666 CURVE SMOOTH",
"65 770.477 OFFCURVE",
"201 869.883 OFFCURVE",
"356 869.883 CURVE SMOOTH",
"522.158 869.883 OFFCURVE",
"602 775.124 OFFCURVE",
"602 569 CURVE SMOOTH",
"602 229 LINE SMOOTH",
"602 137 OFFCURVE",
"603 65 OFFCURVE",
"690 50 CURVE SMOOTH",
"756 37 LINE",
"751 3 LINE",
"731 -6 OFFCURVE",
"692 -18 OFFCURVE",
"650 -18 CURVE SMOOTH",
"567.344 -18 OFFCURVE",
"524 44 OFFCURVE",
"524 115 CURVE SMOOTH",
"524 128 LINE",
"519 128 LINE",
"503 76 OFFCURVE",
"386.042 -26 OFFCURVE",
"237 -26 CURVE SMOOTH",
"117 -26 OFFCURVE",
"21 43.415 OFFCURVE"
);
},
{
closed = 1;
nodes = (
"129 189 CURVE SMOOTH",
"129 98 OFFCURVE",
"184.714 42 OFFCURVE",
"279 42 CURVE SMOOTH",
"394.041 42 OFFCURVE",
"481 114 OFFCURVE",
"511 185 CURVE",
"511 412 LINE",
"321.959 410.086 OFFCURVE",
"129 335.433 OFFCURVE"
);
}
);
width = 749;
},
{
layerId = "95A1F7A7-251D-4D34-8987-F15869CF2847";
paths = (
{
closed = 1;
nodes = (
"45.5 158.5 CURVE SMOOTH",
"45.5 325.5 OFFCURVE",
"199 447 OFFCURVE",
"521 461 CURVE",
"521 528 LINE SMOOTH",
"521 697.5 OFFCURVE",
"474.391 812.942 OFFCURVE",
"328.5 812.942 CURVE SMOOTH",
"223.509 812.942 OFFCURVE",
"206.936 737.312 OFFCURVE",
"197.5 590.5 CURVE",
"148.189 590.5 OFFCURVE",
"84.5 605.142 OFFCURVE",
"84.5 680.5 CURVE SMOOTH",
"84.5 787.239 OFFCURVE",
"254.5 884.942 OFFCURVE",
"401 884.942 CURVE SMOOTH",
"573.079 884.942 OFFCURVE",
"647.5 789.562 OFFCURVE",
"647.5 581 CURVE SMOOTH",
"647.5 229.5 LINE SMOOTH",
"647.5 137.5 OFFCURVE",
"657.5 88 OFFCURVE",
"747.5 73 CURVE SMOOTH",
"805.5 62 LINE",
"796.5 2 LINE",
"763 -5.5 OFFCURVE",
"728.5 -18 OFFCURVE",
"678 -18 CURVE SMOOTH",
"578.672 -18 OFFCURVE",
"537.5 50.5 OFFCURVE",
"537.5 115.5 CURVE SMOOTH",
"537.5 129.5 LINE",
"529.5 129.5 LINE",
"502 74.865 OFFCURVE",
"408.021 -25 OFFCURVE",
"251.5 -25 CURVE SMOOTH",
"143.962 -25 OFFCURVE",
"45.5 42.308 OFFCURVE"
);
},
{
closed = 1;
nodes = (
"187 197 CURVE SMOOTH",
"187 135.993 OFFCURVE",
"233.857 70.5 OFFCURVE",
"318 70.5 CURVE SMOOTH",
"410.521 70.5 OFFCURVE",
"488.202 127.084 OFFCURVE",
"521 186.5 CURVE",
"521 410 LINE",
"317.479 387.586 OFFCURVE",
"187 323.5 OFFCURVE"
);
}
);
width = 821;
},
{
layerId = "A90FD956-C3C8-4F9C-A3E6-D92726884721";
paths = (
{
closed = 1;
nodes = (
"47 168 CURVE SMOOTH",
"47 315 OFFCURVE",
"182 462 OFFCURVE",
"508 485 CURVE",
"508 540 LINE SMOOTH",
"508 675 OFFCURVE",
"469 807 OFFCURVE",
"331 807 CURVE SMOOTH",
"235 807 OFFCURVE",
"234 756 OFFCURVE",
"220 592 CURVE",
"167 592 OFFCURVE",
"81 596 OFFCURVE",
"81 695 CURVE SMOOTH",
"81 804 OFFCURVE",
"285 900 OFFCURVE",
"423 900 CURVE SMOOTH",
"601 900 OFFCURVE",
"670 804 OFFCURVE",
"670 593 CURVE SMOOTH",
"670 230 LINE SMOOTH",
"670 138 OFFCURVE",
"689 111 OFFCURVE",
"782 96 CURVE SMOOTH",
"832 87 LINE",
"819 1 LINE",
"772 -5 OFFCURVE",
"742 -18 OFFCURVE",
"683 -18 CURVE SMOOTH",
"567 -18 OFFCURVE",
"528 57 OFFCURVE",
"528 116 CURVE SMOOTH",
"528 131 LINE",
"517 131 LINE",
"490 78 OFFCURVE",
"407 -24 OFFCURVE",
"243 -24 CURVE SMOOTH",
"138 -24 OFFCURVE",
"47 46 OFFCURVE"
);
},
{
closed = 1;
nodes = (
"222 215 CURVE SMOOTH",
"222 165 OFFCURVE",
"260 99 OFFCURVE",
"334 99 CURVE SMOOTH",
"404 99 OFFCURVE",
"475 151 OFFCURVE",
"508 188 CURVE",
"508 428 LINE",
"290 385 OFFCURVE",
"222 311 OFFCURVE"
);
}
);
width = 830;
},
{
layerId = "E2DFD151-CE6A-4BFD-8A7C-97074A3C806B";
paths = (
{
closed = 1;
nodes = (
"51 178 CURVE SMOOTH",
"51 341 OFFCURVE",
"199 488 OFFCURVE",
"510 499 CURVE",
"510 574 LINE SMOOTH",
"510 688 OFFCURVE",
"462 787 OFFCURVE",
"359 787 CURVE SMOOTH",
"285 787 OFFCURVE",
"275 728 OFFCURVE",
"263 572 CURVE",
"177 572 OFFCURVE",
"79 584 OFFCURVE",
"79 689 CURVE SMOOTH",
"79 801 OFFCURVE",
"312 924 OFFCURVE",
"485 924 CURVE SMOOTH",
"647 924 OFFCURVE",
"745 838 OFFCURVE",
"745 617 CURVE SMOOTH",
"745 302 LINE SMOOTH",
"745 204 OFFCURVE",
"743 171 OFFCURVE",
"840 153 CURVE SMOOTH",
"879 146 LINE",
"860 18 LINE",
"817 -8 OFFCURVE",
"779 -21 OFFCURVE",
"701 -21 CURVE SMOOTH",
"589 -21 OFFCURVE",
"557 41 OFFCURVE",
"541 111 CURVE SMOOTH",
"538 125 LINE",
"526 128 LINE",
"498 62 OFFCURVE",
"394 -24 OFFCURVE",
"259 -24 CURVE SMOOTH",
"139 -24 OFFCURVE",
"51 44 OFFCURVE"
);
},
{
closed = 1;
nodes = (
"287 247 CURVE SMOOTH",
"287 202 OFFCURVE",
"320 152 OFFCURVE",
"382 152 CURVE SMOOTH",
"430 152 OFFCURVE",
"480 183 OFFCURVE",
"510 211 CURVE",
"510 413 LINE",
"339 385 OFFCURVE",
"287 317 OFFCURVE"
);
}
);
width = 928;
},
{
layerId = "3A1433D5-008E-4B0B-A40A-C7A907BE4F87";
paths = (
{
closed = 1;
nodes = (
"478 539 CURVE",
"478 637 LINE SMOOTH",
"478 679 OFFCURVE",
"447.175 715 OFFCURVE",
"403 715 CURVE SMOOTH",
"346 715 OFFCURVE",
"280 637 OFFCURVE",
"247 556 CURVE",
"126.3 567.855 OFFCURVE",
"60.468 638.752 OFFCURVE",
"60.468 713.104 CURVE SMOOTH",
"60.468 881.507 OFFCURVE",
"244.417 937.516 OFFCURVE",
"446.536 937.516 CURVE SMOOTH",
"625.568 937.516 OFFCURVE",
"786 869.816 OFFCURVE",
"786 641 CURVE SMOOTH",
"786 374 LINE SMOOTH",
"786 253.049 OFFCURVE",
"816.361 218.34 OFFCURVE",
"874 200 CURVE SMOOTH",
"902 192 LINE",
"877 34 LINE",
"823.065 0 OFFCURVE",
"764.398 -24 OFFCURVE",
"701 -24 CURVE SMOOTH",
"590.203 -24 OFFCURVE",
"523 29 OFFCURVE",
"516 126 CURVE SMOOTH",
"515 139 LINE",
"501 139 LINE",
"486.57 62.418 OFFCURVE",
"378.381 -21.057 OFFCURVE",
"258.011 -21.057 CURVE SMOOTH",
"102.142 -21.057 OFFCURVE",
"12.057 90.403 OFFCURVE",
"12.057 220.458 CURVE SMOOTH",
"12.057 453.694 OFFCURVE",
"229.538 547.438 OFFCURVE"
);
},
{
closed = 1;
nodes = (
"396 225 CURVE SMOOTH",
"421 225 OFFCURVE",
"450 234 OFFCURVE",
"478 254 CURVE",
"478 413 LINE",
"429 413 OFFCURVE",
"316.807 380.847 OFFCURVE",
"316.807 305.664 CURVE SMOOTH",
"316.807 250 OFFCURVE",
"343.459 225 OFFCURVE"
);
}
);
width = 907;
}
);
unicode = 0061;
},
{
color = 1;
glyphname = aacute;
lastChange = "2016-08-10 12:14:12 +0000";
layers = (
{
components = (
{
name = a;
},
{
name = acute;
transform = "{1, 0, 0, 1, 176, -363}";
}
);
layerId = "AE2A7EE3-C661-4E21-B15C-7E7CBD4BEDE2";
width = 749;
},
{
components = (
{
name = acute;
transform = "{1, 0, 0, 1, 256, -356}";
},
{
name = a;
}
);
layerId = "95A1F7A7-251D-4D34-8987-F15869CF2847";
width = 821;
},
{
layerId = "A90FD956-C3C8-4F9C-A3E6-D92726884721";
paths = (
{
closed = 1;
nodes = (
"47 168 CURVE SMOOTH",
"47 315 OFFCURVE",
"182 462 OFFCURVE",
"508 485 CURVE",
"508 540 LINE SMOOTH",
"508 675 OFFCURVE",
"469 804 OFFCURVE",
"331 804 CURVE SMOOTH",
"235 804 OFFCURVE",
"235 716 OFFCURVE",
"220 592 CURVE",
"167 592 OFFCURVE",
"81 596 OFFCURVE",
"81 695 CURVE SMOOTH",
"81 804 OFFCURVE",
"285 900 OFFCURVE",
"423 900 CURVE SMOOTH",
"601 900 OFFCURVE",
"670 804 OFFCURVE",
"670 593 CURVE SMOOTH",
"670 230 LINE SMOOTH",
"670 138 OFFCURVE",
"689 111 OFFCURVE",
"782 96 CURVE SMOOTH",
"832 87 LINE",
"819 1 LINE",
"772 -5 OFFCURVE",
"742 -18 OFFCURVE",
"683 -18 CURVE SMOOTH",
"567 -18 OFFCURVE",
"528 57 OFFCURVE",
"528 116 CURVE SMOOTH",
"528 131 LINE",
"517 131 LINE",
"490 78 OFFCURVE",
"407 -24 OFFCURVE",
"243 -24 CURVE SMOOTH",
"138 -24 OFFCURVE",
"47 46 OFFCURVE"
);
},
{
closed = 1;
nodes = (
"222 215 CURVE SMOOTH",
"222 165 OFFCURVE",
"260 99 OFFCURVE",
"334 99 CURVE SMOOTH",
"404 99 OFFCURVE",
"475 151 OFFCURVE",
"508 188 CURVE",
"508 428 LINE",
"290 385 OFFCURVE",
"222 311 OFFCURVE"
);
},
{
closed = 1;
nodes = (
"328 1017 LINE",
"451 1342 LINE",
"562 1302 LINE",
"380 985 LINE"
);
}
);
width = 830;
},
{
components = (
{
name = acute;
transform = "{1, 0, 0, 1, 258, -314}";
},
{
name = a;
}
);
layerId = "E2DFD151-CE6A-4BFD-8A7C-97074A3C806B";
width = 928;
},
{
components = (
{
name = acute;
transform = "{1, 0, 0, 1, 259, -330}";
},
{
name = a;
}
);
layerId = "3A1433D5-008E-4B0B-A40A-C7A907BE4F87";
width = 907;
}
);
unicode = 00E1;
},
{
color = 1;
glyphname = acircumflex;
lastChange = "2016-08-10 12:14:12 +0000";
layers = (
{
components = (
{
name = a;
},
{
name = circumflex;
transform = "{1, 0, 0, 1, 44, -363}";
}
);
layerId = "AE2A7EE3-C661-4E21-B15C-7E7CBD4BEDE2";
width = 749;
},
{
components = (
{
name = circumflex;
transform = "{1, 0, 0, 1, 90, -378}";
},
{
name = a;
}
);
layerId = "95A1F7A7-251D-4D34-8987-F15869CF2847";
width = 821;
},
{
layerId = "A90FD956-C3C8-4F9C-A3E6-D92726884721";
paths = (
{
closed = 1;
nodes = (
"47 168 CURVE SMOOTH",
"47 315 OFFCURVE",
"182 462 OFFCURVE",
"508 485 CURVE",
"508 540 LINE SMOOTH",
"508 675 OFFCURVE",
"469 804 OFFCURVE",
"331 804 CURVE SMOOTH",
"235 804 OFFCURVE",
"235 716 OFFCURVE",
"220 592 CURVE",
"167 592 OFFCURVE",
"81 596 OFFCURVE",
"81 695 CURVE SMOOTH",
"81 804 OFFCURVE",
"285 900 OFFCURVE",
"423 900 CURVE SMOOTH",
"601 900 OFFCURVE",
"670 804 OFFCURVE",
"670 593 CURVE SMOOTH",
"670 230 LINE SMOOTH",
"670 138 OFFCURVE",
"689 111 OFFCURVE",
"782 96 CURVE SMOOTH",
"832 87 LINE",
"819 1 LINE",
"772 -5 OFFCURVE",
"742 -18 OFFCURVE",
"683 -18 CURVE SMOOTH",
"567 -18 OFFCURVE",
"528 57 OFFCURVE",
"528 116 CURVE SMOOTH",
"528 131 LINE",
"517 131 LINE",
"490 78 OFFCURVE",
"407 -24 OFFCURVE",
"243 -24 CURVE SMOOTH",
"138 -24 OFFCURVE",
"47 46 OFFCURVE"
);
},
{
closed = 1;
nodes = (
"211 1024 LINE",
"380 1203 LINE",
"434 1217 LINE",
"611 1032 LINE",
"562 995 LINE",
"399 1104 LINE",
"389 1104 LINE",
"249 993 LINE"
);
},
{
closed = 1;
nodes = (
"222 215 CURVE SMOOTH",
"222 165 OFFCURVE",
"260 99 OFFCURVE",
"334 99 CURVE SMOOTH",
"404 99 OFFCURVE",
"475 151 OFFCURVE",
"508 188 CURVE",
"508 428 LINE",
"290 385 OFFCURVE",
"222 311 OFFCURVE"
);
}
);
width = 830;
},
{
components = (
{
name = circumflex;
transform = "{1, 0, 0, 1, 128, -307}";
},
{
name = a;
}
);
layerId = "E2DFD151-CE6A-4BFD-8A7C-97074A3C806B";
width = 928;
},
{
components = (
{
name = circumflex;
transform = "{1, 0, 0, 1, 136, -308}";
},
{
name = a;
}
);
layerId = "3A1433D5-008E-4B0B-A40A-C7A907BE4F87";
width = 907;
}
);
unicode = 00E2;
},
{
color = 1;
glyphname = adieresis;
lastChange = "2016-08-10 12:14:12 +0000";
layers = (
{
components = (
{
name = a;
},
{
name = dieresis;
transform = "{1, 0, 0, 1, 51, -380}";
}
);
layerId = "AE2A7EE3-C661-4E21-B15C-7E7CBD4BEDE2";
width = 749;
},
{
components = (
{
name = dieresis;
transform = "{1, 0, 0, 1, 72, -404}";
},
{
name = a;
}
);
layerId = "95A1F7A7-251D-4D34-8987-F15869CF2847";
width = 821;
},
{
layerId = "A90FD956-C3C8-4F9C-A3E6-D92726884721";
paths = (
{
closed = 1;
nodes = (
"47 168 CURVE SMOOTH",
"47 315 OFFCURVE",
"182 462 OFFCURVE",
"508 485 CURVE",
"508 540 LINE SMOOTH",
"508 675 OFFCURVE",
"469 804 OFFCURVE",
"331 804 CURVE SMOOTH",
"235 804 OFFCURVE",
"235 716 OFFCURVE",
"220 592 CURVE",
"167 592 OFFCURVE",
"81 596 OFFCURVE",
"81 695 CURVE SMOOTH",
"81 804 OFFCURVE",
"285 900 OFFCURVE",
"423 900 CURVE SMOOTH",
"601 900 OFFCURVE",
"670 804 OFFCURVE",
"670 593 CURVE SMOOTH",
"670 230 LINE SMOOTH",
"670 138 OFFCURVE",
"689 111 OFFCURVE",
"782 96 CURVE SMOOTH",
"832 87 LINE",
"819 1 LINE",
"772 -5 OFFCURVE",
"742 -18 OFFCURVE",
"683 -18 CURVE SMOOTH",
"567 -18 OFFCURVE",
"528 57 OFFCURVE",
"528 116 CURVE SMOOTH",
"528 131 LINE",
"517 131 LINE",
"490 78 OFFCURVE",
"407 -24 OFFCURVE",
"243 -24 CURVE SMOOTH",
"138 -24 OFFCURVE",
"47 46 OFFCURVE"
);
},
{
closed = 1;
nodes = (
"189 1084 CURVE SMOOTH",
"189 1131 OFFCURVE",
"233 1163 OFFCURVE",
"273 1163 CURVE SMOOTH",
"317 1163 OFFCURVE",
"359 1130 OFFCURVE",
"359 1084 CURVE SMOOTH",
"359 1035 OFFCURVE",
"317 1004 OFFCURVE",
"273 1004 CURVE SMOOTH",
"230 1004 OFFCURVE",
"189 1035 OFFCURVE"
);
},
{
closed = 1;
nodes = (
"222 215 CURVE SMOOTH",
"222 165 OFFCURVE",
"260 99 OFFCURVE",
"334 99 CURVE SMOOTH",
"404 99 OFFCURVE",
"475 151 OFFCURVE",
"508 188 CURVE",
"508 428 LINE",
"290 385 OFFCURVE",
"222 311 OFFCURVE"
);
},
{
closed = 1;
nodes = (
"457 1084 CURVE SMOOTH",
"457 1131 OFFCURVE",
"500 1163 OFFCURVE",
"540 1163 CURVE SMOOTH",
"584 1163 OFFCURVE",
"628 1130 OFFCURVE",
"628 1084 CURVE SMOOTH",
"628 1035 OFFCURVE",
"584 1004 OFFCURVE",
"540 1004 CURVE SMOOTH",
"497 1004 OFFCURVE",
"457 1035 OFFCURVE"
);
}
);
width = 830;
},
{
components = (
{
name = dieresis;
transform = "{1, 0, 0, 1, 120, -307}";
},
{
name = a;
}
);
layerId = "E2DFD151-CE6A-4BFD-8A7C-97074A3C806B";
width = 928;
},
{
components = (
{
name = dieresis;
transform = "{1, 0, 0, 1, 41, -341}";
},
{
name = a;
}
);
layerId = "3A1433D5-008E-4B0B-A40A-C7A907BE4F87";
width = 907;
}
);
unicode = 00E4;
},
{
color = 1;
glyphname = aring;
lastChange = "2016-08-10 12:14:12 +0000";
layers = (
{
components = (
{
name = ring;
transform = "{1, 0, 0, 1, 74, -390}";
},
{
name = a;
}
);
layerId = "AE2A7EE3-C661-4E21-B15C-7E7CBD4BEDE2";
width = 749;
},
{
components = (
{
name = ring;
transform = "{1, 0, 0, 1, 126, -382}";
},
{
name = a;
}
);
layerId = "95A1F7A7-251D-4D34-8987-F15869CF2847";
width = 821;
},
{
layerId = "A90FD956-C3C8-4F9C-A3E6-D92726884721";
paths = (
{
closed = 1;
nodes = (
"47 168 CURVE SMOOTH",
"47 315 OFFCURVE",
"182 462 OFFCURVE",
"508 485 CURVE",
"508 540 LINE SMOOTH",
"508 675 OFFCURVE",
"469 804 OFFCURVE",
"331 804 CURVE SMOOTH",
"235 804 OFFCURVE",
"235 716 OFFCURVE",
"220 592 CURVE",
"167 592 OFFCURVE",
"81 596 OFFCURVE",
"81 695 CURVE SMOOTH",
"81 804 OFFCURVE",
"285 900 OFFCURVE",
"423 900 CURVE SMOOTH",
"601 900 OFFCURVE",
"670 804 OFFCURVE",
"670 593 CURVE SMOOTH",
"670 230 LINE SMOOTH",
"670 138 OFFCURVE",
"689 111 OFFCURVE",
"782 96 CURVE SMOOTH",
"832 87 LINE",
"819 1 LINE",
"772 -5 OFFCURVE",
"742 -18 OFFCURVE",
"683 -18 CURVE SMOOTH",
"567 -18 OFFCURVE",
"528 57 OFFCURVE",
"528 116 CURVE SMOOTH",
"528 131 LINE",
"517 131 LINE",
"490 78 OFFCURVE",
"407 -24 OFFCURVE",
"243 -24 CURVE SMOOTH",
"138 -24 OFFCURVE",
"47 46 OFFCURVE"
);
},
{
closed = 1;
nodes = (
"222 215 CURVE SMOOTH",
"222 165 OFFCURVE",
"260 99 OFFCURVE",
"334 99 CURVE SMOOTH",
"404 99 OFFCURVE",
"475 151 OFFCURVE",
"508 188 CURVE",
"508 428 LINE",
"290 385 OFFCURVE",
"222 311 OFFCURVE"
);
},
{
closed = 1;
nodes = (
"228 1167 CURVE SMOOTH",
"228 1259 OFFCURVE",
"303 1338 OFFCURVE",
"396 1338 CURVE SMOOTH",
"492 1338 OFFCURVE",
"551 1270 OFFCURVE",
"551 1177 CURVE SMOOTH",
"551 1087 OFFCURVE",
"485 1002 OFFCURVE",
"383 1002 CURVE SMOOTH",
"291 1002 OFFCURVE",
"228 1065 OFFCURVE"
);
},
{
closed = 1;
nodes = (
"298 1178 CURVE SMOOTH",
"298 1117 OFFCURVE",
"330 1050 OFFCURVE",
"394 1050 CURVE SMOOTH",
"448 1050 OFFCURVE",
"480 1091 OFFCURVE",
"480 1164 CURVE SMOOTH",
"480 1226 OFFCURVE",
"446 1291 OFFCURVE",
"384 1291 CURVE SMOOTH",
"325 1291 OFFCURVE",
"298 1234 OFFCURVE"
);
}
);
width = 830;
},
{
components = (
{
name = ring;
transform = "{1, 0, 0, 1, 146, -371}";
},
{
name = a;
}
);
layerId = "E2DFD151-CE6A-4BFD-8A7C-97074A3C806B";
width = 928;
},
{
components = (
{
name = ring;
transform = "{1, 0, 0, 1, 109, -332}";
},
{
name = a;
}
);
layerId = "3A1433D5-008E-4B0B-A40A-C7A907BE4F87";
width = 907;
}
);
unicode = 00E5;
},
{
color = 1;
glyphname = atilde;
lastChange = "2016-08-10 12:14:12 +0000";
layers = (
{
components = (
{
name = tilde;
transform = "{1, 0, 0, 1, 14, -393}";
},
{
name = a;
}
);
layerId = "AE2A7EE3-C661-4E21-B15C-7E7CBD4BEDE2";
width = 749;
},
{
components = (
{
name = tilde;
transform = "{1, 0, 0, 1, 42, -381}";
},
{
name = a;
}
);
layerId = "95A1F7A7-251D-4D34-8987-F15869CF2847";
width = 821;
},
{
layerId = "A90FD956-C3C8-4F9C-A3E6-D92726884721";
paths = (
{
closed = 1;
nodes = (
"47 168 CURVE SMOOTH",
"47 315 OFFCURVE",
"182 462 OFFCURVE",
"508 485 CURVE",
"508 540 LINE SMOOTH",
"508 675 OFFCURVE",
"469 804 OFFCURVE",
"331 804 CURVE SMOOTH",
"235 804 OFFCURVE",
"235 716 OFFCURVE",
"220 592 CURVE",
"167 592 OFFCURVE",
"81 596 OFFCURVE",
"81 695 CURVE SMOOTH",
"81 804 OFFCURVE",
"285 900 OFFCURVE",
"423 900 CURVE SMOOTH",
"601 900 OFFCURVE",
"670 804 OFFCURVE",
"670 593 CURVE SMOOTH",
"670 230 LINE SMOOTH",
"670 138 OFFCURVE",
"689 111 OFFCURVE",
"782 96 CURVE SMOOTH",
"832 87 LINE",
"819 1 LINE",
"772 -5 OFFCURVE",
"742 -18 OFFCURVE",
"683 -18 CURVE SMOOTH",
"567 -18 OFFCURVE",
"528 57 OFFCURVE",
"528 116 CURVE SMOOTH",
"528 131 LINE",
"517 131 LINE",
"490 78 OFFCURVE",
"407 -24 OFFCURVE",
"243 -24 CURVE SMOOTH",
"138 -24 OFFCURVE",
"47 46 OFFCURVE"
);
},
{
closed = 1;
nodes = (
"175 1015 LINE",
"175 1015 OFFCURVE",
"207 1158 OFFCURVE",
"296 1158 CURVE SMOOTH",
"300 1158 OFFCURVE",
"305 1158 OFFCURVE",
"309 1157 CURVE SMOOTH",
"532 1127 LINE",
"537 1127 LINE SMOOTH",
"562 1127 OFFCURVE",
"592 1169 OFFCURVE",
"592 1169 CURVE",
"640 1167 LINE",
"640 1167 OFFCURVE",
"602 1023 OFFCURVE",
"510 1023 CURVE SMOOTH",
"506 1023 OFFCURVE",
"501 1023 OFFCURVE",
"497 1024 CURVE SMOOTH",
"275 1054 LINE",
"271 1054 LINE SMOOTH",
"243 1054 OFFCURVE",
"212 1007 OFFCURVE",
"212 1007 CURVE"
);
},
{
closed = 1;
nodes = (
"222 215 CURVE SMOOTH",
"222 165 OFFCURVE",
"260 99 OFFCURVE",
"334 99 CURVE SMOOTH",
"404 99 OFFCURVE",
"475 151 OFFCURVE",
"508 188 CURVE",
"508 428 LINE",
"290 385 OFFCURVE",
"222 311 OFFCURVE"
);
}
);
width = 830;
},
{
components = (
{
name = tilde;
transform = "{1, 0, 0, 1, 106, -296}";
},
{
name = a;
}
);
layerId = "E2DFD151-CE6A-4BFD-8A7C-97074A3C806B";
width = 928;
},
{
components = (
{
name = tilde;
transform = "{1, 0, 0, 1, 78, -311}";
},
{
name = a;
}
);
layerId = "3A1433D5-008E-4B0B-A40A-C7A907BE4F87";
width = 907;
}
);
unicode = 00E3;
},
{
glyphname = ae;
lastChange = "2016-08-10 11:03:53 +0000";
layers = (
{
layerId = "AE2A7EE3-C661-4E21-B15C-7E7CBD4BEDE2";
paths = (
{
closed = 1;
nodes = (
"52 169 CURVE SMOOTH",
"52 331 OFFCURVE",
"182 430 OFFCURVE",
"514 467 CURVE",
"514 538 LINE SMOOTH",
"514 747 OFFCURVE",
"476 825 OFFCURVE",
"322 825 CURVE SMOOTH",
"211 825 OFFCURVE",
"182 730 OFFCURVE",
"167 609 CURVE",
"124 609 OFFCURVE",
"86 628 OFFCURVE",
"86 673 CURVE SMOOTH",
"86 776 OFFCURVE",
"238 875 OFFCURVE",
"377 875 CURVE SMOOTH",
"475 875 OFFCURVE",
"566 826 OFFCURVE",
"593 718 CURVE",
"666 835 OFFCURVE",
"771 874 OFFCURVE",
"868 874 CURVE SMOOTH",
"1014 874 OFFCURVE",
"1101 784 OFFCURVE",
"1101 573 CURVE SMOOTH",
"1101 542 OFFCURVE",
"1094 487 OFFCURVE",
"1085 451 CURVE",
"599 429 LINE",
"599 209 OFFCURVE",
"687 53 OFFCURVE",
"895 53 CURVE SMOOTH",
"990 53 OFFCURVE",
"1062 90 OFFCURVE",
"1109 137 CURVE",
"1127 104 LINE",
"1070 29 OFFCURVE",
"972 -29 OFFCURVE",
"839 -29 CURVE SMOOTH",
"739 -29 OFFCURVE",
"592 51 OFFCURVE",
"546 169 CURVE",
"529 105 OFFCURVE",
"418 -27 OFFCURVE",
"259 -27 CURVE SMOOTH",
"153 -27 OFFCURVE",
"52 46 OFFCURVE"
);
},
{
closed = 1;
nodes = (
"150 196 CURVE SMOOTH",
"150 114 OFFCURVE",
"203 42 OFFCURVE",
"291 42 CURVE SMOOTH",
"393 42 OFFCURVE",
"514 128 OFFCURVE",
"514 248 CURVE SMOOTH",
"514 424 LINE",
"314 395 OFFCURVE",
"150 355 OFFCURVE"
);
},
{
closed = 1;
nodes = (
"600 476 CURVE",
"987 514 LINE",
"996 536 OFFCURVE",
"997 592 OFFCURVE",
"997 607 CURVE SMOOTH",
"997 725 OFFCURVE",
"916 818 OFFCURVE",
"819 818 CURVE SMOOTH",
"688 818 OFFCURVE",
"600 683 OFFCURVE"
);
}
);
width = 1195;
},
{
layerId = "95A1F7A7-251D-4D34-8987-F15869CF2847";
paths = (
{
closed = 1;
nodes = (
"46 163 CURVE SMOOTH",
"46 318 OFFCURVE",
"161 425 OFFCURVE",
"508 476 CURVE",
"508 539 LINE SMOOTH",
"508 711 OFFCURVE",
"472 813 OFFCURVE",
"329 813 CURVE SMOOTH",
"226 813 OFFCURVE",
"207 731 OFFCURVE",
"192 609 CURVE",
"144 609 OFFCURVE",
"84 621 OFFCURVE",
"84 693 CURVE SMOOTH",
"84 799 OFFCURVE",
"258 888 OFFCURVE",
"397 888 CURVE SMOOTH",
"502 888 OFFCURVE",
"577 844 OFFCURVE",
"605 748 CURVE",
"681 846 OFFCURVE",
"786 886 OFFCURVE",
"882 886 CURVE SMOOTH",
"1028 886 OFFCURVE",
"1133 789 OFFCURVE",
"1133 578 CURVE SMOOTH",
"1133 547 OFFCURVE",
"1124 483 OFFCURVE",
"1115 448 CURVE",
"632 428 LINE",
"636 240 OFFCURVE",
"720 70 OFFCURVE",
"918 70 CURVE SMOOTH",
"1001 70 OFFCURVE",
"1064 95 OFFCURVE",
"1139 146 CURVE",
"1158 104 LINE",
"1090 25 OFFCURVE",
"982 -30 OFFCURVE",
"849 -30 CURVE SMOOTH",
"746 -30 OFFCURVE",
"585 44 OFFCURVE",
"546 172 CURVE",
"516 74 OFFCURVE",
"397 -26 OFFCURVE",
"247 -26 CURVE SMOOTH",
"141 -26 OFFCURVE",
"46 40 OFFCURVE"
);
},
{
closed = 1;
nodes = (
"182 200 CURVE SMOOTH",
"182 119 OFFCURVE",
"228 62 OFFCURVE",
"309 62 CURVE SMOOTH",
"400 62 OFFCURVE",
"508 144 OFFCURVE",
"508 255 CURVE SMOOTH",
"508 416 LINE",
"283 382 OFFCURVE",
"182 327 OFFCURVE"
);
},
{
closed = 1;
nodes = (
"632 492 CURVE",
"982 529 LINE",
"988 548 OFFCURVE",
"992 595 OFFCURVE",
"992 611 CURVE SMOOTH",
"992 729 OFFCURVE",
"928 809 OFFCURVE",
"832 809 CURVE SMOOTH",
"727 809 OFFCURVE",
"637 693 OFFCURVE"
);
}
);
width = 1203;
},
{
layerId = "A90FD956-C3C8-4F9C-A3E6-D92726884721";
paths = (
{
closed = 1;
nodes = (
"230 215 CURVE SMOOTH",
"230 165 OFFCURVE",
"268 99 OFFCURVE",
"342 99 CURVE SMOOTH",
"416 99 OFFCURVE",
"491 151 OFFCURVE",
"526 188 CURVE",
"526 428 LINE",
"300 385 OFFCURVE",
"230 311 OFFCURVE"
);
},
{
closed = 1;
nodes = (
"570 175 CURVE",
"541 107 OFFCURVE",
"450 -24 OFFCURVE",
"271 -24 CURVE SMOOTH",
"155 -24 OFFCURVE",
"55 46 OFFCURVE",
"55 168 CURVE SMOOTH",
"55 315 OFFCURVE",
"193 462 OFFCURVE",
"526 485 CURVE",
"526 540 LINE SMOOTH",
"526 675 OFFCURVE",
"485 807 OFFCURVE",
"339 807 CURVE SMOOTH",
"243 807 OFFCURVE",
"242 756 OFFCURVE",
"228 592 CURVE",
"175 592 OFFCURVE",
"89 596 OFFCURVE",
"89 695 CURVE SMOOTH",
"89 804 OFFCURVE",
"293 900 OFFCURVE",
"431 900 CURVE SMOOTH",
"550 900 OFFCURVE",
"612 860 OFFCURVE",
"641 777 CURVE",
"716 856 OFFCURVE",
"814 899 OFFCURVE",
"905 899 CURVE SMOOTH",
"1046 899 OFFCURVE",
"1167 792 OFFCURVE",
"1167 581 CURVE SMOOTH",
"1167 550 OFFCURVE",
"1157 479 OFFCURVE",
"1149 445 CURVE",
"688 426 LINE",
"696 269 OFFCURVE",
"774 86 OFFCURVE",
"952 86 CURVE SMOOTH",
"1020 86 OFFCURVE",
"1071 99 OFFCURVE",
"1172 155 CURVE",
"1192 104 LINE",
"1115 21 OFFCURVE",
"1000 -30 OFFCURVE",
"871 -30 CURVE SMOOTH",
"770 -30 OFFCURVE",
"600 37 OFFCURVE"
);
},
{
closed = 1;
nodes = (
"688 507 CURVE",
"981 543 LINE",
"985 559 OFFCURVE",
"990 599 OFFCURVE",
"990 615 CURVE SMOOTH",
"990 741 OFFCURVE",
"947 801 OFFCURVE",
"856 801 CURVE SMOOTH",
"767 801 OFFCURVE",
"697 701 OFFCURVE"
);
}
);
width = 1238;
},
{
layerId = "E2DFD151-CE6A-4BFD-8A7C-97074A3C806B";
paths = (
{
closed = 1;
nodes = (
"51 172 CURVE SMOOTH",
"51 334 OFFCURVE",
"182 466 OFFCURVE",
"511 498 CURVE",
"511 574 LINE SMOOTH",
"511 688 OFFCURVE",
"461 774 OFFCURVE",
"371 774 CURVE SMOOTH",
"295 774 OFFCURVE",
"279 715 OFFCURVE",
"260 588 CURVE",
"189 581 OFFCURVE",
"89 604 OFFCURVE",
"89 712 CURVE SMOOTH",
"89 833 OFFCURVE",
"341 924 OFFCURVE",
"481 924 CURVE SMOOTH",
"591 924 OFFCURVE",
"655 894 OFFCURVE",
"691 830 CURVE",
"767 892 OFFCURVE",
"859 924 OFFCURVE",
"948 924 CURVE SMOOTH",
"1130 924 OFFCURVE",
"1251 792 OFFCURVE",
"1251 580 CURVE SMOOTH",
"1251 549 OFFCURVE",
"1238 455 OFFCURVE",
"1231 423 CURVE",
"751 412 LINE",
"759 268 OFFCURVE",
"849 142 OFFCURVE",
"1015 142 CURVE SMOOTH",
"1088 142 OFFCURVE",
"1165 157 OFFCURVE",
"1253 205 CURVE",
"1272 113 LINE",
"1186 11 OFFCURVE",
"1030 -30 OFFCURVE",
"899 -30 CURVE SMOOTH",
"749 -30 OFFCURVE",
"625 31 OFFCURVE",
"577 147 CURVE",
"517 11 OFFCURVE",
"375 -24 OFFCURVE",
"251 -24 CURVE SMOOTH",
"147 -24 OFFCURVE",
"51 38 OFFCURVE"
);
},
{
closed = 1;
nodes = (
"287 241 CURVE SMOOTH",
"287 181 OFFCURVE",
"322 144 OFFCURVE",
"384 144 CURVE SMOOTH",
"436 144 OFFCURVE",
"497 188 OFFCURVE",
"511 248 CURVE",
"511 404 LINE",
"323 377 OFFCURVE",
"287 311 OFFCURVE"
);
},
{
closed = 1;
nodes = (
"750 512 CURVE",
"991 537 LINE",
"995 553 OFFCURVE",
"999 595 OFFCURVE",
"999 610 CURVE SMOOTH",
"999 702 OFFCURVE",
"966 772 OFFCURVE",
"887 772 CURVE SMOOTH",
"812 772 OFFCURVE",
"754 674 OFFCURVE"
);
}
);
width = 1319;
},
{
layerId = "3A1433D5-008E-4B0B-A40A-C7A907BE4F87";
paths = (
{
closed = 1;
nodes = (
"435 225 CURVE SMOOTH",
"460 225 OFFCURVE",
"489 234 OFFCURVE",
"517 254 CURVE",
"517 383 LINE",
"468 383 OFFCURVE",
"355.807 364.847 OFFCURVE",
"355.807 289.664 CURVE SMOOTH",
"355.807 251.109 OFFCURVE",
"382.459 225 OFFCURVE"
);
},
{
closed = 1;
nodes = (
"517 539 CURVE",
"517 637 LINE SMOOTH",
"517 679 OFFCURVE",
"486.175 715 OFFCURVE",
"442 715 CURVE SMOOTH",
"385 715 OFFCURVE",
"319 637 OFFCURVE",
"286 556 CURVE",
"165.3 567.855 OFFCURVE",
"99.468 638.752 OFFCURVE",
"99.468 713.104 CURVE SMOOTH",
"99.468 881.507 OFFCURVE",
"283.417 937.516 OFFCURVE",
"485.536 937.516 CURVE SMOOTH",
"574.996 937.516 OFFCURVE",
"665.046 904.279 OFFCURVE",
"717.861 850.239 CURVE",
"787.488 912.712 OFFCURVE",
"874.549 950 OFFCURVE",
"961 950 CURVE SMOOTH",
"1161.36 950 OFFCURVE",
"1267 792 OFFCURVE",
"1267 580 CURVE SMOOTH",
"1267 545.536 OFFCURVE",
"1252 415.464 OFFCURVE",
"1246 381 CURVE",
"828 367 LINE",
"834.08 263.048 OFFCURVE",
"883.48 219 OFFCURVE",
"1018 219 CURVE SMOOTH",
"1094 219 OFFCURVE",
"1195 231 OFFCURVE",
"1266 265 CURVE",
"1285 92 LINE",
"1193 0 OFFCURVE",
"1032.41 -31 OFFCURVE",
"918 -31 CURVE SMOOTH",
"774.77 -31 OFFCURVE",
"656.213 21.916 OFFCURVE",
"582.394 126.95 CURVE",
"547.757 47.595 OFFCURVE",
"454.284 -21.057 OFFCURVE",
"317.011 -21.057 CURVE SMOOTH",
"132 -21.057 OFFCURVE",
"51.057 90.403 OFFCURVE",
"51.057 220.458 CURVE SMOOTH",
"51.057 453.694 OFFCURVE",
"268.538 547.438 OFFCURVE"
);
},
{
closed = 1;
nodes = (
"819 498 CURVE",
"975 521 LINE",
"980 534.026 OFFCURVE",
"981 574.842 OFFCURVE",
"981 587 CURVE SMOOTH",
"981 648.217 OFFCURVE",
"960 715 OFFCURVE",
"898 715 CURVE SMOOTH",
"842.141 715 OFFCURVE",
"817.404 617.03 OFFCURVE"
);
}
);
width = 1394;
}
);
unicode = 00E6;
},
{
glyphname = b;
lastChange = "2016-08-10 11:03:53 +0000";
layers = (
{
layerId = "AE2A7EE3-C661-4E21-B15C-7E7CBD4BEDE2";
paths = (
{
closed = 1;
nodes = (
"46 1266 LINE",
"52 1297 LINE",
"295 1316 LINE",
"300 1307 LINE",
"300 824 LINE",
"285 721 LINE",
"298 721 LINE",
"375.925 809 OFFCURVE",
"476.537 874 OFFCURVE",
"588 874 CURVE SMOOTH",
"781 874 OFFCURVE",
"901 711 OFFCURVE",
"901 460 CURVE SMOOTH",
"901 143 OFFCURVE",
"684 -24 OFFCURVE",
"424 -24 CURVE SMOOTH",
"333 -24 OFFCURVE",
"273 0 OFFCURVE",
"201 48 CURVE",
"201 1235 LINE"
);
},
{
closed = 1;
nodes = (
"300 98 LINE",
"341.177 56 OFFCURVE",
"414.706 37 OFFCURVE",
"500 37 CURVE SMOOTH",
"636 37 OFFCURVE",
"797 180 OFFCURVE",
"797 404 CURVE SMOOTH",
"797 673 OFFCURVE",
"711 802 OFFCURVE",
"521 802 CURVE SMOOTH",
"447.333 802 OFFCURVE",
"377.596 748 OFFCURVE",
"300 664 CURVE"
);
}
);
width = 957;
},
{
layerId = "95A1F7A7-251D-4D34-8987-F15869CF2847";
paths = (
{
closed = 1;
nodes = (
"43 1221 LINE",
"52 1275 LINE",
"310 1295 LINE",
"325 1279 LINE",
"325 837 LINE",
"311 733 LINE",
"323 733 LINE",
"402 822 OFFCURVE",
"499 886 OFFCURVE",
"612 886 CURVE SMOOTH",
"805 886 OFFCURVE",
"930 718 OFFCURVE",
"930 466 CURVE SMOOTH",
"930 149 OFFCURVE",
"705 -24 OFFCURVE",
"445 -24 CURVE SMOOTH",
"355 -24 OFFCURVE",
"272 0 OFFCURVE",
"196 49 CURVE",
"196 1179 LINE"
);
},
{
closed = 1;
nodes = (
"325 126 LINE",
"366 85 OFFCURVE",
"446 62 OFFCURVE",
"533 62 CURVE SMOOTH",
"658 62 OFFCURVE",
"788 182 OFFCURVE",
"788 406 CURVE SMOOTH",
"788 615 OFFCURVE",
"725 785 OFFCURVE",
"545 785 CURVE SMOOTH",
"480 785 OFFCURVE",
"404 752 OFFCURVE",
"325 668 CURVE"
);
}
);
width = 978;
},
{
layerId = "A90FD956-C3C8-4F9C-A3E6-D92726884721";
paths = (
{
closed = 1;
nodes = (
"-15 1191 LINE",
"-2 1267 LINE",
"275 1288 LINE",
"299 1265 LINE",
"299 849 LINE",
"285 744 LINE",
"296 744 LINE",
"375 833 OFFCURVE",
"468 899 OFFCURVE",
"581 899 CURVE SMOOTH",
"775 899 OFFCURVE",
"904 725 OFFCURVE",
"904 472 CURVE SMOOTH",
"904 155 OFFCURVE",
"671 -23 OFFCURVE",
"411 -23 CURVE SMOOTH",
"321 -23 OFFCURVE",
"216 -1 OFFCURVE",
"136 49 CURVE",
"136 1138 LINE"
);
},
{
closed = 1;
nodes = (
"299 155 LINE",
"339 115 OFFCURVE",
"423 87 OFFCURVE",
"510 87 CURVE SMOOTH",
"624 87 OFFCURVE",
"725 185 OFFCURVE",
"725 408 CURVE SMOOTH",
"725 556 OFFCURVE",
"684 768 OFFCURVE",
"513 768 CURVE SMOOTH",
"457 768 OFFCURVE",
"378 755 OFFCURVE",
"299 672 CURVE"
);
}
);
width = 955;
},
{
layerId = "E2DFD151-CE6A-4BFD-8A7C-97074A3C806B";
paths = (
{
closed = 1;
nodes = (
"41 1154 LINE",
"62 1274 LINE",
"389 1298 LINE",
"429 1259 LINE",
"429 864 LINE",
"415 760 LINE",
"427 758 LINE",
"507 848 OFFCURVE",
"590 914 OFFCURVE",
"702 914 CURVE SMOOTH",
"908 914 OFFCURVE",
"1040 738 OFFCURVE",
"1040 484 CURVE SMOOTH",
"1040 166 OFFCURVE",
"789 -23 OFFCURVE",
"515 -23 CURVE SMOOTH",
"426 -23 OFFCURVE",
"277 -2 OFFCURVE",
"189 50 CURVE",
"189 1077 LINE"
);
},
{
closed = 1;
nodes = (
"429 207 LINE",
"471 167 OFFCURVE",
"534 144 OFFCURVE",
"597 144 CURVE SMOOTH",
"695 144 OFFCURVE",
"776 244 OFFCURVE",
"776 428 CURVE SMOOTH",
"776 550 OFFCURVE",
"738 706 OFFCURVE",
"610 706 CURVE SMOOTH",
"562 706 OFFCURVE",
"499 691 OFFCURVE",
"429 625 CURVE"
);
}
);
width = 1085;
},
{
layerId = "3A1433D5-008E-4B0B-A40A-C7A907BE4F87";
paths = (
{
closed = 1;
nodes = (
"377 771 LINE",
"436.553 872.021 OFFCURVE",
"541.587 940 OFFCURVE",
"659 940 CURVE SMOOTH",
"850.796 940 OFFCURVE",
"971 757.889 OFFCURVE",
"971 497 CURVE SMOOTH",
"971 162.713 OFFCURVE",
"744.93 -30.298 OFFCURVE",
"399.885 -30.298 CURVE SMOOTH",
"299.522 -30.298 OFFCURVE",
"194.461 -16.215 OFFCURVE",
"99 8 CURVE",
"99 1052 LINE",
"-22 1133 LINE",
"7 1277 LINE",
"348 1304 LINE",
"388 1259 LINE",
"388 928 LINE",
"362 771 LINE"
);
},
{
closed = 1;
nodes = (
"415 226 LINE",
"447.68 204.789 OFFCURVE",
"480.36 195 OFFCURVE",
"510 195 CURVE SMOOTH",
"591 195 OFFCURVE",
"653 257.196 OFFCURVE",
"653 427 CURVE SMOOTH",
"653 578.303 OFFCURVE",
"617 675 OFFCURVE",
"533 675 CURVE SMOOTH",
"488 675 OFFCURVE",
"462.838 661.672 OFFCURVE",
"415 628 CURVE"
);
}
);
width = 1033;
}
);
unicode = 0062;
},
{
glyphname = c;
lastChange = "2016-08-10 11:03:53 +0000";
layers = (
{
layerId = "AE2A7EE3-C661-4E21-B15C-7E7CBD4BEDE2";
paths = (
{
closed = 1;
nodes = (
"57 395 CURVE SMOOTH",
"57 674.829 OFFCURVE",
"226 873 OFFCURVE",
"432 873 CURVE SMOOTH",
"601 873 OFFCURVE",
"653 784.065 OFFCURVE",
"653 706 CURVE SMOOTH",
"653 660 OFFCURVE",
"636 627 OFFCURVE",
"588 612 CURVE",
"542 748 OFFCURVE",
"489 813 OFFCURVE",
"384 813 CURVE SMOOTH",
"252 813 OFFCURVE",
"157 660 OFFCURVE",
"157 453 CURVE SMOOTH",
"157 154 OFFCURVE",
"269 45 OFFCURVE",
"442 45 CURVE SMOOTH",
"541 45 OFFCURVE",
"629 97 OFFCURVE",
"677 144 CURVE",
"695 111 LINE",
"647 36 OFFCURVE",
"524 -29 OFFCURVE",
"394 -29 CURVE SMOOTH",
"172 -29 OFFCURVE",
"57 156 OFFCURVE"
);
}
);
width = 743;
},
{
layerId = "95A1F7A7-251D-4D34-8987-F15869CF2847";
paths = (
{
closed = 1;
nodes = (
"52 405 CURVE SMOOTH",
"52 702 OFFCURVE",
"235 888 OFFCURVE",
"452 888 CURVE SMOOTH",
"620 888 OFFCURVE",
"683 805 OFFCURVE",
"683 726 CURVE SMOOTH",
"683 673 OFFCURVE",
"654 638 OFFCURVE",
"588 627 CURVE",
"551 729 OFFCURVE",
"500 810 OFFCURVE",
"404 810 CURVE SMOOTH",
"285 810 OFFCURVE",
"192 692 OFFCURVE",
"192 480 CURVE SMOOTH",
"192 247 OFFCURVE",
"300 69 OFFCURVE",
"484 69 CURVE SMOOTH",
"583 69 OFFCURVE",
"655 109 OFFCURVE",
"703 148 CURVE",
"724 102 LINE",
"673 33 OFFCURVE",
"547 -30 OFFCURVE",
"418 -30 CURVE SMOOTH",
"187 -30 OFFCURVE",
"52 165 OFFCURVE"
);
}
);
width = 765;
},
{
layerId = "A90FD956-C3C8-4F9C-A3E6-D92726884721";
paths = (
{
closed = 1;
nodes = (
"50 415 CURVE SMOOTH",
"50 712 OFFCURVE",
"258 900 OFFCURVE",
"475 900 CURVE SMOOTH",
"642 900 OFFCURVE",
"716 826 OFFCURVE",
"716 747 CURVE SMOOTH",
"716 688 OFFCURVE",
"672 648 OFFCURVE",
"589 642 CURVE",
"561 709 OFFCURVE",
"515 806 OFFCURVE",
"428 806 CURVE SMOOTH",
"309 806 OFFCURVE",
"231 688 OFFCURVE",
"231 507 CURVE SMOOTH",
"231 340 OFFCURVE",
"320 90 OFFCURVE",
"528 90 CURVE SMOOTH",
"627 90 OFFCURVE",
"683 121 OFFCURVE",
"730 151 CURVE",
"755 93 LINE",
"702 29 OFFCURVE",
"574 -30 OFFCURVE",
"445 -30 CURVE SMOOTH",
"205 -30 OFFCURVE",
"50 175 OFFCURVE"
);
}
);
width = 778;
},
{
layerId = "E2DFD151-CE6A-4BFD-8A7C-97074A3C806B";
paths = (
{
closed = 1;
nodes = (
"40.897 420 CURVE SMOOTH",
"40.897 744 OFFCURVE",
"293.897 934 OFFCURVE",
"521.897 934 CURVE SMOOTH",
"691.897 934 OFFCURVE",
"785.897 844 OFFCURVE",
"785.897 736 CURVE SMOOTH",
"785.897 648 OFFCURVE",
"716.897 605 OFFCURVE",
"620.897 596 CURVE",
"576.897 722 OFFCURVE",
"531.897 791 OFFCURVE",
"459.897 791 CURVE SMOOTH",
"356.897 791 OFFCURVE",
"297.897 697 OFFCURVE",
"297.897 511 CURVE SMOOTH",
"297.897 349 OFFCURVE",
"383.897 145 OFFCURVE",
"565.897 145 CURVE SMOOTH",
"669.897 145 OFFCURVE",
"727.897 173 OFFCURVE",
"789.897 211 CURVE",
"821.897 130 LINE",
"769.897 44 OFFCURVE",
"629.897 -30 OFFCURVE",
"479.897 -30 CURVE SMOOTH",
"182.897 -30 OFFCURVE",
"40.897 164 OFFCURVE"
);
}
);
width = 835;
},
{
layerId = "3A1433D5-008E-4B0B-A40A-C7A907BE4F87";
paths = (
{
closed = 1;
nodes = (
"29 386 CURVE SMOOTH",
"29 709 OFFCURVE",
"285.791 947 OFFCURVE",
"494 947 CURVE SMOOTH",
"634.761 947 OFFCURVE",
"724.686 872.273 OFFCURVE",
"724.686 756.318 CURVE SMOOTH",
"724.686 652.302 OFFCURVE",
"660.232 553.061 OFFCURVE",
"584 534 CURVE",
"527.663 612.261 OFFCURVE",
"460.333 659 OFFCURVE",
"395 659 CURVE SMOOTH",
"349.54 659 OFFCURVE",
"336.546 607.787 OFFCURVE",
"336.546 549.047 CURVE SMOOTH",
"336.546 412.078 OFFCURVE",
"365.477 247.033 OFFCURVE",
"491.931 247.033 CURVE SMOOTH",
"552.877 247.033 OFFCURVE",
"613.667 279.024 OFFCURVE",
"646 331 CURVE",
"756 207 LINE",
"707.969 66.857 OFFCURVE",
"603.4 -32.037 OFFCURVE",
"407.603 -32.037 CURVE SMOOTH",
"134.835 -32.037 OFFCURVE",
"29 131.672 OFFCURVE"
);
}
);
width = 777;
}
);
unicode = 0063;
},
{
color = 1;
glyphname = ccaron;
lastChange = "2016-08-10 12:14:12 +0000";
layers = (
{
components = (
{
name = c;
}
);
layerId = "AE2A7EE3-C661-4E21-B15C-7E7CBD4BEDE2";
paths = (
{
closed = 1;
nodes = (
"269 1190 LINE",
"324 1239 LINE",
"490 1070 LINE",
"499 1070 LINE",
"642 1235 LINE",
"678 1208 LINE",
"504 1024 LINE",
"448 1010 LINE"
);
}
);
width = 743;
},
{
components = (
{
name = c;
}
);
layerId = "95A1F7A7-251D-4D34-8987-F15869CF2847";
paths = (
{
closed = 1;
nodes = (
"288 1163 LINE",
"356 1218 LINE",
"513 1062 LINE",
"523 1062 LINE",
"655 1215 LINE",
"696 1186 LINE",
"523 1004 LINE",
"467 990 LINE"
);
}
);
width = 765;
},
{
layerId = "A90FD956-C3C8-4F9C-A3E6-D92726884721";
paths = (
{
closed = 1;
nodes = (
"50 415 CURVE SMOOTH",
"50 712 OFFCURVE",
"258 900 OFFCURVE",
"475 900 CURVE SMOOTH",
"642 900 OFFCURVE",
"716 826 OFFCURVE",
"716 747 CURVE SMOOTH",
"716 688 OFFCURVE",
"672 648 OFFCURVE",
"589 642 CURVE",
"561 709 OFFCURVE",
"515 806 OFFCURVE",
"428 806 CURVE SMOOTH",
"309 806 OFFCURVE",
"231 688 OFFCURVE",
"231 507 CURVE SMOOTH",
"231 340 OFFCURVE",
"320 90 OFFCURVE",
"528 90 CURVE SMOOTH",
"627 90 OFFCURVE",
"683 121 OFFCURVE",
"730 151 CURVE",
"755 93 LINE",
"702 29 OFFCURVE",
"574 -30 OFFCURVE",
"445 -30 CURVE SMOOTH",
"205 -30 OFFCURVE",
"50 175 OFFCURVE"
);
},
{
closed = 1;
nodes = (
"222 1174 LINE",
"302 1237 LINE",
"451 1093 LINE",
"461 1093 LINE",
"585 1234 LINE",
"628 1203 LINE",
"457 1024 LINE",
"402 1010 LINE"
);
}
);
width = 778;
},
{
components = (
{
name = c;
}
);
layerId = "E2DFD151-CE6A-4BFD-8A7C-97074A3C806B";
paths = (
{
closed = 1;
nodes = (
"240 1206 LINE",
"445 1241 LINE",
"534 1156 LINE",
"544 1156 LINE",
"628 1237 LINE",
"771 1223 LINE",
"581 1007 LINE",
"434 986 LINE"
);
}
);
width = 835;
},
{
components = (
{
name = c;
}
);
layerId = "3A1433D5-008E-4B0B-A40A-C7A907BE4F87";
paths = (
{
closed = 1;
nodes = (
"179 1295 LINE",
"364 1332 LINE",
"477 1247 LINE",
"487 1247 LINE",
"583 1329 LINE",
"755 1300 LINE",
"545 1099 LINE",
"387 1089 LINE"
);
}
);
width = 777;
}
);
unicode = 010D;
},
{
color = 1;
glyphname = ccedilla;
lastChange = "2016-08-10 12:14:12 +0000";
layers = (
{
components = (
{
name = c;
},
{
name = cedilla;
transform = "{1, 0, 0, 1, 238, 0}";
}
);
layerId = "AE2A7EE3-C661-4E21-B15C-7E7CBD4BEDE2";
width = 743;
},
{
components = (
{
name = cedilla;
transform = "{1, 0, 0, 1, 270, -3}";
},
{
name = c;
}
);
layerId = "95A1F7A7-251D-4D34-8987-F15869CF2847";
width = 765;
},
{
layerId = "A90FD956-C3C8-4F9C-A3E6-D92726884721";
paths = (
{
closed = 1;
nodes = (
"50 415 CURVE SMOOTH",
"50 712 OFFCURVE",
"256 900 OFFCURVE",
"473 900 CURVE SMOOTH",
"640 900 OFFCURVE",
"715 826 OFFCURVE",
"715 747 CURVE SMOOTH",
"715 688 OFFCURVE",
"671 648 OFFCURVE",
"588 642 CURVE",
"560 709 OFFCURVE",
"513 806 OFFCURVE",
"426 806 CURVE SMOOTH",
"307 806 OFFCURVE",
"229 688 OFFCURVE",
"229 507 CURVE SMOOTH",
"229 340 OFFCURVE",
"318 90 OFFCURVE",
"526 90 CURVE SMOOTH",
"625 90 OFFCURVE",
"681 121 OFFCURVE",
"728 151 CURVE",
"754 93 LINE",
"708 36 OFFCURVE",
"604 -17 OFFCURVE",
"491 -28 CURVE",
"457 -76 LINE",
"494 -109 OFFCURVE",
"546 -160 OFFCURVE",
"546 -227 CURVE SMOOTH",
"546 -306 OFFCURVE",
"463 -355 OFFCURVE",
"347 -389 CURVE",
"327 -331 LINE",
"384 -312 OFFCURVE",
"413 -278 OFFCURVE",
"413 -248 CURVE SMOOTH",
"413 -214 OFFCURVE",
"376 -172 OFFCURVE",
"340 -138 CURVE",
"415 -28 LINE",
"191 -13 OFFCURVE",
"50 185 OFFCURVE"
);
}
);
width = 777;
},
{
components = (
{
name = cedilla;
transform = "{1, 0, 0, 1, 226, -20}";
},
{
name = c;
}
);
layerId = "E2DFD151-CE6A-4BFD-8A7C-97074A3C806B";
width = 835;
},
{
components = (
{
name = cedilla;
transform = "{1, 0, 0, 1, 142, -3}";
},
{
name = c;
}
);
layerId = "3A1433D5-008E-4B0B-A40A-C7A907BE4F87";
width = 777;
}
);
unicode = 00E7;
},
{
glyphname = d;
lastChange = "2016-08-10 11:03:53 +0000";
layers = (
{
layerId = "AE2A7EE3-C661-4E21-B15C-7E7CBD4BEDE2";
paths = (
{
closed = 1;
nodes = (
"56 386 CURVE SMOOTH",
"56 693 OFFCURVE",
"256 877 OFFCURVE",
"472 877 CURVE SMOOTH",
"536.639 877 OFFCURVE",
"629.68 851 OFFCURVE",
"662 825 CURVE",
"672 825 LINE",
"656 960 LINE",
"656 1232.5 LINE",
"507 1263.5 LINE",
"513 1294.5 LINE",
"751 1314.5 LINE",
"759 1304.5 LINE",
"759 229 LINE SMOOTH",
"759 73 OFFCURVE",
"811 59 OFFCURVE",
"848 50 CURVE SMOOTH",
"908 37 LINE",
"902 1 LINE",
"882 -8 OFFCURVE",
"853 -20 OFFCURVE",
"807 -20 CURVE SMOOTH",
"712.147 -20 OFFCURVE",
"674 42 OFFCURVE",
"674 124 CURVE SMOOTH",
"674 131 LINE",
"664 131 LINE",
"607.76 53 OFFCURVE",
"504.16 -22 OFFCURVE",
"368 -22 CURVE SMOOTH",
"191 -22 OFFCURVE",
"56 119 OFFCURVE"
);
},
{
closed = 1;
nodes = (
"156 442 CURVE SMOOTH",
"156 209 OFFCURVE",
"238 47 OFFCURVE",
"423 47 CURVE SMOOTH",
"505.629 47 OFFCURVE",
"612.849 114 OFFCURVE",
"664 190 CURVE",
"664 704 LINE",
"605.959 780 OFFCURVE",
"516.439 818 OFFCURVE",
"422 818 CURVE SMOOTH",
"291 818 OFFCURVE",
"156 695 OFFCURVE"
);
}
);
width = 956;
},
{
layerId = "95A1F7A7-251D-4D34-8987-F15869CF2847";
paths = (
{
closed = 1;
nodes = (
"51 393 CURVE SMOOTH",
"51 692 OFFCURVE",
"265 889 OFFCURVE",
"477 889 CURVE SMOOTH",
"543 889 OFFCURVE",
"628 866 OFFCURVE",
"661 841 CURVE",
"669 841 LINE",
"655 972 LINE",
"655 1181 LINE",
"503 1224 LINE",
"512 1277 LINE",
"770 1299 LINE",
"785 1282 LINE",
"785 222 LINE SMOOTH",
"785 91 OFFCURVE",
"833 81 OFFCURVE",
"884 70 CURVE SMOOTH",
"937 58 LINE",
"928 -2 LINE",
"888 -14 OFFCURVE",
"861 -22 OFFCURVE",
"807 -22 CURVE SMOOTH",
"711 -22 OFFCURVE",
"669 42 OFFCURVE",
"669 124 CURVE SMOOTH",
"669 131 LINE",
"659 131 LINE",
"603 54 OFFCURVE",
"509 -21 OFFCURVE",
"370 -21 CURVE SMOOTH",
"192 -21 OFFCURVE",
"51 122 OFFCURVE"
);
},
{
closed = 1;
nodes = (
"189 452 CURVE SMOOTH",
"189 217 OFFCURVE",
"278 77 OFFCURVE",
"433 77 CURVE SMOOTH",
"517 77 OFFCURVE",
"616 135 OFFCURVE",
"659 193 CURVE",
"659 685 LINE",
"603 766 OFFCURVE",
"509 810 OFFCURVE",
"428 810 CURVE SMOOTH",
"284 810 OFFCURVE",
"189 674 OFFCURVE"
);
}
);
width = 983;
},
{
layerId = "A90FD956-C3C8-4F9C-A3E6-D92726884721";
paths = (
{
closed = 1;
nodes = (
"54 399 CURVE SMOOTH",
"54 690 OFFCURVE",
"285 900 OFFCURVE",
"491 900 CURVE SMOOTH",
"557 900 OFFCURVE",
"630 880 OFFCURVE",
"663 856 CURVE",
"670 856 LINE",
"658 984 LINE",
"658 1141 LINE",
"506 1196 LINE",
"520 1271 LINE",
"798 1295 LINE",
"819 1271 LINE",
"819 215 LINE SMOOTH",
"819 110 OFFCURVE",
"862 104 OFFCURVE",
"928 89 CURVE SMOOTH",
"973 79 LINE",
"962 -4 LINE",
"903 -19 OFFCURVE",
"877 -23 OFFCURVE",
"815 -23 CURVE SMOOTH",
"715 -23 OFFCURVE",
"666 41 OFFCURVE",
"666 124 CURVE SMOOTH",
"666 131 LINE",
"657 131 LINE",
"601 54 OFFCURVE",
"518 -21 OFFCURVE",
"380 -21 CURVE SMOOTH",
"203 -21 OFFCURVE",
"54 124 OFFCURVE"
);
},
{
closed = 1;
nodes = (
"230 462 CURVE SMOOTH",
"230 225 OFFCURVE",
"325 105 OFFCURVE",
"451 105 CURVE SMOOTH",
"534 105 OFFCURVE",
"623 157 OFFCURVE",
"657 197 CURVE",
"657 666 LINE",
"604 753 OFFCURVE",
"510 802 OFFCURVE",
"443 802 CURVE SMOOTH",
"286 802 OFFCURVE",
"230 653 OFFCURVE"
);
}
);
width = 987;
},
{
layerId = "E2DFD151-CE6A-4BFD-8A7C-97074A3C806B";
paths = (
{
closed = 1;
nodes = (
"48 383 CURVE SMOOTH",
"48 658 OFFCURVE",
"239 906 OFFCURVE",
"510 906 CURVE SMOOTH",
"558 906 OFFCURVE",
"623 890 OFFCURVE",
"653 870 CURVE",
"659 870 LINE",
"648 970 LINE",
"648 1079 LINE",
"485 1157 LINE",
"505 1276 LINE",
"839 1302 LINE",
"879 1262 LINE",
"879 295 LINE SMOOTH",
"879 191 OFFCURVE",
"915 177 OFFCURVE",
"1003 152 CURVE SMOOTH",
"1039 142 LINE",
"1021 16 LINE",
"954 -9 OFFCURVE",
"910 -23 OFFCURVE",
"830 -23 CURVE SMOOTH",
"726 -23 OFFCURVE",
"671 34 OFFCURVE",
"655 116 CURVE SMOOTH",
"652 126 LINE",
"641 128 LINE",
"586 52 OFFCURVE",
"511 -20 OFFCURVE",
"373 -20 CURVE SMOOTH",
"176 -20 OFFCURVE",
"48 143 OFFCURVE"
);
},
{
closed = 1;
nodes = (
"305 464 CURVE SMOOTH",
"305 292 OFFCURVE",
"374 179 OFFCURVE",
"485 179 CURVE SMOOTH",
"543 179 OFFCURVE",
"605 210 OFFCURVE",
"645 244 CURVE",
"645 638 LINE",
"592 714 OFFCURVE",
"523 751 OFFCURVE",
"471 751 CURVE SMOOTH",
"355 751 OFFCURVE",
"305 612 OFFCURVE"
);
}
);
width = 1086;
},
{
layerId = "3A1433D5-008E-4B0B-A40A-C7A907BE4F87";
paths = (
{
closed = 1;
nodes = (
"890 374 LINE SMOOTH",
"890 253 OFFCURVE",
"923.811 218.34 OFFCURVE",
"988 200 CURVE SMOOTH",
"1016 192 LINE",
"991 34 LINE",
"934 0 OFFCURVE",
"872 -24 OFFCURVE",
"805 -24 CURVE SMOOTH",
"694.203 -24 OFFCURVE",
"627 31.912 OFFCURVE",
"620 118 CURVE SMOOTH",
"619 131 LINE",
"605 131 LINE",
"573 35.464 OFFCURVE",
"481.592 -19 OFFCURVE",
"342 -19 CURVE SMOOTH",
"131.718 -19 OFFCURVE",
"29 181.86 OFFCURVE",
"29 407 CURVE SMOOTH",
"29 666.969 OFFCURVE",
"167.893 948.023 OFFCURVE",
"458.887 948.023 CURVE SMOOTH",
"524.869 948.023 OFFCURVE",
"586.585 925.16 OFFCURVE",
"624 864 CURVE",
"628 864 LINE",
"618 946 LINE",
"618 1052 LINE",
"477 1133 LINE",
"506 1277 LINE",
"847 1304 LINE",
"887 1259 LINE"
);
},
{
closed = 1;
nodes = (
"346 469 CURVE SMOOTH",
"346 285 OFFCURVE",
"390 206.11 OFFCURVE",
"485.319 206.11 CURVE SMOOTH",
"513.549 206.11 OFFCURVE",
"545.477 215.089 OFFCURVE",
"581 233 CURVE",
"581 669 LINE",
"547.485 690.333 OFFCURVE",
"530.698 699 OFFCURVE",
"495 699 CURVE SMOOTH",
"399.84 699 OFFCURVE",
"346 573.635 OFFCURVE"
);
}
);
width = 1018;
}
);
unicode = 0064;
},
